<svg width="36" height="676" viewBox="0 0 36 676" fill="none" xmlns="http://www.w3.org/2000/svg">
<g clip-path="url(#clip0_66_292)">
<path opacity="0.7" d="M20.82 69.42C24.4099 69.42 27.32 66.5098 27.32 62.92C27.32 59.3301 24.4099 56.42 20.82 56.42C17.2302 56.42 14.32 59.3301 14.32 62.92C14.32 66.5098 17.2302 69.42 20.82 69.42Z" fill="#3FBC6A"/>
<path opacity="0.7" d="M29.71 50.71H29.55C29.47 49.84 28.74 49.15 27.84 49.15C27.82 49.15 27.79 49.15 27.77 49.15C27.37 48.17 26.38 47.52 25.3 47.59C24.04 47.67 23.01 48.72 22.97 49.98C22.97 50.23 22.99 50.48 23.05 50.73H22.78C22.26 50.73 21.84 51.15 21.84 51.67C21.84 52.19 22.26 52.61 22.78 52.61L29.71 52.58C30.23 52.58 30.64 52.16 30.64 51.65C30.64 51.14 30.22 50.72 29.71 50.72V50.71Z" fill="#3FBC6A"/>
<path d="M31.08 66.98L26.88 65.17L23.43 63.68C23 63.5 22.53 63.49 22.1 63.66L20.16 64.42C19.93 63.47 19.82 62.5 19.82 61.52V61.91C19.82 61.69 19.63 61.51 19.41 61.51C19.19 61.51 19.01 61.69 19.01 61.91V61.52C19.01 62.6 19.14 63.67 19.4 64.71L18.15 65.2V64.03C18.15 63.81 17.97 63.63 17.75 63.63C17.53 63.63 17.35 63.81 17.35 64.03V65.51L16.8 65.73L15.91 65.37C16.28 64.12 16.47 62.82 16.47 61.52V57.53H17.32L17.34 62.49C17.34 62.71 17.52 62.89 17.74 62.89C17.96 62.89 18.14 62.71 18.14 62.49L18.12 57.53H18.99V59.3C18.99 59.52 19.17 59.7 19.39 59.7C19.61 59.7 19.79 59.52 19.79 59.3V57.53H20.9L21.58 58.18C21.76 58.35 22.03 58.4 22.27 58.3C22.5 58.2 22.65 57.97 22.65 57.72V56.23C22.65 55.52 22.07 54.95 21.36 54.95H20.31L19.3 53.42V49.05C19.75 48.94 20.1 48.53 20.1 48.04C20.1 47.47 19.63 47 19.06 47H16.29C15.72 47 15.25 47.47 15.25 48.04C15.25 48.61 15.69 49.05 16.24 49.08V53.41L15.24 54.95H14.08C13.74 54.95 13.41 55.09 13.17 55.33C12.93 55.57 12.79 55.9 12.8 56.24V57.75C12.8 58.1 13.09 58.38 13.43 58.38C13.59 58.38 13.74 58.32 13.86 58.21L14.58 57.54H15.65L15.66 61.53C15.66 62.73 15.49 63.93 15.15 65.08L12.96 64.19C12.55 64.02 12.1 64.02 11.69 64.17L4.25999 66.97C4.04999 67.05 3.94999 67.28 4.02999 67.49C4.10999 67.7 4.33999 67.8 4.54999 67.72H4.53999L7.37999 66.65L9.81999 67.94L10.09 68.9C10.14 69.07 10.3 69.19 10.47 69.19C10.69 69.19 10.87 69.01 10.87 68.79C10.87 68.75 10.87 68.72 10.85 68.68L10.77 68.39H11.64C11.86 68.39 12.04 68.21 12.04 67.99C12.04 67.77 11.86 67.59 11.64 67.59H10.54V67.56C10.51 67.46 10.44 67.37 10.34 67.32L8.36999 66.28L11.98 64.92C12.2 64.84 12.45 64.84 12.67 64.93L18.75 67.4C18.95 67.48 19.19 67.38 19.27 67.18C19.35 66.98 19.25 66.74 19.05 66.66L17.87 66.18C17.87 66.18 17.92 66.16 17.95 66.14L22.37 64.4C22.6 64.31 22.86 64.31 23.09 64.41L25.76 65.56L24.32 66.29C24.32 66.29 24.23 66.35 24.2 66.39L23.74 66.93L22.34 66.83C22.12 66.82 21.93 66.98 21.91 67.2C21.89 67.42 22.06 67.61 22.28 67.63L23.09 67.69L22.75 68.1C22.61 68.27 22.63 68.52 22.8 68.66C22.87 68.72 22.96 68.75 23.06 68.75C23.17 68.75 23.29 68.7 23.37 68.61L24.76 66.96L26.72 65.96L30.75 67.7C30.95 67.79 31.19 67.7 31.28 67.49C31.37 67.29 31.28 67.05 31.07 66.96L31.08 66.98ZM16.06 47.98C16.06 47.88 16.17 47.8 16.3 47.8H19.07C19.2 47.8 19.31 47.88 19.31 47.98C19.31 48.08 19.2 48.16 19.07 48.16H16.3C16.17 48.16 16.06 48.08 16.06 47.98ZM18.51 50.57V51.19H17.05V50.57H18.51ZM17.05 49.77V49.08H18.51V49.77H17.05ZM18.52 51.99V52.61H17.06V51.99H18.52ZM14.44 56.73C14.34 56.73 14.24 56.77 14.17 56.84L13.61 57.35V56.23C13.61 56.1 13.66 55.98 13.75 55.89C13.84 55.8 13.96 55.75 14.09 55.75H16.5C16.72 55.75 16.9 55.57 16.9 55.34C16.9 55.12 16.72 54.94 16.5 54.94H16.21L16.99 53.74C17.03 53.67 17.06 53.6 17.06 53.52V53.4H18.52V53.52C18.52 53.6 18.54 53.67 18.59 53.74L19.38 54.93H18.11C17.89 54.93 17.71 55.11 17.71 55.33C17.71 55.55 17.89 55.73 18.11 55.73H21.38C21.65 55.73 21.86 55.95 21.86 56.21V57.31L21.35 56.82C21.28 56.75 21.18 56.71 21.07 56.71L14.44 56.72V56.73Z" fill="black"/>
</g>
<g clip-path="url(#clip1_66_292)">
<path opacity="0.7" d="M21.5 109C25.0899 109 28 106.09 28 102.5C28 98.9101 25.0899 96 21.5 96C17.9101 96 15 98.9101 15 102.5C15 106.09 17.9101 109 21.5 109Z" fill="#3FBC6A"/>
<path opacity="0.7" d="M17.5 95C18.3284 95 19 94.3284 19 93.5C19 92.6716 18.3284 92 17.5 92C16.6716 92 16 92.6716 16 93.5C16 94.3284 16.6716 95 17.5 95Z" fill="#3FBC6A"/>
<path d="M14.73 107.84C12.36 107.84 11 106.48 11 104.11V91.73C11 89.36 12.36 88 14.73 88H20.92C23.29 88 24.65 89.36 24.65 91.73V104.11C24.65 106.48 23.29 107.84 20.92 107.84H14.73ZM11.97 91.73V104.11C11.97 105.97 12.87 106.87 14.73 106.87H20.92C22.78 106.87 23.68 105.97 23.68 104.11V91.73C23.68 89.87 22.78 88.97 20.92 88.97H14.73C12.87 88.97 11.97 89.87 11.97 91.73Z" fill="#292D32"/>
<path d="M15.57 100.7C14.67 100.7 13.95 99.97 13.95 99.08V91.57C13.95 90.67 14.68 89.95 15.57 89.95H21.08C21.98 89.95 22.7 90.68 22.7 91.57V99.08C22.7 99.98 21.97 100.7 21.08 100.7H15.57ZM14.92 91.57V99.08C14.92 99.44 15.21 99.73 15.57 99.73H21.08C21.44 99.73 21.73 99.44 21.73 99.08V91.57C21.73 91.21 21.44 90.92 21.08 90.92H15.57C15.21 90.92 14.92 91.21 14.92 91.57Z" fill="#292D32"/>
<path d="M15.39 104.83C15.2 104.64 15.2 104.33 15.39 104.14L16.88 102.65C17.07 102.46 17.38 102.46 17.57 102.65C17.76 102.84 17.76 103.15 17.57 103.34L16.08 104.83C15.98 104.93 15.86 104.97 15.74 104.97C15.62 104.97 15.49 104.92 15.4 104.83H15.39Z" fill="#292D32"/>
<path d="M16.9 104.85L15.41 103.36C15.22 103.17 15.22 102.86 15.41 102.67C15.6 102.48 15.91 102.48 16.1 102.67L17.59 104.16C17.78 104.35 17.78 104.66 17.59 104.85C17.49 104.95 17.37 104.99 17.25 104.99C17.13 104.99 17 104.94 16.91 104.85H16.9ZM20.6 103.03C20.6 102.67 20.89 102.38 21.24 102.38H21.25C21.61 102.38 21.9 102.67 21.9 103.03C21.9 103.39 21.61 103.68 21.25 103.68C20.89 103.68 20.59 103.39 20.59 103.03H20.6ZM19.3 104.44C19.3 104.07 19.59 103.78 19.95 103.78C20.31 103.78 20.6 104.07 20.6 104.43C20.6 104.79 20.31 105.09 19.95 105.09C19.59 105.09 19.3 104.8 19.3 104.45V104.44Z" fill="#292D32"/>
</g>
<g clip-path="url(#clip2_66_292)">
<path opacity="0.7" d="M18.98 149.26C22.5698 149.26 25.48 146.35 25.48 142.76C25.48 139.17 22.5698 136.26 18.98 136.26C15.3901 136.26 12.48 139.17 12.48 142.76C12.48 146.35 15.3901 149.26 18.98 149.26Z" fill="#3FBC6A"/>
<path opacity="0.7" d="M16.98 135.26C17.8084 135.26 18.48 134.588 18.48 133.76C18.48 132.932 17.8084 132.26 16.98 132.26C16.1516 132.26 15.48 132.932 15.48 133.76C15.48 134.588 16.1516 135.26 16.98 135.26Z" fill="#3FBC6A"/>
<path d="M11.53 135.52L12.27 136.36C12.42 136.51 12.66 136.56 12.81 136.41L14.14 135.38C14.14 135.38 15.08 134.99 15.81 134.99C16.54 134.99 17.34 134.2 17.34 134.2C17.34 134.2 17.78 137.45 15.62 138.58C14.09 139.37 13.8 140.55 13.75 141.19C13.75 141.39 13.95 141.58 14.14 141.58H22.12C22.27 141.58 22.42 141.43 22.46 141.28C24.29 133.65 20.05 129.95 18.18 129.56C17.88 129.17 17.1 128.77 16.55 128.53C16.35 128.43 16.16 128.63 16.25 128.83L16.74 129.72L14.42 131.44C14.12 131.69 13.93 131.98 13.88 132.38C13.88 132.72 13.73 133.02 13.49 133.22L11.62 134.99C11.47 135.14 11.47 135.38 11.52 135.53L11.53 135.52ZM21.53 143.7H15.22C13.5 143.7 12.07 145.13 12.07 146.85H24.68C24.68 145.08 23.3 143.7 21.53 143.7Z" stroke="black" stroke-linejoin="round"/>
</g>
<g clip-path="url(#clip3_66_292)">
<path opacity="0.7" d="M11.8541 186.708C15.6396 186.708 18.7083 183.64 18.7083 179.854C18.7083 176.069 15.6396 173 11.8541 173C8.0687 173 5 176.069 5 179.854C5 183.64 8.0687 186.708 11.8541 186.708Z" fill="#3FBC6A"/>
<path d="M9.34269 173.905C9.13179 173.905 8.96307 174.074 8.96307 174.285C8.96307 174.496 9.13179 174.664 9.34269 174.664C9.55358 174.664 9.7223 174.496 9.7223 174.285C9.7223 174.074 9.55358 173.905 9.34269 173.905Z" fill="black"/>
<path d="M20.0457 171.29C20.0457 171.29 20.0352 171.29 20.0246 171.29C19.8559 171.301 19.7188 171.438 19.7083 171.606C19.6977 171.796 19.8348 171.954 20.0246 171.965C20.0246 171.965 20.0352 171.965 20.0457 171.965C20.225 171.965 20.3726 171.828 20.3831 171.649C20.3831 171.638 20.3831 171.617 20.3831 171.606C20.3726 171.427 20.225 171.29 20.0457 171.29Z" fill="black"/>
<path d="M23.2197 183.585C23.0299 183.585 22.8823 183.733 22.8823 183.923C22.8823 184.112 23.0299 184.26 23.2197 184.26C23.4095 184.26 23.5571 184.112 23.5571 183.923C23.5571 183.733 23.4095 183.585 23.2197 183.585Z" fill="black"/>
<path d="M19.5923 169.582C19.6661 169.582 19.7294 169.603 19.7926 169.624L27.8805 172.281C28.2918 172.418 28.5132 172.851 28.3761 173.262L24.4113 185.346C24.3058 185.663 24.0106 185.884 23.6731 185.884C23.5888 185.884 23.515 185.873 23.4306 185.842L15.3427 183.185C14.9315 183.047 14.71 182.615 14.8471 182.204L18.8225 170.12C18.928 169.803 19.2232 169.582 19.5607 169.582H19.5923ZM19.5501 168.527C18.7593 168.527 18.0633 169.044 17.8102 169.793L13.8454 181.866C13.529 182.826 14.0563 183.859 15.0158 184.176L23.1037 186.833C23.2935 186.896 23.4833 186.928 23.6731 186.928C24.4429 186.928 25.16 186.443 25.413 185.663L29.3779 173.589C29.6942 172.629 29.167 171.596 28.2074 171.279L20.1301 168.622C19.9403 168.559 19.7505 168.527 19.5607 168.527H19.5501Z" fill="black"/>
<path d="M18.3796 185.346L15.1002 187.044C14.826 187.181 14.5202 187.255 14.2039 187.255C13.4552 187.255 12.7698 186.833 12.4323 186.169L6.73814 174.928C6.24253 173.947 6.63269 172.756 7.61336 172.26L14.2355 168.917C15.2162 168.422 16.4077 168.812 16.9033 169.793L17.768 171.49" stroke="black" stroke-miterlimit="10" stroke-linecap="round"/>
<path d="M20.7522 175.508C20.4886 175.402 20.246 175.318 19.9824 175.213C20.0246 175.497 20.0668 175.75 20.1195 176.046C20.3409 175.856 20.5413 175.687 20.7522 175.508ZM19.0228 177.722C19.2864 177.828 19.529 177.912 19.8031 178.018C19.761 177.733 19.7188 177.48 19.6766 177.195C19.4446 177.385 19.2443 177.543 19.0228 177.722ZM22.5975 174.791C22.3761 174.97 22.1757 175.139 21.9648 175.308C22.2285 175.413 22.471 175.497 22.7346 175.603C22.6924 175.329 22.6502 175.076 22.5975 174.791ZM20.71 179.779C20.9314 179.599 21.1212 179.441 21.3427 179.272C21.0791 179.167 20.8365 179.083 20.5729 178.977C20.6151 179.251 20.6573 179.504 20.71 179.779ZM24.2847 176.858C24.0211 176.763 23.7785 176.668 23.5149 176.562C23.5571 176.837 23.5887 177.1 23.6309 177.385C23.8629 177.195 24.0632 177.037 24.2847 176.858ZM23.0615 177.733C22.9877 177.279 22.9244 176.826 22.8401 176.373C22.8401 176.33 22.7873 176.288 22.7451 176.267C22.5448 176.183 22.3339 176.109 22.123 176.025C21.9121 175.94 21.7012 175.856 21.4798 175.782C21.4481 175.772 21.3849 175.782 21.3532 175.803C20.9947 176.098 20.6362 176.394 20.2777 176.689C20.2249 176.731 20.2038 176.784 20.2144 176.858C20.2882 177.311 20.3515 177.775 20.4358 178.228C20.4358 178.271 20.478 178.313 20.5202 178.323C20.942 178.482 21.3532 178.65 21.775 178.798C21.8172 178.808 21.8805 178.798 21.9121 178.777C22.2706 178.492 22.6186 178.197 22.9771 177.902C23.0404 177.849 23.0509 177.807 23.0404 177.733H23.0615ZM22.5448 179.072C22.819 179.178 23.0615 179.272 23.3251 179.367C23.2829 179.083 23.2408 178.83 23.188 178.534C22.9666 178.724 22.7662 178.882 22.5448 179.072Z" fill="#3FBC6A"/>
</g>
<g clip-path="url(#clip4_66_292)">
<path d="M12.7 209.92L15.25 212.48C15.25 212.48 15.32 212.55 15.36 212.57C15.7 212.83 15.9 213.21 15.9 213.63C15.9 214.37 15.3 214.96 14.57 214.96C14.13 214.96 13.83 214.74 13.64 214.55C13.45 214.35 13.19 214.25 12.93 214.25C12.85 214.25 12.78 214.25 12.7 214.28C12.63 214.26 12.55 214.25 12.47 214.25C12.21 214.25 11.95 214.35 11.76 214.55C11.58 214.74 11.27 214.96 10.83 214.96C10.1 214.96 9.5 214.36 9.5 213.63C9.5 213.21 9.7 212.82 10.04 212.57C10.08 212.54 10.11 212.51 10.15 212.48L12.7 209.92ZM24.83 210.43C24.83 210.43 26.16 211.03 26.16 211.76C26.16 212.18 25.96 212.56 25.62 212.82C25.58 212.85 25.55 212.88 25.51 212.91L22.96 215.47L20.41 212.91C20.41 212.91 20.34 212.84 20.3 212.82C19.96 212.56 19.76 212.18 19.76 211.76C19.76 211.02 20.36 210.43 21.09 210.43C21.51 210.43 21.9 210.63 22.15 210.98C22.34 211.24 22.64 211.39 22.95 211.39C23.27 211.39 23.57 211.24 23.75 210.98C24.01 210.63 24.39 210.43 24.81 210.43M22.94 219.3C23.76 219.3 24.44 219.96 24.46 220.78C24.46 220.82 24.45 220.87 24.45 220.91C24.43 221.36 24.7 221.76 25.12 221.91C25.73 222.12 26.14 222.7 26.14 223.33C26.14 224.17 25.46 224.85 24.62 224.85C24.35 224.85 24.09 224.78 23.85 224.63C23.69 224.53 23.51 224.48 23.33 224.48C23.2 224.48 23.07 224.51 22.94 224.56C22.82 224.51 22.69 224.48 22.55 224.48C22.37 224.48 22.19 224.53 22.03 224.63C21.79 224.78 21.53 224.85 21.26 224.85C20.42 224.85 19.74 224.17 19.74 223.33C19.74 222.69 20.15 222.12 20.76 221.91C21.18 221.76 21.46 221.35 21.43 220.9V220.81C21.42 219.97 22.1 219.29 22.94 219.29M12.68 219.39L15.41 222.45V222.49L12.68 225.56L9.95 222.5V222.46L12.68 219.39ZM12.68 208.5L9.44 211.77C8.87 212.2 8.5 212.87 8.5 213.63C8.5 214.92 9.54 215.96 10.83 215.96C11.48 215.96 12.05 215.68 12.47 215.25L11.86 216.88H13.54L12.93 215.25C13.35 215.68 13.92 215.96 14.57 215.96C15.86 215.96 16.9 214.92 16.9 213.63C16.9 212.87 16.53 212.19 15.96 211.77L12.7 208.5H12.68ZM24.81 209.42C24.04 209.42 23.37 209.8 22.94 210.37C22.52 209.8 21.84 209.42 21.07 209.42C19.78 209.42 18.74 210.46 18.74 211.75C18.74 212.51 19.11 213.19 19.68 213.61L22.94 216.88L26.2 213.61C26.77 213.18 27.14 212.51 27.14 211.75C27.14 210.46 26.1 209.42 24.81 209.42ZM12.7 218.29C12.48 218.29 12.26 218.38 12.09 218.57L9.22 221.8C8.88 222.18 8.88 222.79 9.22 223.17L12.09 226.4C12.26 226.59 12.48 226.68 12.7 226.68C12.92 226.68 13.14 226.59 13.31 226.4L16.18 223.17C16.52 222.79 16.52 222.18 16.18 221.8L13.31 218.57C13.14 218.38 12.92 218.29 12.7 218.29ZM22.96 218.29C21.57 218.29 20.44 219.42 20.44 220.81C20.44 220.86 20.44 220.91 20.45 220.96C19.47 221.3 18.76 222.23 18.76 223.33C18.76 224.72 19.89 225.85 21.28 225.85C21.76 225.85 22.19 225.71 22.57 225.48L22.26 226.29C22.18 226.51 22.3 226.68 22.53 226.68H23.37C23.6 226.68 23.72 226.5 23.64 226.29L23.33 225.48C23.71 225.71 24.15 225.85 24.62 225.85C26.01 225.85 27.14 224.72 27.14 223.33C27.14 222.23 26.43 221.3 25.45 220.96C25.45 220.91 25.46 220.86 25.46 220.81C25.46 219.42 24.33 218.29 22.94 218.29H22.96Z" fill="black"/>
<path d="M22.94 210.37C23.37 209.8 24.04 209.42 24.81 209.42C26.1 209.42 27.14 210.46 27.14 211.75C27.14 212.51 26.77 213.18 26.2 213.61L22.94 216.88L19.68 213.61C19.11 213.19 18.74 212.51 18.74 211.75C18.74 210.46 19.78 209.42 21.07 209.42C21.84 209.42 22.52 209.8 22.94 210.37Z" fill="#3FBC6A"/>
</g>
<g clip-path="url(#clip5_66_292)">
<path d="M16.7795 255.811H15.6474V256.945H14.5152V255.811H13.383V254.678H14.5152V253.544H15.6474V254.678H16.7795V255.811ZM19.4659 258.645L24.4166 263.725C24.6945 264.147 24.3034 264.477 24.1284 264.673C22.5022 266.208 20.3202 267.156 17.9014 267.156C12.9095 267.156 8.84399 263.096 8.84399 258.078C8.84399 253.06 12.9095 249 17.9117 249C20.5878 249 23.2947 250.453 24.643 252.009C24.7048 252.04 25.0959 252.689 24.7048 253.091L19.4865 258.645H19.4659ZM17.9117 258.686L23.6138 252.576C22.1728 251.071 20.1555 250.133 17.9117 250.133C13.5374 250.133 9.98646 253.688 9.98646 258.078C9.98646 262.468 13.5374 266.023 17.922 266.023C19.929 266.023 21.7508 265.27 23.1403 264.044L17.922 258.686H17.9117Z" fill="black"/>
<circle cx="26" cy="258" r="2" fill="#3FBC6A"/>
</g>
<g clip-path="url(#clip6_66_292)">
<path opacity="0.7" d="M14.5 307C15.3284 307 16 306.328 16 305.5C16 304.672 15.3284 304 14.5 304C13.6716 304 13 304.672 13 305.5C13 306.328 13.6716 307 14.5 307Z" fill="#3FBC6A"/>
<path d="M14.96 298.64H9.7C8.76 298.64 8 299.4 8 300.34V305.6C8 306.54 8.76 307.3 9.7 307.3H14.96C15.9 307.3 16.66 306.54 16.66 305.6V300.34C16.66 299.4 15.9 298.64 14.96 298.64ZM15.54 305.6C15.54 305.92 15.28 306.18 14.96 306.18H9.7C9.38 306.18 9.12 305.92 9.12 305.6V300.34C9.12 300.02 9.38 299.76 9.7 299.76H14.96C15.28 299.76 15.54 300.02 15.54 300.34V305.6Z" fill="black"/>
<path d="M27.37 294.04L25.67 289.13C25.37 288.25 24.41 287.78 23.53 288.1L18.6 289.8C17.72 290.1 17.25 291.06 17.57 291.94L19.27 296.85C19.57 297.73 20.53 298.19 21.41 297.88L26.32 296.18C27.2 295.88 27.67 294.92 27.37 294.04ZM25.96 295.13L21.05 296.85C20.75 296.96 20.43 296.79 20.32 296.5L18.62 291.57C18.51 291.27 18.68 290.95 18.97 290.84L23.88 289.12C24.18 289.01 24.5 289.18 24.61 289.47L26.31 294.38C26.43 294.7 26.26 295.03 25.96 295.12V295.13Z" fill="#3FBC6A"/>
<path d="M24.28 291.73L20.19 293.14C19.87 293.25 19.7 293.6 19.81 293.92C19.92 294.24 20.27 294.41 20.59 294.3L24.68 292.89C25 292.78 25.17 292.43 25.06 292.11C24.95 291.79 24.6 291.62 24.28 291.73ZM14.96 289.41H9.7C8.76 289.41 8 290.17 8 291.11V296.37C8 297.31 8.76 298.07 9.7 298.07H14.96C15.9 298.07 16.66 297.31 16.66 296.37V291.11C16.66 290.17 15.9 289.41 14.96 289.41ZM15.54 296.36C15.54 296.68 15.28 296.94 14.96 296.94H9.7C9.38 296.94 9.12 296.68 9.12 296.36V291.11C9.12 290.79 9.38 290.53 9.7 290.53H14.96C15.28 290.53 15.54 290.79 15.54 291.11V296.36Z" fill="black"/>
<path d="M14.46 293.13H12.89V291.56C12.89 291.23 12.62 290.95 12.28 290.95C11.94 290.95 11.67 291.22 11.67 291.56V293.13H10.09C9.75998 293.13 9.47998 293.4 9.47998 293.74C9.47998 294.08 9.74998 294.35 10.09 294.35H11.66V295.92C11.66 296.25 11.93 296.53 12.27 296.53C12.61 296.53 12.88 296.26 12.88 295.92V294.37H14.45C14.78 294.37 15.06 294.1 15.06 293.76C15.08 293.41 14.8 293.14 14.47 293.14L14.46 293.13Z" fill="#3FBC6A"/>
<path d="M24.49 298.63H19.23C18.29 298.63 17.53 299.39 17.53 300.33V305.59C17.53 306.53 18.29 307.29 19.23 307.29H24.49C25.43 307.29 26.19 306.53 26.19 305.59V300.33C26.17 299.39 25.41 298.63 24.49 298.63ZM25.07 305.59C25.07 305.91 24.81 306.17 24.49 306.17H19.23C18.91 306.17 18.65 305.91 18.65 305.59V300.33C18.65 300.01 18.91 299.75 19.23 299.75H24.49C24.81 299.75 25.07 300.01 25.07 300.33V305.59Z" fill="black"/>
<path d="M21.2 304.93C21.2 305.28 21.49 305.57 21.84 305.57C22.19 305.57 22.48 305.28 22.48 304.93C22.48 304.58 22.19 304.29 21.84 304.29C21.51 304.27 21.2 304.56 21.2 304.93ZM21.2 301.14C21.2 301.49 21.49 301.78 21.84 301.78C22.19 301.78 22.48 301.49 22.48 301.14C22.48 300.79 22.19 300.5 21.84 300.5C21.51 300.48 21.2 300.77 21.2 301.14ZM24 302.48H19.74C19.41 302.48 19.15 302.75 19.15 303.07C19.15 303.39 19.42 303.66 19.74 303.66H24C24.33 303.66 24.59 303.39 24.59 303.07C24.59 302.75 24.33 302.48 24 302.48ZM13.21 303.16L14.38 301.99C14.64 301.73 14.64 301.32 14.38 301.08C14.12 300.82 13.71 300.82 13.47 301.08L12.3 302.25L11.13 301.08C10.87 300.82 10.46 300.82 10.22 301.08C9.96002 301.34 9.96002 301.75 10.22 301.99L11.39 303.16L10.22 304.33C9.96002 304.59 9.96002 305 10.22 305.24C10.48 305.5 10.89 305.5 11.13 305.24L12.3 304.07L13.47 305.24C13.73 305.5 14.14 305.5 14.38 305.24C14.64 304.98 14.64 304.57 14.38 304.33L13.21 303.16Z" fill="#040000"/>
</g>
<g clip-path="url(#clip7_66_292)">
<path opacity="0.7" d="M21.5 340C25.0899 340 28 337.09 28 333.5C28 329.91 25.0899 327 21.5 327C17.9101 327 15 329.91 15 333.5C15 337.09 17.9101 340 21.5 340Z" fill="#3FBC6A"/>
<path opacity="0.7" d="M9.48999 347.84C10.3184 347.84 10.99 347.168 10.99 346.34C10.99 345.512 10.3184 344.84 9.48999 344.84C8.66156 344.84 7.98999 345.512 7.98999 346.34C7.98999 347.168 8.66156 347.84 9.48999 347.84Z" fill="#3FBC6A"/>
<path d="M23.8 331.39V343.82C23.8 344.63 23.49 345.33 22.88 345.91C22.27 346.49 21.52 346.78 20.65 346.78C19.78 346.78 19.03 346.49 18.42 345.91C17.81 345.33 17.5 344.63 17.5 343.82C17.5 343.01 17.81 342.31 18.42 341.73C19.03 341.15 19.78 340.86 20.65 340.86C21.44 340.86 22.14 341.12 22.75 341.64V336.13L13.3 339.68V346.19C13.3 347 12.99 347.7 12.38 348.28C11.77 348.86 11.02 349.15 10.15 349.15C9.28 349.15 8.53 348.86 7.92 348.28C7.31 347.7 7 347 7 346.19C7 345.38 7.31 344.68 7.92 344.1C8.53 343.52 9.28 343.23 10.15 343.23C10.94 343.23 11.64 343.49 12.25 344.01V334.95C12.25 334.38 12.48 334.01 12.94 333.84L22.49 330.28C22.6 330.23 22.7 330.21 22.79 330.21C23.07 330.21 23.32 330.33 23.51 330.56C23.71 330.79 23.81 331.07 23.81 331.39H23.8ZM8.67 347.46C9.09 347.81 9.58 347.98 10.15 347.98C10.72 347.98 11.21 347.81 11.63 347.46C12.05 347.11 12.25 346.7 12.25 346.2C12.25 345.7 12.04 345.29 11.63 344.94C11.21 344.59 10.72 344.42 10.15 344.42C9.58 344.42 9.09 344.59 8.67 344.94C8.25 345.29 8.05 345.71 8.05 346.2C8.05 346.69 8.26 347.11 8.67 347.46ZM22.75 334.87V331.43L13.27 334.95H13.3V338.43L22.75 334.88V334.87ZM19.17 345.08C19.59 345.43 20.08 345.6 20.65 345.6C21.22 345.6 21.71 345.43 22.13 345.08C22.55 344.73 22.75 344.32 22.75 343.82C22.75 343.32 22.54 342.91 22.13 342.56C21.71 342.21 21.22 342.04 20.65 342.04C20.08 342.04 19.59 342.21 19.17 342.56C18.75 342.91 18.55 343.33 18.55 343.82C18.55 344.31 18.76 344.73 19.17 345.08Z" fill="black"/>
</g>
<g clip-path="url(#clip8_66_292)">
<path d="M25.7808 378.362L25.2503 377.547L27.9941 375.759L26.2033 373.011L27.0163 372.482C27.5891 372.108 27.7496 371.345 27.3757 370.771C27.0019 370.198 26.2385 370.036 25.6657 370.409L24.8528 370.939L23.0681 368.2L20.3243 369.988L20.8548 370.802C21.2287 371.376 21.0682 372.14 20.4954 372.513C19.9227 372.886 19.1593 372.725 18.7854 372.151L18.2549 371.337L15.511 373.125L17.3018 375.873L18.1425 375.325C18.7153 374.952 19.4786 375.113 19.8525 375.687C20.2263 376.261 20.0658 377.024 19.4931 377.397L18.6524 377.945L20.4431 380.693L23.1869 378.905L23.7175 379.719C24.0913 380.293 24.8547 380.455 25.4275 380.081C26.0002 379.708 26.1607 378.945 25.7869 378.371L25.7808 378.362Z" fill="#3FBC6A" stroke="#3FBC6A" stroke-linecap="round" stroke-linejoin="round"/>
<path d="M18.13 375.346L17.317 375.876L15.5263 373.128L12.7825 374.916L12.2519 374.102C11.8781 373.528 11.1147 373.367 10.5419 373.74C9.96913 374.113 9.80868 374.877 10.1825 375.45L10.7131 376.265L7.97852 378.047L9.76925 380.795L10.5822 380.265C11.155 379.892 11.9184 380.053 12.2922 380.627C12.666 381.2 12.5056 381.964 11.9328 382.337L11.1198 382.867L12.9106 385.615L15.6544 383.827L15.1057 382.985C14.7319 382.411 14.8923 381.648 15.4651 381.275C16.0379 380.901 16.8013 381.063 17.1751 381.637L17.7238 382.479L20.4676 380.69L18.6768 377.943L19.4898 377.413C20.0626 377.039 20.2231 376.276 19.8492 375.702C19.4754 375.129 18.712 374.967 18.1392 375.34L18.13 375.346Z" stroke="#333333" stroke-linecap="round" stroke-linejoin="round"/>
</g>
<g clip-path="url(#clip9_66_292)">
<path opacity="0.7" d="M20.16 29.5C23.7498 29.5 26.66 26.5899 26.66 23C26.66 19.4101 23.7498 16.5 20.16 16.5C16.5701 16.5 13.66 19.4101 13.66 23C13.66 26.5899 16.5701 29.5 20.16 29.5Z" fill="#3FBC6A"/>
<path opacity="0.7" d="M27.16 19.5C27.9884 19.5 28.66 18.8284 28.66 18C28.66 17.1716 27.9884 16.5 27.16 16.5C26.3315 16.5 25.66 17.1716 25.66 18C25.66 18.8284 26.3315 19.5 27.16 19.5Z" fill="#3FBC6A"/>
<path d="M19.76 28.64C19.61 28.64 19.47 28.56 19.39 28.42L17.26 24.46L14.83 23.23L13.75 25.09C13.65 25.27 13.43 25.34 13.24 25.27L8.26 23.26C8.06 23.18 7.95 22.96 8.01 22.75L8.79 20.22C8.86 20.01 9.08 19.88 9.29 19.94L12.42 20.79L14 16.79L13.39 16.55L11.45 18.39C11.29 18.54 11.04 18.54 10.88 18.39L9.01 16.56C8.85 16.4 8.85 16.14 9.01 15.98L12.69 12C12.8 11.88 12.98 11.83 13.14 11.89L17.64 13.59L21.79 14.98L23.52 12.78C23.65 12.61 23.89 12.57 24.07 12.68L26.01 13.9C26.2 14.02 26.26 14.27 26.15 14.46L23.28 19.3C23.18 19.47 22.98 19.54 22.8 19.49L20.03 18.6L18.88 20.84L20.94 21.77C21.06 21.82 21.14 21.92 21.17 22.05L22.54 27.53C22.57 27.64 22.56 27.76 22.49 27.86C22.43 27.96 22.34 28.02 22.23 28.05L19.87 28.63H19.77L19.76 28.64ZM14.67 22.27C14.73 22.27 14.8 22.29 14.86 22.32L17.76 23.8C17.84 23.84 17.9 23.9 17.94 23.98L19.97 27.75L21.63 27.35L20.4 22.48L18.12 21.45C18.02 21.4 17.94 21.32 17.9 21.21C17.86 21.1 17.87 20.98 17.92 20.88L19.43 17.94C19.52 17.76 19.73 17.67 19.93 17.73L22.72 18.62L25.22 14.41L23.95 13.6L22.26 15.74C22.15 15.88 21.97 15.93 21.8 15.88L17.36 14.39L13.11 12.79L9.89 16.27L11.18 17.53L13.02 15.78C13.14 15.67 13.31 15.63 13.46 15.69L14.7 16.18C14.91 16.26 15.02 16.5 14.93 16.72L13.06 21.46C12.98 21.66 12.77 21.76 12.57 21.71L9.47 20.87L8.92 22.66L13.21 24.39L14.31 22.5C14.38 22.38 14.52 22.3 14.66 22.3L14.67 22.27Z" fill="black"/>
<path d="M19.18 12.91C17.55 12.91 16.23 11.58 16.23 9.95C16.23 8.32 17.55 7 19.18 7C20.81 7 22.13 8.32 22.13 9.96C22.13 11.59 20.8 12.92 19.17 12.92L19.18 12.91ZM19.18 7.83C18.01 7.83 17.05 8.79 17.06 9.96C17.06 11.13 18.02 12.09 19.19 12.08C20.36 12.08 21.31 11.13 21.31 9.95C21.31 8.77 20.36 7.82 19.18 7.82V7.83Z" fill="black"/>
</g>
<g clip-path="url(#clip10_66_292)">
<path opacity="0.7" d="M25.04 423.4C25.9292 423.4 26.65 422.679 26.65 421.79C26.65 420.901 25.9292 420.18 25.04 420.18C24.1508 420.18 23.43 420.901 23.43 421.79C23.43 422.679 24.1508 423.4 25.04 423.4Z" fill="#3FBC6A"/>
<path d="M8.28998 417.39C8.28998 417.2 8.37998 417.02 8.53998 416.91L12.48 414.07C13.16 413.58 14.1 413.73 14.59 414.41C14.77 414.66 14.87 414.96 14.88 415.27V417.39C14.88 417.72 14.61 417.99 14.28 417.99H10.08" fill="#3FBC6A"/>
<path d="M8.28998 417.39C8.28998 417.2 8.37998 417.02 8.53998 416.91L12.48 414.07C13.16 413.58 14.1 413.73 14.59 414.41C14.77 414.66 14.87 414.96 14.88 415.27V417.39C14.88 417.72 14.61 417.99 14.28 417.99H10.08" stroke="#3FBC6A" stroke-width="0.89" stroke-linecap="round" stroke-linejoin="round"/>
<path d="M6.53998 413.54L8.36998 414.02L10.03 414.46" stroke="black" stroke-width="1.08" stroke-linecap="round" stroke-linejoin="round"/>
<path d="M8.26995 417.9L8.25995 414" stroke="black" stroke-width="1.08" stroke-linecap="round" stroke-linejoin="round"/>
<path d="M8.27997 417.91L19.2 417.98L23.58 419.49" stroke="black" stroke-width="1.08" stroke-linecap="round" stroke-linejoin="round"/>
<path d="M18.39 415.99L19.18 417.95" stroke="black" stroke-width="1.08" stroke-linecap="round" stroke-linejoin="round"/>
<path d="M14.63 422.36L21.75 422.33" stroke="black" stroke-width="1.08" stroke-linecap="round" stroke-linejoin="round"/>
<path d="M28.87 420.55C28.87 420.55 29.01 422.47 26.65 422.36" stroke="black" stroke-width="1.08" stroke-linecap="round" stroke-linejoin="round"/>
<path d="M9.66 424.21C11.3721 424.21 12.76 422.822 12.76 421.11C12.76 419.398 11.3721 418.01 9.66 418.01C7.94791 418.01 6.56 419.398 6.56 421.11C6.56 422.822 7.94791 424.21 9.66 424.21Z" stroke="black" stroke-width="1.08" stroke-linecap="round" stroke-linejoin="round"/>
<path d="M24.31 423.87C25.5637 423.87 26.58 422.854 26.58 421.6C26.58 420.346 25.5637 419.33 24.31 419.33C23.0563 419.33 22.04 420.346 22.04 421.6C22.04 422.854 23.0563 423.87 24.31 423.87Z" stroke="black" stroke-width="1.08" stroke-linecap="round" stroke-linejoin="round"/>
</g>
<g clip-path="url(#clip11_66_292)">
<path opacity="0.7" d="M24.3465 493.628C25.0396 494.819 25.448 496.196 25.448 497.685C25.448 502.139 21.8465 505.749 17.4035 505.749C16.1906 505.749 15.0396 505.476 14.0124 504.993C15.4109 507.387 17.9975 509 20.9555 509C25.3985 509 29 505.39 29 500.935C29 497.697 27.0941 494.918 24.3465 493.628Z" fill="#3FBC6A"/>
<path opacity="0.7" d="M17.1559 498.901C18.1812 498.901 19.0124 498.068 19.0124 497.04C19.0124 496.012 18.1812 495.179 17.1559 495.179C16.1307 495.179 15.2995 496.012 15.2995 497.04C15.2995 498.068 16.1307 498.901 17.1559 498.901Z" fill="#3FBC6A"/>
<path d="M17.7871 506.63C12.9356 506.63 9 502.685 9 497.809C9 492.933 12.9356 489 17.7871 489C22.6386 489 26.5743 492.945 26.5743 497.809C26.5743 502.672 22.6386 506.618 17.7871 506.618V506.63ZM17.5149 502.623C17.5644 503.665 17.7995 504.744 18.047 504.757C18.2946 504.769 18.5668 502.809 18.5792 502.623C18.5916 502.437 18.7772 500.625 18.0842 500.6C17.4158 500.6 17.4777 501.605 17.5149 502.623ZM18.047 499.955C18.9257 499.955 19.6436 499.236 19.6436 498.355C19.6436 497.474 18.9257 496.754 18.047 496.754C17.1683 496.754 16.4505 497.474 16.4505 498.355C16.4505 499.236 17.1683 499.955 18.047 499.955ZM10.4975 495.998C10.052 497.871 10.3738 499.98 11.5743 501.779C12.7624 503.578 14.5817 504.707 16.4752 505.017C17.0074 503.144 16.7228 500.985 15.5099 499.161C14.297 497.325 12.4282 496.221 10.4975 495.998ZM11.9332 494.608C11.698 494.931 13.0594 496.06 13.2698 496.208C13.4802 496.37 14.9282 497.35 15.3861 496.754C15.5965 496.196 14.8045 495.576 13.802 495.141C12.8366 494.633 12.0941 494.36 11.9332 494.608ZM17.7871 490.34C15.5347 490.34 13.505 491.345 12.1436 492.933C13.4554 494.608 15.4975 495.675 17.7871 495.675C20.0767 495.675 22.1188 494.596 23.4307 492.933C22.0693 491.345 20.0396 490.34 17.7871 490.34ZM23.6782 494.819C23.5421 494.558 21.698 495.34 21.5248 495.414C21.3515 495.501 19.9158 496.084 20.2624 496.68C20.5718 497.362 21.1782 497.127 22.0569 496.481C22.9233 495.898 23.8267 495.079 23.6782 494.819ZM20.1881 499.372C19.0495 501.159 18.8144 503.243 19.3713 505.042C21.1906 504.707 22.9233 503.603 24.0371 501.841C25.151 500.079 25.4356 498.045 24.9653 496.246C23.1089 496.506 21.3267 497.598 20.1881 499.385V499.372Z" fill="black"/>
</g>
<g clip-path="url(#clip12_66_292)">
<path opacity="0.7" d="M16 611C16.8284 611 17.5 610.328 17.5 609.5C17.5 608.672 16.8284 608 16 608C15.1716 608 14.5 608.672 14.5 609.5C14.5 610.328 15.1716 611 16 611Z" fill="#3FBC6A"/>
<path opacity="0.7" d="M24.99 622.61L24.83 617.94L23.88 617.21L16.9 617.15L15.95 617.91C15.95 617.91 18.13 622.99 24.98 622.62L24.99 622.61Z" fill="#3FBC6A"/>
<path d="M15.27 621.88C15.5 623.19 16.67 624.18 18.09 624.18H22.85C24.27 624.18 25.45 623.17 25.67 621.86C25.93 621.88 26.16 621.69 26.18 621.43V619.56C26.18 619.3 25.97 619.09 25.71 619.09C25.71 617.55 24.43 616.31 22.85 616.31H18.09C16.51 616.31 15.23 617.56 15.23 619.09V619.15C14.98 619.08 14.71 619.22 14.64 619.47C14.63 619.51 14.62 619.56 14.62 619.6V621.43C14.62 621.69 14.83 621.91 15.09 621.91C15.15 621.91 15.21 621.9 15.27 621.88ZM22.85 617.46C23.77 617.46 24.51 618.19 24.51 619.08V621.4C24.51 622.3 23.76 623.02 22.84 623.02H18.08C17.16 623.02 16.41 622.29 16.41 621.4V619.08C16.41 618.18 17.16 617.46 18.08 617.46H22.85ZM22.13 618.62C21.74 618.62 21.41 618.94 21.41 619.34V620.58C21.41 620.98 21.73 621.3 22.13 621.3C22.53 621.3 22.85 620.98 22.85 620.58V619.33C22.85 618.94 22.53 618.62 22.13 618.62ZM18.8 618.62C18.41 618.62 18.08 618.94 18.08 619.34V620.58C18.07 620.97 18.38 621.3 18.77 621.31C19.16 621.32 19.49 621.01 19.5 620.62V619.33C19.5 618.94 19.18 618.62 18.79 618.62H18.8ZM21.93 626.82C22.7 626.82 23.32 626.2 23.32 625.43H17.6C17.6 626.2 18.22 626.82 18.99 626.82H21.92H21.93Z" fill="black"/>
<path d="M12.23 610.49C11.6 610.49 11.09 611 11.09 611.63C11.09 611.83 11.26 612 11.46 612C11.66 612 11.83 611.83 11.83 611.63C11.83 611.41 12.01 611.23 12.23 611.23C12.45 611.23 12.63 611.41 12.63 611.63C12.63 611.85 12.45 612.03 12.23 612.03C12.03 612.03 11.86 612.2 11.86 612.4V612.91C11.86 613.11 12.03 613.28 12.23 613.28C12.43 613.28 12.6 613.11 12.6 612.91V612.71C13.05 612.56 13.37 612.13 13.37 611.63C13.37 611 12.86 610.49 12.23 610.49Z" fill="#3FBC6A"/>
<path d="M12.6 613.92C12.6 613.71 12.43 613.54 12.22 613.54C12.01 613.54 11.84 613.71 11.84 613.92C11.84 614.13 12.01 614.3 12.22 614.3C12.43 614.3 12.6 614.13 12.6 613.92Z" fill="#3FBC6A"/>
<path d="M7.47998 609.3V615.03C7.47998 615.43 7.80998 615.76 8.20998 615.76H11.47L13.36 617.15C13.37 617.15 13.38 617.16 13.39 617.17C13.48 617.22 13.58 617.25 13.67 617.25C13.84 617.25 14 617.17 14.1 617.03C14.19 616.9 14.22 616.74 14.18 616.58L14.07 615.75H16.34C16.74 615.75 17.07 615.42 17.07 615.02V609.3C17.07 608.9 16.74 608.57 16.34 608.57H8.20998C7.80998 608.57 7.47998 608.9 7.47998 609.3ZM8.20998 615.02V609.3L16.35 609.31V615.03L13.66 615.02C13.55 615.02 13.45 615.07 13.38 615.15C13.31 615.23 13.28 615.34 13.29 615.44L13.4 616.26L11.82 615.09C11.76 615.04 11.68 615.02 11.6 615.02H8.20998Z" fill="black"/>
<path d="M13.32 622.03L7.5 623.75L11.55 626.69L13.32 622.03Z" stroke="#3FBC6A" stroke-linecap="round" stroke-linejoin="round"/>
<path d="M22.33 614.28C23.1032 614.28 23.73 613.653 23.73 612.88C23.73 612.107 23.1032 611.48 22.33 611.48C21.5568 611.48 20.93 612.107 20.93 612.88C20.93 613.653 21.5568 614.28 22.33 614.28Z" stroke="black" stroke-linecap="round" stroke-linejoin="round"/>
</g>
<g clip-path="url(#clip13_66_292)">
<path opacity="0.7" d="M11.43 455.89C12.4296 455.89 13.24 455.08 13.24 454.08C13.24 453.08 12.4296 452.27 11.43 452.27C10.4304 452.27 9.62 453.08 9.62 454.08C9.62 455.08 10.4304 455.89 11.43 455.89Z" fill="#3FBB6A"/>
<path opacity="0.7" d="M20.33 455.5C20.33 455.5 20.27 455.5 20.24 455.5V462.2H16.4V456.84C14.87 458.02 13.89 459.86 13.89 461.94C13.89 463.43 14.4 464.79 15.24 465.88H25.42C26.26 464.79 26.77 463.43 26.77 461.94C26.77 458.38 23.89 455.5 20.33 455.5Z" fill="#3FBB6A"/>
<path d="M13.18 454.37C13.18 454.37 10.01 454.02 11.86 451C11.86 451 8.77001 453.17 11.33 456.06" fill="black"/>
<path d="M24.97 456.06C27.53 453.16 24.43 451 24.43 451C26.28 454.02 23.11 454.37 23.11 454.37" fill="black"/>
<path d="M10 463.52H26.15" stroke="black" stroke-miterlimit="10" stroke-linecap="round"/>
<path d="M19.19 453.09V461.25H26.15C26.15 461.19 26.17 461.14 26.17 461.09C26.17 457.01 23.13 453.64 19.2 453.1L19.19 453.09Z" stroke="black" stroke-linecap="round" stroke-linejoin="round"/>
<path d="M16.98 453.09C13.05 453.63 10.01 457 10.01 461.09C10.01 461.15 10.03 461.2 10.03 461.25H16.98V453.09Z" stroke="black" stroke-linecap="round" stroke-linejoin="round"/>
</g>
<g clip-path="url(#clip14_66_292)">
<path opacity="0.7" d="M12.02 545.87L16.46 545.83L16.84 541.47L22.2 541.39C22.33 540.49 22.28 539.55 22.01 538.62C21.97 538.47 21.91 538.33 21.86 538.19H14.11L13.1 538.13L13.03 534.5C10.09 535.81 8.50001 539.12 9.43001 542.3C9.87001 543.81 10.81 545.05 12.02 545.87Z" fill="#3FBB6A"/>
<path opacity="0.7" d="M25.74 534.02C26.5739 534.02 27.25 533.344 27.25 532.51C27.25 531.676 26.5739 531 25.74 531C24.906 531 24.23 531.676 24.23 532.51C24.23 533.344 24.906 534.02 25.74 534.02Z" fill="#3FBB6A"/>
<path d="M14.36 544.76H11.64C11.34 544.76 11.1 544.52 11.1 544.22V533.36C11.1 533.06 11.34 532.82 11.64 532.82H14.35C14.65 532.82 14.89 533.06 14.89 533.36V544.22C14.89 544.52 14.65 544.76 14.35 544.76H14.36ZM12.19 543.67H13.82V533.9H12.19V543.67Z" fill="black"/>
<path d="M21.79 540.69H14.36C14.06 540.69 13.82 540.45 13.82 540.15V537.44C13.82 537.14 14.06 536.9 14.36 536.9H21.79C22.09 536.9 22.33 537.14 22.33 537.44V540.15C22.33 540.45 22.09 540.69 21.79 540.69ZM14.9 539.6H21.24V537.97H14.9V539.6Z" fill="black"/>
<path d="M24.49 544.76H21.78C21.48 544.76 21.24 544.52 21.24 544.22V533.36C21.24 533.06 21.48 532.82 21.78 532.82H24.49C24.79 532.82 25.03 533.06 25.03 533.36V544.22C25.03 544.52 24.79 544.76 24.49 544.76ZM22.32 543.67H23.95V533.9H22.32V543.67Z" fill="black"/>
<path d="M9.5 535.93V541.67" stroke="black" stroke-linecap="round" stroke-linejoin="round"/>
<path d="M26.65 535.93V541.67" stroke="black" stroke-linecap="round" stroke-linejoin="round"/>
</g>
<g clip-path="url(#clip15_66_292)">
<path opacity="0.7" d="M24.2794 575.479C25.2297 575.479 26 574.723 26 573.791C26 572.859 25.2297 572.104 24.2794 572.104C23.3291 572.104 22.5587 572.859 22.5587 573.791C22.5587 574.723 23.3291 575.479 24.2794 575.479Z" fill="#3FBB6A"/>
<path d="M11.3745 588C11.3745 587.707 11.3745 587.415 11.3745 587.122C11.3745 587.032 11.3975 586.999 11.5007 586.999C11.7531 586.999 12.0054 586.999 12.2578 586.999C12.361 586.999 12.4069 586.976 12.3954 586.864C12.3954 586.627 12.3954 586.391 12.3954 586.144C12.3954 586.02 12.4184 585.986 12.556 585.986C13.1066 585.986 13.6687 585.986 14.2193 585.986C16.9379 585.986 19.6451 585.986 22.3637 585.986C22.5243 585.986 22.5587 586.031 22.5473 586.177C22.5358 586.402 22.5473 586.627 22.5473 586.864C22.5473 586.976 22.5817 586.999 22.6849 586.999C22.9373 586.999 23.1896 586.999 23.442 586.999C23.5452 586.999 23.5682 587.021 23.5682 587.122C23.5682 587.415 23.5682 587.707 23.5682 588C19.5074 588 15.4352 588 11.3745 588ZM11.6728 571.699C12.4413 571.946 13.1869 572.205 13.9325 572.441C14.0587 572.475 14.0473 572.542 14.0243 572.632C13.6114 574.252 14.4373 575.951 15.9744 576.649C17.7868 577.47 19.9204 576.671 20.7234 574.86C20.7807 574.714 20.8381 574.714 20.9643 574.759C21.3084 574.882 21.6525 574.995 21.9966 575.096C22.0999 575.13 22.1228 575.164 22.0999 575.276C21.9737 575.76 21.8475 576.244 21.7328 576.727C21.7099 576.806 21.6755 576.874 21.5952 576.919C20.2645 577.864 18.9339 578.82 17.6033 579.776C17.5 579.844 17.4541 579.832 17.3738 579.765C15.8941 578.539 14.4143 577.324 12.9346 576.12C12.8772 576.075 12.8428 576.019 12.8313 575.962C12.4528 574.579 12.0628 573.184 11.6842 571.8C11.6842 571.777 11.6842 571.755 11.6842 571.71L11.6728 571.699Z" fill="black"/>
<path d="M13.3361 578.438C13.4049 578.438 13.4278 578.471 13.4622 578.494C14.3684 579.225 15.2747 579.945 16.1809 580.676C16.2497 580.732 16.2841 580.789 16.2841 580.89C16.2841 581.408 16.33 581.936 16.3415 582.454C16.3415 582.544 16.3185 582.566 16.2267 582.555C15.7106 582.555 15.137 582.555 14.6208 582.555C14.529 582.555 14.4946 582.533 14.4602 582.443C14.1046 581.149 13.7375 579.855 13.3705 578.572C13.359 578.527 13.3361 578.482 13.3246 578.438H13.3361ZM21.1478 578.539C21.056 578.944 20.9643 579.338 20.8725 579.72C20.6431 580.688 20.3219 581.531 20.1039 582.499C20.081 582.622 20.0351 582.668 19.9089 582.668C19.3927 582.668 18.8651 582.668 18.3489 582.668C18.2571 582.668 18.2227 582.645 18.2342 582.544C18.2342 581.936 18.303 581.419 18.303 580.8C18.303 580.733 18.3145 580.676 18.3718 580.631C19.2666 579.934 20.1957 579.27 21.0904 578.572C21.1019 578.561 21.1249 578.55 21.1593 578.527L21.1478 578.539ZM17.4656 584.996H14.2881C14.1505 584.996 14.1046 584.996 14.1849 584.839C14.3226 584.602 14.4487 584.355 14.5635 584.096C14.5979 584.017 14.6437 583.984 14.7355 583.984C16.5594 583.984 18.3833 583.984 20.2072 583.984C20.2875 583.984 20.3334 584.006 20.3792 584.085C20.5054 584.344 20.6201 584.591 20.7693 584.839C20.861 584.996 20.7807 584.996 20.666 584.996C19.5992 584.996 18.5439 584.996 17.4886 584.996H17.4656Z" fill="black"/>
<path opacity="0.7" d="M22.0081 578.595C21.6411 580.823 19.7139 584.243 22.3408 585.716C24.4515 585.064 24.0385 576.48 22.0081 578.595Z" fill="#3FBB6A"/>
<path opacity="0.7" d="M11.2483 586.582C15.3549 584.726 13.4966 580.856 12.4757 577.436C10.4568 572.486 6.48786 586.054 11.2483 586.582Z" fill="#3FBB6A"/>
<path d="M17.8326 574.725C19.0047 574.725 19.9548 573.793 19.9548 572.644C19.9548 571.494 19.0047 570.562 17.8326 570.562C16.6606 570.562 15.7105 571.494 15.7105 572.644C15.7105 573.793 16.6606 574.725 17.8326 574.725Z" stroke="#3FBB6A" stroke-miterlimit="10"/>
</g>
<g clip-path="url(#clip16_66_292)">
<path opacity="0.7" d="M18.28 654.56C17.32 654 16.2 653.67 15 653.67C11.41 653.66 8.5 656.57 8.5 660.16C8.5 663.75 11.41 666.66 15 666.66C16.2 666.66 17.32 666.33 18.28 665.77V654.56Z" fill="#3FBB6A"/>
<path opacity="0.7" d="M25.38 655.72C26.2084 655.72 26.88 655.048 26.88 654.22C26.88 653.392 26.2084 652.72 25.38 652.72C24.5516 652.72 23.88 653.392 23.88 654.22C23.88 655.048 24.5516 655.72 25.38 655.72Z" fill="#3FBB6A"/>
<path d="M11.12 651L10.66 654.68H11.12C11.12 653.39 12.13 652.38 13.42 652.38H16.64V664.11C16.64 664.75 16.13 665.26 15.49 665.26H14.34V665.72H21.7V665.26H20.55C19.92 665.26 19.41 664.76 19.4 664.14C19.4 664.14 19.4 664.12 19.4 664.11V652.38H22.62C23.91 652.38 24.92 653.39 24.92 654.68H25.38L24.92 651H11.12Z" fill="#040000"/>
</g>
<defs>
<clipPath id="clip0_66_292">
<rect width="27.32" height="22.42" fill="white" transform="translate(4 47)"/>
</clipPath>
<clipPath id="clip1_66_292">
<rect width="17" height="21" fill="white" transform="translate(11 88)"/>
</clipPath>
<clipPath id="clip2_66_292">
<rect width="14.48" height="21.26" fill="white" transform="translate(11 128)"/>
</clipPath>
<clipPath id="clip3_66_292">
<rect width="25" height="20" fill="white" transform="translate(5 168)"/>
</clipPath>
<clipPath id="clip4_66_292">
<rect width="19.65" height="20.29" fill="white" transform="translate(8 208)"/>
</clipPath>
<clipPath id="clip5_66_292">
<rect width="20" height="19" fill="white" transform="translate(8 249)"/>
</clipPath>
<clipPath id="clip6_66_292">
<rect width="20.32" height="22.05" fill="white" transform="translate(8 288)"/>
</clipPath>
<clipPath id="clip7_66_292">
<rect width="21" height="22.16" fill="white" transform="translate(7 327)"/>
</clipPath>
<clipPath id="clip8_66_292">
<rect width="22.0537" height="14.5516" fill="white" transform="translate(6 376.04) rotate(-33.0904)"/>
</clipPath>
<clipPath id="clip9_66_292">
<rect width="20.66" height="22.5" fill="white" transform="translate(8 7)"/>
</clipPath>
<clipPath id="clip10_66_292">
<rect width="23.41" height="11.75" fill="white" transform="translate(6 413)"/>
</clipPath>
<clipPath id="clip11_66_292">
<rect width="20" height="20" fill="white" transform="translate(9 489)"/>
</clipPath>
<clipPath id="clip12_66_292">
<rect width="19.19" height="19.19" fill="white" transform="translate(7 608)"/>
</clipPath>
<clipPath id="clip13_66_292">
<rect width="17.27" height="14.88" fill="white" transform="translate(9.5 451)"/>
</clipPath>
<clipPath id="clip14_66_292">
<rect width="18.26" height="14.87" fill="white" transform="translate(9 531)"/>
</clipPath>
<clipPath id="clip15_66_292">
<rect width="17" height="18" fill="white" transform="translate(9 570)"/>
</clipPath>
<clipPath id="clip16_66_292">
<rect width="18.38" height="15.66" fill="white" transform="translate(8.5 651)"/>
</clipPath>
</defs>
</svg>
