<svg width="36" height="1276" viewBox="0 0 36 1276" fill="none" xmlns="http://www.w3.org/2000/svg">
<g clip-path="url(#clip0_66_406)">
<path d="M13.99 146.82H10.67C10.3 146.82 10 146.53 10 146.16V133.07C10 132.7 10.3 132.41 10.66 132.41H13.99V146.83V146.82ZM10.89 145.93H13.1V133.3H10.89V145.93Z" fill="black"/>
<path d="M18.18 146.82H13.1V130.72C13.1 130.32 13.42 130 13.82 130H17.47C17.86 130 18.19 130.32 18.19 130.72V146.82H18.18ZM13.99 145.93H17.28V130.89H13.99V145.93Z" fill="black"/>
<path d="M21.69 146.82H17.28V135.29H22.35V146.15C22.35 146.52 22.06 146.82 21.69 146.82ZM18.17 145.93H21.46V136.19H18.17V145.93Z" fill="black"/>
<path d="M25.27 146.59L20.68 133.11C20.56 132.74 20.75 132.33 21.13 132.21L23.4 131.44C23.77 131.32 24.18 131.51 24.3 131.89L28.88 145.37C28.97 145.64 28.83 145.94 28.56 146.03L25.93 146.92C25.66 147.01 25.36 146.87 25.27 146.6V146.59Z" fill="#3FBC6A"/>
<path d="M16.26 144.7H15.02V139.78H16.26V144.7Z" fill="#3FBC6A"/>
<path d="M18.87 143.72H20.77V144.71H18.87V143.72Z" fill="#3FBC6A"/>
</g>
<g clip-path="url(#clip1_66_406)">
<path d="M11.31 224.21L11.68 223.44C11.95 222.89 11.99 222.38 11.82 221.9C11.25 220.31 8.58999 219.5 8.56999 219.49L7.73999 219.24L8.56999 218.99C9.82999 218.61 10.57 218.04 10.76 217.29C11.01 216.32 10.25 215.34 10.24 215.33L9.72999 214.67L10.46 214.9C13.08 215.74 14.14 215.33 14.57 214.84C15.03 214.32 14.88 213.57 14.88 213.56L14.72 212.76L15.24 213.32C16.23 214.38 17.17 214.87 18.04 214.79C19.02 214.7 19.57 213.89 19.58 213.88L19.75 213.64L19.92 213.88C21.69 216.3 24.81 214.27 24.84 214.25L26.2 213.35L25.1 214.66C24.29 215.62 23.95 216.45 24.1 217.07C24.32 217.93 25.43 218.21 25.44 218.21L26.33 218.43L25.46 218.71C24.94 218.88 24.31 219.19 24.26 219.68C24.17 220.49 25.52 221.6 25.99 221.93L27.39 222.89L25.83 222.4C21.48 221.04 18.37 223.11 18.34 223.14L18.21 223.23L18.1 223.13C16.06 221.32 12.01 223.81 11.97 223.83L11.3 224.23L11.31 224.21Z" fill="#3FBC6A" stroke="black" stroke-miterlimit="10"/>
<path d="M14.71 224.99C14.71 225.44 15.33 225.81 16.09 225.81C16.85 225.81 17.47 225.44 17.47 224.99C17.47 224.54 16.85 224.17 16.09 224.17C15.33 224.17 14.71 224.54 14.71 224.99Z" fill="black"/>
<path d="M17.83 226.86C17.83 227.18 18.25 227.44 18.76 227.44C19.27 227.44 19.69 227.18 19.69 226.86C19.69 226.54 19.27 226.28 18.76 226.28C18.25 226.28 17.83 226.54 17.83 226.86Z" fill="black"/>
<path d="M21.01 227.32C21.01 227.6 21.38 227.84 21.83 227.84C22.28 227.84 22.65 227.61 22.65 227.33C22.65 227.04 22.28 226.81 21.83 226.81C21.38 226.81 21.01 227.04 21.01 227.32Z" fill="black"/>
</g>
<g clip-path="url(#clip2_66_406)">
<path opacity="0.7" d="M19.43 255.73H25.39C27.34 255.73 28.32 256.67 28.32 258.56V262.04C28.32 263.92 27.34 264.87 25.39 264.87H19.43C17.48 264.87 16.5 263.93 16.5 262.04V258.56C16.5 256.68 17.48 255.73 19.43 255.73Z" fill="#3FBC6A"/>
<path d="M14.37 266.13C14.1 266.13 13.85 266.01 13.69 265.8C13.54 265.61 13.5 265.35 13.56 265.12L13.73 263.87H10.15C9.52 263.87 9 263.38 9 262.77V254.8C9 254.19 9.51 253.7 10.15 253.7H22.98C23.61 253.7 24.13 254.19 24.13 254.8V262.76C24.13 263.37 23.62 263.86 22.98 263.86H17.84L14.86 265.97C14.71 266.07 14.54 266.12 14.36 266.12L14.37 266.13ZM14.4 262.75C14.57 262.75 14.73 262.82 14.84 262.94C14.95 263.06 15 263.22 14.98 263.38L14.81 264.63L17.31 262.86C17.41 262.79 17.53 262.75 17.66 262.75H22.99L22.97 254.8L10.15 254.82L10.17 262.77L14.4 262.75ZM25.81 259.65H24.64V258.61H25.74V252.04H15.5V253.17H14.41V251.98C14.41 251.44 14.87 251 15.43 251H25.81C26.37 251 26.83 251.44 26.83 251.98V258.67C26.83 259.21 26.37 259.65 25.81 259.65Z" fill="black"/>
</g>
<g clip-path="url(#clip3_66_406)">
<path opacity="0.7" d="M25.69 303.9C26.5184 303.9 27.19 303.228 27.19 302.4C27.19 301.572 26.5184 300.9 25.69 300.9C24.8616 300.9 24.19 301.572 24.19 302.4C24.19 303.228 24.8616 303.9 25.69 303.9Z" fill="#3FBC6A"/>
<path d="M22.01 305.79C21.72 305.79 21.45 305.65 21.29 305.41C20.46 304.34 19.85 303.12 19.5 301.82C19.25 300.79 19.47 299.7 20.1 298.84C20.59 298.18 21.36 297.79 22.17 297.79H22.2C23.19 297.75 24.11 298.27 24.59 299.13C25.2 299.01 25.83 299.1 26.37 299.4C27 299.78 27.47 300.39 27.67 301.09C28.02 302.35 27.49 303.7 26.37 304.37C25.07 305.12 23.63 305.6 22.14 305.76C22.1 305.76 22.06 305.77 22.01 305.77V305.79ZM22.2 299.07H22.18C21.76 299.07 21.36 299.27 21.11 299.62C20.72 300.16 20.58 300.85 20.72 301.5C21.01 302.58 21.51 303.6 22.19 304.49C23.43 304.33 24.63 303.92 25.72 303.29C26.34 302.91 26.63 302.17 26.44 301.47C26.44 301.47 26.44 301.45 26.44 301.44C26.32 301.06 26.07 300.74 25.74 300.52C25.39 300.34 24.98 300.31 24.61 300.44C24.17 300.57 23.71 300.33 23.54 299.91C23.33 299.37 22.78 299.03 22.2 299.07Z" fill="black"/>
<path d="M20.32 306.97C16.15 306.08 14.51 305.35 12.38 304.04C10.6 302.96 9.37 301.15 9.03 299.1C8.86 297.45 9.48 295.82 10.7 294.7C12.16 293.13 14.46 292.67 16.41 293.57C17.09 292.35 18.23 291.47 19.58 291.12C20.98 290.83 22.44 291.06 23.68 291.78C25.87 293.09 26.91 295.71 26.22 298.17L24.99 297.81C25.5 295.92 24.71 293.91 23.03 292.89L23 292.87C22.05 292.33 20.94 292.15 19.87 292.37C18.83 292.65 17.95 293.36 17.45 294.31C17.14 294.84 16.48 295.03 15.93 294.77C14.46 294.04 12.69 294.39 11.61 295.61C10.67 296.45 10.18 297.7 10.31 298.95C10.61 300.61 11.61 302.07 13.06 302.94C15.1 304.19 16.59 304.85 20.59 305.71L20.32 306.96V306.97Z" fill="black"/>
<path d="M13.26 301.72C11.34 299.73 11.05 297.9 12.41 296.27L13.39 297.09C12.96 297.6 12.08 298.67 14.17 300.84L13.26 301.73V301.72Z" fill="#3FBC6A"/>
</g>
<g clip-path="url(#clip4_66_406)">
<path d="M28.13 333.53L23.6 329L19.07 333.53L14.53 329L10 333.53L14.53 338.06L10 342.6V347.13H14.53L19.06 342.6L23.59 347.13L28.12 342.6L23.59 338.07L28.12 333.54L28.13 333.53ZM14.61 336.56L16.57 334.67L15.81 333.84L13.85 335.8L13.17 335.12L15.21 333.09L14.3 332.33L12.34 334.29L11.58 333.53L14.53 330.59L18.31 334.37L15.29 337.24L14.61 336.56ZM11.13 346V343.73L13.4 346H11.13ZM14.53 345.55L11.58 342.6L23.6 330.59L26.55 333.54L14.53 345.55ZM26.54 342.6L23.59 345.55L22.76 344.79L24.8 342.75L24.04 341.99L22 344.03L21.32 343.27L23.36 341.23L22.45 340.47L20.41 342.51L19.73 341.83L22.68 338.88L26.53 342.58L26.54 342.6Z" fill="black"/>
<path d="M13.17 335.11L15.22 333.07L14.31 332.31L12.24 334.19L13.17 335.11Z" fill="#3FBC6A"/>
<path d="M14.68 336.63L16.73 334.59L15.83 333.83L13.76 335.71L14.68 336.63Z" fill="#3FBC6A"/>
<path d="M21.31 343.26L23.36 341.22L22.46 340.46L20.39 342.34L21.31 343.26Z" fill="#3FBC6A"/>
<path d="M22.83 344.78L24.88 342.74L23.97 341.98L21.91 343.86L22.83 344.78Z" fill="#3FBC6A"/>
</g>
<g clip-path="url(#clip5_66_406)">
<path d="M24.12 370.35C24.07 370.26 23.83 370.26 23.83 370.26H23.07L22.73 369.58C22.73 369.58 22.59 369.38 22.46 369.38C22.33 369.38 22.23 369.59 22.23 369.59L21.93 370.24L21.23 370.27C21.23 370.27 21.01 370.2 20.91 370.31C20.84 370.39 20.96 370.61 20.96 370.61L21.63 371.11L21.36 371.91C21.36 371.91 21.32 372.13 21.4 372.19C21.49 372.25 21.69 372.15 21.69 372.15L22.5 371.67L23.25 372.16C23.25 372.16 23.49 372.24 23.58 372.17C23.66 372.11 23.6 371.91 23.6 371.91L23.39 371.07L24.03 370.59C24.03 370.59 24.18 370.44 24.13 370.34L24.12 370.35ZM23.27 370.78L22.95 371.02L23.06 371.44C23.06 371.44 23.09 371.55 23.06 371.57C23.01 371.61 22.89 371.57 22.89 371.57L22.51 371.32L22.1 371.56C22.1 371.56 22 371.61 21.95 371.58C21.91 371.55 21.93 371.44 21.93 371.44L22.06 371.03L21.72 370.78C21.72 370.78 21.66 370.67 21.69 370.63C21.74 370.57 21.85 370.61 21.85 370.61L22.2 370.59L22.35 370.26C22.35 370.26 22.4 370.16 22.47 370.16C22.53 370.16 22.6 370.26 22.6 370.26L22.77 370.6H23.15C23.15 370.6 23.27 370.6 23.3 370.64C23.33 370.69 23.25 370.76 23.25 370.76L23.27 370.78ZM16.52 370.79C16.6 370.73 16.54 370.53 16.54 370.53L16.32 369.69L16.96 369.21C16.96 369.21 17.11 369.06 17.06 368.96C17.01 368.87 16.77 368.87 16.77 368.87H16.01L15.67 368.19C15.66 368.2 15.51 368 15.39 368C15.26 368 15.16 368.21 15.16 368.21L14.86 368.87L14.16 368.9C14.16 368.9 13.94 368.83 13.84 368.94C13.77 369.02 13.89 369.24 13.89 369.24L14.56 369.74L14.29 370.54C14.29 370.54 14.25 370.76 14.33 370.82C14.42 370.88 14.62 370.78 14.62 370.78L15.43 370.3L16.18 370.79C16.18 370.79 16.42 370.87 16.52 370.8V370.79ZM15.99 370.19H15.82L15.44 369.94L15.03 370.18C15.03 370.18 14.93 370.23 14.88 370.2C14.84 370.17 14.86 370.06 14.86 370.06L14.99 369.65L14.65 369.4C14.65 369.4 14.59 369.29 14.62 369.25C14.67 369.19 14.78 369.23 14.78 369.23L15.13 369.21L15.28 368.88C15.28 368.88 15.33 368.78 15.4 368.78C15.46 368.78 15.53 368.88 15.53 368.88L15.7 369.22H16.08C16.08 369.22 16.2 369.22 16.23 369.26C16.26 369.31 16.18 369.38 16.18 369.38L15.86 369.62L15.97 370.04C15.97 370.04 16 370.15 15.97 370.18L15.99 370.19ZM21.29 373.33H19.77L19.09 371.88C19.09 371.88 18.8 371.44 18.56 371.44C18.31 371.44 18.09 371.88 18.09 371.88L17.49 373.29L16.1 373.36C16.1 373.36 15.65 373.21 15.46 373.46C15.33 373.63 15.56 374.1 15.56 374.1L16.89 375.18L16.36 376.9C16.36 376.9 16.29 377.38 16.45 377.5C16.63 377.63 17.04 377.42 17.04 377.42L18.65 376.38L20.15 377.42C20.15 377.42 20.62 377.6 20.81 377.45C20.97 377.33 20.84 376.88 20.84 376.88L20.41 375.08L21.69 374.06C21.69 374.06 21.99 373.75 21.88 373.54C21.79 373.36 21.29 373.34 21.29 373.34V373.33ZM20.18 374.46L19.53 374.98L19.75 375.89C19.75 375.89 19.81 376.12 19.73 376.18C19.64 376.25 19.4 376.17 19.4 376.17L18.64 375.64L17.83 376.16C17.83 376.16 17.62 376.27 17.53 376.2C17.45 376.14 17.49 375.9 17.49 375.9L17.76 375.03L17.09 374.49C17.09 374.49 16.97 374.25 17.04 374.17C17.14 374.05 17.37 374.12 17.37 374.12L18.07 374.09L18.37 373.38C18.37 373.38 18.48 373.16 18.61 373.16C18.73 373.16 18.88 373.38 18.88 373.38L19.22 374.12H19.98C19.98 374.12 20.23 374.12 20.28 374.22C20.33 374.33 20.18 374.48 20.18 374.48V374.46Z" fill="#3FBC6A"/>
<path d="M23.4 382.95C23.4 386.28 21.71 386.32 18.33 386.32C14.95 386.32 13.26 386.28 13.26 382.95C13.26 382.83 13.26 381.78 13.27 380.8C12.63 380.6 12.08 380.36 11.63 380.07C11.63 381.21 11.62 382.74 11.62 382.89C11.62 387.34 13.85 387.94 18.32 387.94C22.79 387.94 25.02 387.34 25.02 382.89C25.02 382.74 25.02 381.44 25.01 380.32C24.55 380.56 24.02 380.75 23.41 380.91C23.41 381.85 23.42 382.82 23.42 382.94L23.4 382.95Z" fill="#040000"/>
<path d="M24.46 373.78C25.21 374.82 26.09 375.53 25.67 377.19C25.3 377.95 24.49 378.64 23.85 378.95C23.59 379.08 23.3 379.17 22.99 379.24C21.8 379.52 20.26 379.78 18.45 379.76C16.98 379.73 15.56 379.55 14.3 379.29C14 379.23 13.7 379.14 13.42 379.03C12.72 378.74 12.02 378.39 11.31 377.39C10.89 376.26 11.96 375.07 12.59 373.78C10.87 374.48 10 375.61 10 377.17C10 378.41 10.54 379.37 11.62 380.07C12.07 380.36 12.62 380.61 13.26 380.8C14.6 381.21 16.35 381.42 18.52 381.42C20.48 381.42 22.1 381.25 23.38 380.92C23.99 380.76 24.52 380.56 24.98 380.33C26.35 379.62 27.04 378.57 27.04 377.18C27.04 375.62 26.18 374.49 24.45 373.79L24.46 373.78Z" fill="#040000"/>
</g>
<g clip-path="url(#clip6_66_406)">
<path opacity="0.7" d="M14.37 428.24C14.25 428.24 14.15 428.16 14.13 428.04L11.36 413.52C11.28 413.16 11.5 412.8 11.87 412.72C11.93 412.71 11.99 412.7 12.06 412.7H21.21C21.34 412.69 21.45 412.79 21.45 412.93C21.45 412.97 21.44 413.01 21.42 413.05L20.03 415.41C19.83 415.76 20.67 416.36 20.94 416.66L24.07 419.9C24.16 420 24.15 420.15 24.06 420.24C24.02 420.28 23.96 420.3 23.9 420.3L15.32 421.52C14.81 421.52 14.39 421.94 14.39 422.45C14.39 422.5 14.39 422.56 14.4 422.61L15.47 427.96C15.48 428.03 15.47 428.1 15.42 428.16C15.37 428.21 15.31 428.24 15.24 428.24H14.37Z" fill="#3FBC6A"/>
<path d="M15.59 424.17C15.47 424.17 15.37 424.09 15.35 423.97L12.97 410.82C12.89 410.46 13.11 410.1 13.48 410.02C13.54 410.01 13.6 410 13.67 410H24.83C24.96 410 25.07 410.11 25.07 410.24C25.07 410.28 25.06 410.32 25.04 410.36L23.07 414.09C22.87 414.44 22.92 414.88 23.19 415.18L26.32 418.42C26.41 418.52 26.4 418.67 26.31 418.76C26.27 418.8 26.21 418.82 26.15 418.82H16.93C16.42 418.82 16 419.24 16 419.75C16 419.8 16 419.86 16.01 419.91L16.69 423.89C16.7 423.96 16.69 424.03 16.64 424.09C16.59 424.14 16.53 424.17 16.46 424.17H15.59ZM15.67 417.81C15.91 417.64 16.19 417.55 16.48 417.55H23.68C23.68 417.55 23 416.8 21.77 415.51C21.37 415.09 21.5 414.28 21.72 413.81C22.44 412.21 22.98 411.24 22.98 411.24H14.48L15.67 417.8V417.81Z" fill="black"/>
<path d="M9.8362 421.434L8.61997 422.65C8.45205 422.818 8.45205 423.09 8.61997 423.258L9.8362 424.474C10.0041 424.642 10.2764 424.642 10.4443 424.474L11.6605 423.258C11.8285 423.09 11.8285 422.818 11.6605 422.65L10.4443 421.434C10.2764 421.266 10.0041 421.266 9.8362 421.434Z" stroke="black" stroke-miterlimit="10"/>
<path d="M23.98 425.44L25.19 424.35C25.19 424.35 25.27 424.25 25.27 424.19C25.28 424.05 25.18 423.93 25.04 423.91L23.44 423.75L22.79 422.28C22.77 422.22 22.72 422.16 22.66 422.13C22.53 422.07 22.38 422.13 22.33 422.26L21.68 423.73L20.06 423.9C20 423.9 19.94 423.93 19.9 423.98C19.81 424.08 19.82 424.24 19.92 424.33L21.12 425.39L20.78 426.98C20.77 427.04 20.78 427.1 20.81 427.16C20.88 427.28 21.04 427.32 21.16 427.25L22.54 426.44L23.93 427.25C23.99 427.28 24.05 427.3 24.12 427.28C24.26 427.25 24.34 427.11 24.31 426.98L23.97 425.42L23.98 425.44Z" stroke="black" stroke-miterlimit="10"/>
</g>
<g clip-path="url(#clip7_66_406)">
<path d="M12.02 532.43C12.02 533.5 12.89 534.36 13.95 534.36C15.02 534.36 15.88 533.49 15.88 532.43C15.88 531.36 15.01 530.5 13.95 530.5C12.88 530.5 12.02 531.37 12.02 532.43Z" stroke="black" stroke-linecap="round" stroke-linejoin="round"/>
<path d="M9.58 534.58L12.13 537.51C12.31 537.72 12.41 537.96 12.41 538.21V540C12.41 540.14 12.38 540.28 12.32 540.41L9.5 546.84M18.4 546.84L15.58 540.41C15.52 540.28 15.49 540.14 15.49 540V538.21C15.49 537.96 15.59 537.71 15.77 537.51L18.32 534.58" stroke="black" stroke-linecap="round" stroke-linejoin="round"/>
<path d="M21.14 535.75H23.77C24.01 535.75 24.2 535.55 24.2 535.3V535.11C24.2 534.87 24.01 534.67 23.77 534.66H21.14C20.9 534.66 20.71 534.86 20.71 535.11V535.3C20.71 535.55 20.9 535.75 21.14 535.75Z" fill="#3FBC6A"/>
<path d="M25.44 535.85H24.73C24.69 536.3 24.33 536.65 23.88 536.65H21.05C20.6 536.65 20.24 536.3 20.2 535.85H19.49C18.55 535.85 17.78 536.62 17.78 537.58V541.74C17.78 542.7 18.55 543.47 19.49 543.48H25.45C26.39 543.48 27.16 542.7 27.16 541.75V537.59C27.16 536.63 26.39 535.86 25.45 535.86L25.44 535.85ZM24.31 540.04C24.31 540.18 24.2 540.3 24.05 540.3H23.08V541.28C23.08 541.42 22.97 541.54 22.82 541.54H22.08C21.94 541.54 21.82 541.43 21.82 541.29V540.3H20.85C20.71 540.3 20.59 540.19 20.59 540.04V539.29C20.59 539.15 20.71 539.03 20.85 539.03H21.82V538.05C21.82 537.91 21.93 537.79 22.08 537.79H22.82C22.96 537.79 23.08 537.9 23.08 538.05V539.03H24.05C24.19 539.03 24.3 539.14 24.31 539.29L24.32 540.04H24.31Z" fill="#3FBC6A"/>
</g>
<g clip-path="url(#clip8_66_406)">
<path opacity="0.7" d="M13.5 575.13C13.8921 575.13 14.21 574.812 14.21 574.42C14.21 574.028 13.8921 573.71 13.5 573.71C13.1079 573.71 12.79 574.028 12.79 574.42C12.79 574.812 13.1079 575.13 13.5 575.13Z" fill="#3FBC6A"/>
<path d="M27.27 587.9L14.55 587.87M27.31 576.73V574.09C27.31 573.59 27.01 573.14 26.55 572.94L18.95 569.61C18.61 569.46 18.21 569.46 17.86 569.61L10.25 572.94C9.79 573.14 9.5 573.59 9.5 574.09V587.88H11.52" stroke="black" stroke-linecap="round" stroke-linejoin="round"/>
<path d="M25.33 580.5H27.3V586.31H14.58V580.5H16.55" stroke="black" stroke-linecap="round" stroke-linejoin="round"/>
<path d="M20.94 578.22H16.87V583.98H20.94V578.22Z" stroke="#3FBC6A" stroke-linecap="round" stroke-linejoin="round"/>
<path d="M25.02 578.22H20.94V583.98H25.02V578.22Z" stroke="#3FBC6A" stroke-linecap="round" stroke-linejoin="round"/>
<path d="M18.64 572.18L15.53 573.52" stroke="black" stroke-linecap="round" stroke-linejoin="round"/>
</g>
<g clip-path="url(#clip9_66_406)">
<path d="M27.58 620.49L26.63 618.88C26.37 618.48 25.85 618.35 25.43 618.57L24.48 619.1L24.11 618.9V617.84C24.1 617.37 23.72 617 23.26 616.99H21.36C20.89 617 20.52 617.38 20.51 617.84V618.9L20.17 619.09L19.18 618.56C18.76 618.34 18.24 618.47 17.98 618.87L17.03 620.49C16.78 620.89 16.91 621.42 17.31 621.67C17.33 621.67 17.34 621.69 17.36 621.7L18.3 622.23V622.62L17.36 623.15C16.94 623.37 16.79 623.89 17.01 624.31C17.01 624.33 17.03 624.34 17.04 624.36L17.99 625.97C18.25 626.37 18.77 626.5 19.19 626.28L20.13 625.75L20.52 625.89V626.95C20.52 627.43 20.92 627.82 21.4 627.82H23.31C23.79 627.82 24.18 627.43 24.19 626.95V625.89L24.53 625.7L25.48 626.23C25.9 626.45 26.42 626.32 26.68 625.92L27.63 624.31C27.88 623.91 27.75 623.38 27.35 623.13C27.33 623.13 27.32 623.11 27.3 623.1L26.36 622.57V622.18L27.3 621.65C27.7 621.41 27.83 620.9 27.6 620.49H27.58ZM25.31 621.72V622.01C25.31 622.14 25.31 622.27 25.31 622.4C25.31 622.53 25.31 622.66 25.31 622.79V623.09L26.74 623.9L25.85 625.42L24.42 624.61L24.18 624.79C23.97 624.95 23.75 625.08 23.51 625.18L23.23 625.3V626.91H21.38V625.32L21.1 625.2C20.86 625.1 20.63 624.97 20.43 624.81L20.19 624.63L18.76 625.41L17.83 623.86L19.3 623.08V622.78C19.3 622.65 19.3 622.52 19.3 622.39C19.3 622.26 19.3 622.13 19.3 622V621.71L17.83 620.92L18.76 619.39L20.19 620.2L20.43 620.02C20.64 619.86 20.86 619.74 21.1 619.63L21.38 619.51V617.87H23.22V619.48L23.5 619.6C23.74 619.7 23.97 619.83 24.17 619.99L24.41 620.17L25.85 619.39L26.76 620.94L25.3 621.72H25.31Z" fill="#3FBC6A"/>
<path d="M9 616.22H16.22V609H9V616.22ZM10.2 610.2H15.02V615.02H10.2V610.2ZM9 627.05H15.02V618.63H9V627.05ZM10.2 619.83H13.81V625.85H10.2V619.83ZM18.63 609V615.02H27.05V609H18.63ZM25.85 613.81H19.83V610.2H25.85V613.81Z" fill="black"/>
<path d="M22.3 621.09C21.58 621.09 21 621.67 21 622.39C21 623.11 21.58 623.69 22.3 623.69C23.02 623.69 23.6 623.11 23.6 622.39C23.6 621.67 23.01 621.1 22.3 621.09Z" stroke="#3FBC6A" stroke-miterlimit="10"/>
</g>
<g clip-path="url(#clip10_66_406)">
<path opacity="0.7" d="M21.47 700.05L26.05 699.3L26.27 706.05L21.4 706.91L21.47 700.05Z" fill="#3FBC6A"/>
<path d="M26.78 691.63C26.62 691.5 26.41 691.44 26.21 691.48L21.16 692.38L19.87 691.95C19.5 691.83 19.11 692.03 18.99 692.39C18.87 692.76 19.07 693.15 19.43 693.27L20.89 693.75C20.89 693.75 20.96 693.77 20.99 693.78V699.43L18.11 698.55C17.87 698.47 17.61 698.61 17.53 698.86C17.45 699.11 17.59 699.36 17.84 699.44L20.99 700.41V706.24L14.96 704.54V701.92C14.95 701.66 14.73 701.47 14.47 701.48C14.23 701.49 14.04 701.68 14.03 701.92V704.55L9.38999 705.28V692.16C9.38999 691.78 9.07999 691.46 8.68999 691.46C8.29999 691.46 7.98999 691.77 7.98999 692.16V706.08C7.98999 706.46 8.29999 706.78 8.68999 706.78C8.72999 706.78 8.75999 706.78 8.79999 706.78L14.57 705.87L21.04 707.69C21.14 707.72 21.25 707.72 21.35 707.7L26.45 706.77C26.78 706.71 27.02 706.42 27.02 706.08V692.16C27.02 691.95 26.93 691.76 26.77 691.63H26.78ZM25.64 698.86L21.93 699.51V693.65L25.64 692.99V698.86ZM21.93 706.18V700.45L25.64 699.8V705.5L21.93 706.17V706.18Z" fill="black"/>
<path d="M11.1 694.74C11.33 695.19 13.42 698.14 14.05 699.04C14.18 699.22 14.39 699.33 14.62 699.33C14.85 699.33 15.06 699.22 15.19 699.03C15.82 698.13 17.91 695.16 18.12 694.75C19.12 692.81 18.35 690.43 16.41 689.44C14.47 688.44 12.09 689.21 11.1 691.15C10.52 692.28 10.52 693.62 11.1 694.75V694.74ZM14.61 690.42C16.01 690.42 17.15 691.54 17.16 692.94C17.16 693.34 17.07 693.74 16.89 694.1C16.77 694.32 15.72 695.85 14.62 697.42C13.62 696 12.48 694.36 12.34 694.12C12.16 693.77 12.06 693.38 12.06 692.98C12.06 691.57 13.2 690.42 14.61 690.42Z" fill="#3FBC6A"/>
<path d="M13.45 692.97C13.45 693.61 13.97 694.13 14.61 694.13C15.25 694.13 15.77 693.61 15.77 692.97C15.77 692.33 15.25 691.81 14.61 691.81C13.97 691.81 13.45 692.33 13.45 692.97Z" fill="#3FBC6A"/>
</g>
<g clip-path="url(#clip11_66_406)">
<path d="M22.43 729V732.48H26.91V746.4H9.5V732.48H13.98V729H22.43ZM25.41 733.97H10.99V744.91H25.41V733.97ZM20.94 730.49H15.47V732.48H20.94V730.49Z" fill="black"/>
<path d="M18.95 735.96V738.7H21.68V740.19H18.95V742.93H17.45V740.19H14.71V738.7H17.45V735.96H18.95Z" fill="#3FBC6A"/>
</g>
<g clip-path="url(#clip12_66_406)">
<path d="M15.99 779.69H11.47C11.2 779.69 11 779.47 11 779.22C11 778.95 11.22 778.73 11.47 778.73H15.96C16.23 778.73 16.43 778.95 16.43 779.22C16.46 779.49 16.24 779.69 15.99 779.69ZM16.24 775.83H10.47C10.2 775.83 10 775.61 10 775.36C10 775.09 10.22 774.89 10.47 774.89H16.23C16.5 774.89 16.7 775.11 16.7 775.36C16.73 775.61 16.51 775.83 16.23 775.83H16.24ZM16.4 771.97H9.47C9.22 771.97 9 771.75 9 771.5C9 771.23 9.22 771.03 9.47 771.03H16.4C16.67 771.03 16.87 771.25 16.87 771.5C16.9 771.75 16.68 771.97 16.4 771.97Z" fill="black"/>
<path d="M25.99 774.95C25.72 774.59 25.44 774.35 25.2 774.18C24.98 774.02 24.73 773.88 24.46 773.77L23.67 773.39C23.4 773.25 23.07 773.03 22.68 772.73C22.24 772.4 21.89 772.07 21.64 771.72C21.42 771.39 21.2 771.09 21.04 770.82C20.88 770.55 20.68 770.35 20.52 770.19C20.36 770.03 20.14 769.97 19.86 770.03C19.56 770.05 19.29 770.19 19.09 770.41C18.9 770.66 18.79 770.96 18.79 771.31C18.74 773.2 18.54 781.91 18.54 781.91C18.35 781.83 18.05 781.75 17.66 781.64C17.25 781.53 16.81 781.5 16.29 781.5C15.74 781.5 15.22 781.61 14.7 781.77C14.15 781.96 13.63 782.29 13.14 782.76C12.65 783.23 12.4 783.75 12.4 784.32C12.37 784.87 12.54 785.42 12.87 785.88C13.2 786.34 13.64 786.76 14.24 787.09C14.84 787.42 15.5 787.56 16.27 787.53C17.01 787.5 17.64 787.39 18.13 787.15C18.62 786.93 19.03 786.66 19.34 786.33C19.65 786 19.86 785.65 19.97 785.26C20.08 784.87 20.13 784.55 20.13 784.22L20.16 783.12L20.38 774.63L20.41 773.81C20.41 773.62 20.49 773.45 20.66 773.4C20.82 773.32 21.02 773.43 21.29 773.7C21.62 774.06 21.97 774.41 22.36 774.71C22.8 775.07 23.32 775.34 23.87 775.45C24.42 775.56 24.83 775.75 25.08 776C25.33 776.25 25.49 776.63 25.55 777.12C25.58 777.42 25.63 777.64 25.69 777.75C25.75 777.86 25.83 777.94 25.94 777.94C26.02 777.97 26.13 777.86 26.27 777.69C26.41 777.5 26.49 777.28 26.57 776.98C26.62 776.68 26.62 776.35 26.6 775.99C26.49 775.63 26.3 775.28 26.02 774.95H25.99Z" fill="#3FBC6A"/>
</g>
<g clip-path="url(#clip13_66_406)">
<path d="M22.91 811.07C23.1 811.07 23.28 811.14 23.41 811.28C23.54 811.41 23.62 811.59 23.62 811.78V825.3C23.62 825.69 23.3 826 22.92 826H11.77C11.58 826 11.4 825.93 11.27 825.79C11.14 825.66 11.06 825.48 11.06 825.29V811.77C11.06 811.58 11.13 811.4 11.27 811.27C11.4 811.14 11.58 811.06 11.77 811.06H22.91M22.91 809.99H11.77C10.79 810 10 810.79 10 811.77V825.3C10 825.77 10.19 826.22 10.52 826.55C10.85 826.88 11.3 827.07 11.77 827.07H22.91C23.89 827.07 24.68 826.28 24.68 825.3V811.77C24.68 810.79 23.89 810 22.91 810V809.99ZM22.01 813.75C22.01 813.46 21.79 813.22 21.53 813.22H17.72C17.45 813.22 17.24 813.46 17.24 813.75C17.24 814.04 17.46 814.28 17.72 814.28H21.53C21.8 814.28 22.01 814.04 22.01 813.75ZM22.01 816.6C22.01 816.31 21.79 816.07 21.53 816.07H17.72C17.45 816.07 17.24 816.31 17.24 816.6C17.24 816.89 17.46 817.13 17.72 817.13H21.53C21.8 817.13 22.01 816.89 22.01 816.6ZM22.01 819.65C22.01 819.36 21.79 819.12 21.53 819.12H12.72C12.45 819.12 12.24 819.36 12.24 819.65C12.24 819.94 12.46 820.18 12.72 820.18H21.53C21.8 820.18 22.01 819.94 22.01 819.65ZM22.01 822.71C22.01 822.42 21.79 822.18 21.53 822.18H12.72C12.45 822.18 12.24 822.42 12.24 822.71C12.24 823 12.46 823.24 12.72 823.24H21.53C21.8 823.24 22.01 823 22.01 822.71Z" fill="black"/>
<path d="M25.75 812.41V824.83C25.75 825.12 25.52 825.37 25.22 825.37C24.92 825.37 24.68 825.14 24.68 824.84V825.31C24.68 826.29 23.89 827.08 22.91 827.08H25.36C26.24 827.14 27 826.49 27.07 825.61V813.84C27.03 813.11 26.47 812.51 25.75 812.41Z" fill="#3FBC6A"/>
<path d="M13.52 812.98H12.45V817.04H13.52V812.98Z" fill="#3FBC6A"/>
<path d="M16.5 812.98H15.43V817.04H16.5V812.98Z" fill="#3FBC6A"/>
<path d="M13.51 812.98L12.68 813.65L15.43 817.04L16.26 816.37L13.51 812.98Z" fill="#3FBC6A"/>
</g>
<g clip-path="url(#clip14_66_406)">
<path opacity="0.7" d="M24.53 859.28C24.38 859.27 24.23 859.26 24.08 859.26C20.49 859.26 17.58 862.17 17.58 865.76C17.58 866.77 17.82 867.71 18.22 868.56H22.28C23.53 868.56 24.54 867.55 24.54 866.3V859.27L24.53 859.28Z" fill="#3FBC6A" fill-opacity="0.8"/>
<path opacity="0.7" d="M17.72 852.28C18.5484 852.28 19.22 851.608 19.22 850.78C19.22 849.952 18.5484 849.28 17.72 849.28C16.8915 849.28 16.22 849.952 16.22 850.78C16.22 851.608 16.8915 852.28 17.72 852.28Z" fill="#3FBC6A"/>
<path d="M15.96 851.2C15.96 849.81 17.01 848.76 18.15 849.05C18.97 849.26 19.54 850.14 19.58 851.16V851.25V851.31H20.42C21.42 851.31 22.24 852.28 22.28 853.49V853.57V854.56C22.28 854.98 22.01 855.32 21.66 855.32C21.33 855.32 21.06 855.02 21.04 854.62V854.56V853.57C21.04 853.18 20.79 852.85 20.47 852.82H20.42H18.96C18.64 852.82 18.37 852.52 18.34 852.12V852.06V851.25C18.34 850.9 18.15 850.59 17.9 850.53C17.59 850.45 17.29 850.69 17.22 851.06C17.22 851.09 17.22 851.12 17.21 851.15V851.2V852.06C17.21 852.45 16.96 852.78 16.64 852.81H16.59H15.13C14.81 852.81 14.54 853.12 14.51 853.51V853.57V854.56C14.51 854.98 14.24 855.32 13.89 855.32C13.56 855.32 13.29 855.02 13.27 854.62V854.56V853.57C13.27 852.35 14.07 851.36 15.06 851.31H15.13H15.97V851.21L15.96 851.2Z" fill="black"/>
<path d="M21.53 853.9H14.01C12.35 853.9 11 855.25 11 856.91V866.31C11 867.56 12.01 868.57 13.26 868.57H22.28C23.53 868.57 24.54 867.56 24.54 866.31V856.91C24.54 855.25 23.19 853.9 21.53 853.9ZM13.91 855.25H21.63C22.48 855.25 23.17 855.94 23.17 856.79V866.44C23.17 866.87 22.82 867.21 22.4 867.21H13.13C12.7 867.21 12.36 866.86 12.36 866.44V856.79C12.36 855.94 13.05 855.25 13.9 855.25H13.91Z" fill="black"/>
<path d="M15.51 859.16V864.05H14.01V859.16C14.01 858.74 14.35 858.41 14.76 858.41C15.18 858.41 15.51 858.75 15.51 859.16Z" fill="#3FBC6A"/>
</g>
<g clip-path="url(#clip15_66_406)">
<path opacity="0.7" d="M24.89 897.18C25.7184 897.18 26.39 896.508 26.39 895.68C26.39 894.852 25.7184 894.18 24.89 894.18C24.0616 894.18 23.39 894.852 23.39 895.68C23.39 896.508 24.0616 897.18 24.89 897.18Z" fill="#3FBC6A"/>
<path opacity="0.7" d="M16 904.99C15.8 904.99 15.62 904.89 15.52 904.73L13.94 902.26C13.89 902.18 13.81 902.13 13.71 902.13L10.79 902.1C10.58 902.1 10.4 901.98 10.3 901.79C10.21 901.61 10.22 901.4 10.35 901.23L12.25 898.85C12.3 898.78 12.33 898.69 12.3 898.6L11.45 895.66C11.39 895.48 11.45 895.28 11.6 895.14C11.7 895.05 11.83 895 11.96 895C12.02 895 12.09 895.01 12.15 895.03L14.94 896.07C14.94 896.07 15 896.09 15.03 896.09C15.09 896.09 15.15 896.07 15.19 896.04L17.6 894.33C17.69 894.27 17.8 894.23 17.91 894.23C18 894.23 18.1 894.25 18.18 894.3C18.37 894.4 18.47 894.6 18.46 894.8L18.3 897.76C18.3 897.85 18.33 897.94 18.41 898L20.78 899.82C20.94 899.94 21.02 900.14 20.99 900.34C20.96 900.53 20.82 900.68 20.64 900.74L17.69 901.59C17.6 901.61 17.53 901.68 17.5 901.76L16.48 904.63C16.41 904.82 16.24 904.95 16.04 904.97C16.03 904.97 16.02 904.97 16 904.97V904.99Z" fill="#3FBC6A"/>
<path d="M16.46 902.97C16.26 902.97 16.08 902.87 15.98 902.71L14.4 900.24C14.35 900.16 14.27 900.11 14.17 900.11L11.25 900.08C11.04 900.08 10.86 899.96 10.76 899.77C10.67 899.59 10.68 899.38 10.81 899.21L12.71 896.83C12.76 896.76 12.79 896.67 12.76 896.58L11.91 893.64C11.85 893.46 11.91 893.26 12.06 893.12C12.16 893.03 12.29 892.98 12.42 892.98C12.48 892.98 12.55 892.99 12.61 893.01L15.4 894.05C15.4 894.05 15.46 894.07 15.49 894.07C15.55 894.07 15.61 894.05 15.65 894.02L18.06 892.31C18.15 892.25 18.26 892.21 18.37 892.21C18.46 892.21 18.56 892.23 18.64 892.28C18.83 892.38 18.93 892.58 18.92 892.78L18.76 895.74C18.76 895.83 18.79 895.92 18.87 895.98L21.24 897.8C21.4 897.92 21.48 898.12 21.45 898.32C21.42 898.51 21.28 898.66 21.1 898.72L18.15 899.57C18.06 899.59 17.99 899.66 17.96 899.74L16.94 902.61C16.87 902.8 16.7 902.93 16.5 902.95C16.49 902.95 16.48 902.95 16.46 902.95V902.97Z" stroke="black" stroke-miterlimit="10"/>
<path d="M26.26 908.77C26.12 908.77 26 908.7 25.91 908.6L19.49 901.92C19.31 901.7 19.33 901.39 19.54 901.21C19.65 901.12 19.78 901.08 19.91 901.09C20.04 901.1 20.17 901.16 20.26 901.26L26.68 907.95C26.77 908.05 26.81 908.18 26.8 908.32C26.79 908.46 26.73 908.58 26.63 908.67C26.52 908.76 26.39 908.8 26.26 908.79V908.77Z" fill="#3FBC6A"/>
<path d="M11.86 905.19C11.7 905.03 11.44 905.03 11.27 905.19L10.12 906.35C9.96 906.51 9.96 906.77 10.12 906.94C10.28 907.1 10.54 907.1 10.71 906.94L11.57 906.08L12.43 906.94C12.59 907.1 12.85 907.1 13.02 906.94C13.18 906.78 13.18 906.52 13.02 906.35L11.87 905.2L11.86 905.19Z" fill="black"/>
<path d="M14.57 891.28C14.78 891.37 15.02 891.28 15.12 891.07L15.78 889.58C15.87 889.37 15.78 889.13 15.57 889.03C15.36 888.94 15.12 889.03 15.02 889.24L14.53 890.35L13.42 889.86C13.21 889.77 12.97 889.86 12.87 890.07C12.78 890.28 12.87 890.52 13.08 890.62L14.57 891.28Z" fill="black"/>
</g>
<g clip-path="url(#clip16_66_406)">
<path opacity="0.7" d="M23.86 948.71C27.4498 948.71 30.36 945.8 30.36 942.21C30.36 938.62 27.4498 935.71 23.86 935.71C20.2701 935.71 17.36 938.62 17.36 942.21C17.36 945.8 20.2701 948.71 23.86 948.71Z" fill="#3FBC6A"/>
<path d="M21.3 930.5H16.45C16.29 930.5 15.99 930.54 15.73 930.84C15.72 930.85 15.7 930.87 15.69 930.89C15.67 930.92 15.63 930.96 15.59 931.02C15.52 931.11 15.41 931.25 15.28 931.43C15.08 931.69 14.89 931.94 14.69 932.2H10.92C10.28 932.2 9.67001 932.46 9.22001 932.93C9.00001 933.16 8.82001 933.43 8.70001 933.74C8.57001 934.05 8.51001 934.39 8.51001 934.74V943.61C8.51001 943.96 8.58001 944.29 8.70001 944.61C8.82001 944.91 9.00001 945.19 9.22001 945.42C9.68001 945.89 10.28 946.15 10.92 946.15H24.81C25.45 946.15 26.06 945.89 26.51 945.42C26.73 945.19 26.91 944.92 27.03 944.61C27.16 944.3 27.22 943.96 27.22 943.61V934.74C27.22 934.4 27.15 934.06 27.03 933.74C26.91 933.44 26.73 933.16 26.51 932.93C26.05 932.46 25.45 932.2 24.81 932.2H23.04C22.85 931.94 22.65 931.69 22.46 931.43C22.36 931.29 22.25 931.16 22.15 931.03C22.11 930.98 22.08 930.94 22.05 930.91C22.04 930.89 22.02 930.88 22.01 930.86C21.75 930.55 21.45 930.51 21.29 930.51" stroke="black" stroke-linecap="round" stroke-linejoin="round"/>
<path d="M12.84 937.22C13.42 937.22 13.89 936.76 13.89 936.2C13.89 935.64 13.42 935.18 12.84 935.18C12.26 935.18 11.79 935.64 11.79 936.2C11.79 936.76 12.26 937.22 12.84 937.22Z" stroke="#3FBC6A" stroke-miterlimit="10"/>
<path d="M19.19 942.26C17.59 942.26 16.28 941.01 16.28 939.46C16.28 937.91 17.58 936.63 19.19 936.63C20.8 936.63 22.05 937.87 22.05 939.46C22.05 941.03 20.79 942.26 19.19 942.26Z" stroke="black" stroke-linecap="round" stroke-linejoin="round"/>
</g>
<g clip-path="url(#clip17_66_406)">
<path opacity="0.7" d="M23.84 985.8C24.6685 985.8 25.34 985.128 25.34 984.3C25.34 983.472 24.6685 982.8 23.84 982.8C23.0116 982.8 22.34 983.472 22.34 984.3C22.34 985.128 23.0116 985.8 23.84 985.8Z" fill="#3FBC6A"/>
<path opacity="0.7" d="M22.2 970.36C22.07 970.87 21.99 971.41 21.99 971.96C21.99 974.6 23.57 976.87 25.83 977.89C25.81 976.75 25.72 970.54 25.8 970.54C25.87 970.54 23.55 970.43 22.2 970.36Z" fill="#3FBC6A"/>
<path d="M25.24 987.41L23.91 986.08L24.61 985.38L25.25 986.02L26.87 984.4L27.57 985.1L25.26 987.41H25.24ZM29.67 985.73C29.67 987.9 27.91 989.66 25.74 989.66C23.91 989.66 22.37 988.4 21.93 986.71C21.85 986.4 21.81 986.07 21.81 985.73C21.81 983.73 23.31 982.07 25.25 981.83C25.41 981.81 25.58 981.8 25.74 981.8C25.9 981.8 26.07 981.8 26.23 981.83C28.17 982.07 29.67 983.73 29.67 985.73ZM28.69 985.73C28.69 984.27 27.62 983.06 26.23 982.82C26.07 982.79 25.91 982.78 25.74 982.78C25.57 982.78 25.41 982.79 25.25 982.82C23.86 983.05 22.79 984.27 22.79 985.73C22.79 986.07 22.85 986.41 22.96 986.71C23.36 987.85 24.46 988.68 25.74 988.68C27.37 988.68 28.69 987.36 28.69 985.73ZM11.04 985.7L11 971.13L25.21 971.16L25.25 980.56C25.41 980.54 25.58 980.54 25.74 980.54C25.9 980.54 26.07 980.54 26.23 980.56V970H10V986.72H20.63C20.57 986.4 20.54 986.07 20.54 985.74L11.04 985.71V985.7Z" fill="black"/>
<path d="M18.59 974.42H15.41V981.89H17.08V979.15H18.66C20.3 979.15 21.27 978.29 21.27 976.84C21.27 975.31 20.28 974.42 18.58 974.42H18.59ZM18.49 977.91H17.09V975.75H18.5C19.26 975.75 19.65 976.11 19.65 976.82C19.65 977.53 19.24 977.92 18.49 977.92V977.91Z" fill="#3FBC6A"/>
</g>
<g clip-path="url(#clip18_66_406)">
<path opacity="0.7" d="M16.64 1016.76L25.46 1015.6C26.24 1015.5 26.88 1016.2 26.71 1016.97L25.84 1020.92C25.74 1021.39 25.35 1021.74 24.87 1021.8L17.23 1022.7C16.59 1022.78 16.02 1022.31 15.97 1021.67L15.66 1017.98C15.61 1017.38 16.04 1016.84 16.64 1016.76Z" fill="#3FBC6A"/>
<path d="M24.11 1023.56H13.62C13.33 1023.56 13.05 1023.29 13.01 1022.98L11.91 1015.24L11.29 1011.65C11.18 1010.72 10.36 1010 9.44 1010H8.61C8.28 1010 8 1010.28 8 1010.61C8 1010.94 8.28 1011.22 8.61 1011.22H9.43C9.74 1011.22 10.03 1011.49 10.07 1011.82L10.69 1015.42L11.78 1023.13C11.89 1024.05 12.7 1024.78 13.61 1024.78H24.1C24.44 1024.78 24.71 1024.5 24.71 1024.17C24.71 1023.83 24.43 1023.56 24.1 1023.56H24.11Z" fill="black"/>
<path d="M25.57 1012.5C25.25 1012.13 24.8 1011.93 24.32 1011.93H13.13C12.79 1011.93 12.52 1012.21 12.52 1012.54C12.52 1012.87 12.8 1013.15 13.13 1013.15H24.31C24.44 1013.15 24.55 1013.2 24.64 1013.3C24.77 1013.45 24.84 1013.7 24.81 1013.93L23.79 1019.75C23.75 1020.06 23.46 1020.32 23.13 1020.32L14.37 1020.97C14.21 1020.98 14.06 1021.06 13.95 1021.18C13.84 1021.3 13.79 1021.46 13.8 1021.63C13.82 1021.95 14.09 1022.2 14.41 1022.2C14.42 1022.2 14.44 1022.2 14.46 1022.2L23.17 1021.56C24.09 1021.56 24.89 1020.85 25 1019.95L26.02 1014.13C26.09 1013.52 25.92 1012.93 25.55 1012.51L25.57 1012.5Z" fill="black"/>
<path d="M13.79 1028.27C14.48 1028.27 15.05 1027.7 15.05 1027.01C15.05 1026.32 14.48 1025.75 13.79 1025.75C13.1 1025.75 12.53 1026.32 12.53 1027.01C12.53 1027.7 13.1 1028.27 13.79 1028.27Z" fill="black"/>
<path d="M22.83 1028.27C23.52 1028.27 24.09 1027.7 24.09 1027.01C24.09 1026.32 23.52 1025.75 22.83 1025.75C22.14 1025.75 21.57 1026.32 21.57 1027.01C21.57 1027.7 22.14 1028.27 22.83 1028.27Z" fill="black"/>
</g>
<g clip-path="url(#clip19_66_406)">
<path opacity="0.7" d="M12.33 1215.62L12.24 1220.43C12.23 1221.26 12.63 1221.97 13.17 1222.04C15.15 1222.3 19.71 1222.36 22.65 1222.2C24.45 1222.11 25.36 1221.38 25.44 1219.07C25.48 1217.93 25.52 1216.76 25.56 1215.82C25.59 1214.93 25.13 1214.18 24.55 1214.17L13.32 1214.12C12.78 1214.12 12.34 1214.77 12.33 1215.61V1215.62Z" fill="#3FBC6A"/>
<path d="M22.44 1210.5H11.27C9.75124 1210.5 8.52002 1211.73 8.52002 1213.25V1219.78C8.52002 1221.3 9.75124 1222.53 11.27 1222.53H22.44C23.9588 1222.53 25.19 1221.3 25.19 1219.78V1213.25C25.19 1211.73 23.9588 1210.5 22.44 1210.5Z" stroke="black" stroke-linecap="round" stroke-linejoin="round"/>
<path d="M18.21 1215.98L16.36 1214.91C15.94 1214.67 15.42 1214.97 15.42 1215.45V1217.58C15.42 1218.06 15.94 1218.36 16.36 1218.12L18.21 1217.05C18.63 1216.81 18.63 1216.21 18.21 1215.97V1215.98Z" stroke="black" stroke-linecap="round" stroke-linejoin="round"/>
<path d="M8.5 1225.81H11.72" stroke="black" stroke-linecap="round" stroke-linejoin="round"/>
<path d="M14.56 1225.81H25.22" stroke="black" stroke-linecap="round" stroke-linejoin="round"/>
<path d="M13.04 1227.09C13.7414 1227.09 14.31 1226.52 14.31 1225.82C14.31 1225.12 13.7414 1224.55 13.04 1224.55C12.3386 1224.55 11.77 1225.12 11.77 1225.82C11.77 1226.52 12.3386 1227.09 13.04 1227.09Z" stroke="black" stroke-linecap="round" stroke-linejoin="round"/>
</g>
<g clip-path="url(#clip20_66_406)">
<path opacity="0.7" d="M13.18 1256.08C15.36 1256.08 17.21 1257.68 17.52 1259.82C17.58 1260.22 17.95 1260.5 18.35 1260.44C18.47 1260.42 18.59 1260.37 18.69 1260.3C19.81 1259.45 21.4 1259.67 22.25 1260.79C23.1 1261.91 22.88 1263.5 21.76 1264.35C21.32 1264.69 20.78 1264.87 20.22 1264.87H13.18C10.75 1264.87 8.78998 1262.9 8.78998 1260.48C8.78998 1258.06 10.76 1256.09 13.18 1256.09V1256.08Z" fill="#3FBC6A"/>
<path d="M23.05 1251.14C23.23 1250.83 23.62 1250.73 23.93 1250.91C24.22 1251.08 24.33 1251.44 24.19 1251.74L24.16 1251.8L23.71 1252.57C23.53 1252.88 23.14 1252.98 22.83 1252.8C22.54 1252.63 22.43 1252.28 22.57 1251.98L22.6 1251.92L23.05 1251.15V1251.14Z" fill="black"/>
<path d="M17.76 1250.55C18.05 1250.39 18.41 1250.46 18.6 1250.73L18.64 1250.79L19.07 1251.54C19.25 1251.85 19.14 1252.24 18.84 1252.42C18.55 1252.59 18.19 1252.51 18 1252.24L17.96 1252.18L17.53 1251.43C17.35 1251.12 17.46 1250.73 17.77 1250.55H17.76Z" fill="black"/>
<path d="M26.35 1255.43C26.7 1255.46 26.96 1255.78 26.93 1256.13C26.9 1256.46 26.63 1256.71 26.3 1256.71H26.23L25.6 1256.65C25.25 1256.62 24.98 1256.31 25.02 1255.95C25.05 1255.62 25.33 1255.37 25.66 1255.36H25.73L26.36 1255.42L26.35 1255.43Z" fill="black"/>
<path d="M25.42 1252.83C25.74 1252.67 26.12 1252.81 26.28 1253.12C26.42 1253.41 26.32 1253.77 26.05 1253.95L25.99 1253.99L25.21 1254.37C24.89 1254.53 24.51 1254.39 24.35 1254.08C24.21 1253.79 24.31 1253.43 24.58 1253.25L24.64 1253.22L25.42 1252.84V1252.83Z" fill="black"/>
<path d="M21.07 1250C21.4 1250.04 21.64 1250.33 21.63 1250.66V1250.73L21.51 1251.62C21.47 1251.97 21.14 1252.22 20.79 1252.18C20.46 1252.14 20.22 1251.85 20.23 1251.52V1251.45L20.35 1250.56C20.4 1250.21 20.72 1249.96 21.07 1250Z" fill="black"/>
<path d="M25.11 1261.4C25.11 1263.59 23.34 1265.36 21.15 1265.36H14.02C10.96 1265.36 8.5 1262.89 8.5 1259.84C8.5 1256.79 10.98 1254.3 14.03 1254.3C16.41 1254.3 18.45 1255.82 19.22 1257.95C19.79 1257.62 20.45 1257.44 21.15 1257.44C23.34 1257.44 25.11 1259.22 25.11 1261.4Z" stroke="black" stroke-linecap="round" stroke-linejoin="round"/>
<path d="M18.65 1253.93C20.75 1253.23 23.01 1254.37 23.71 1256.47" stroke="black" stroke-linecap="round" stroke-linejoin="round"/>
</g>
<g clip-path="url(#clip21_66_406)">
<path opacity="0.7" d="M22.88 95.53C22.88 95.69 22.88 95.86 22.84 96.01C22.77 96.24 22.59 96.43 22.43 96.61C21.75 97.39 21.41 99.64 21.15 100.65C21.13 100.72 21.12 100.8 21.15 100.86C21.21 100.95 21.38 101 21.44 100.92C22.86 99.21 24.06 97.76 25.63 96.96C25.83 96.86 25.9 96.61 26.01 96.42C26.25 96.01 26.4 95.56 26.55 95.11C26.62 94.89 26.7 94.66 26.68 94.43C26.64 93.76 25.93 93.37 25.32 93.1C24.83 92.89 24.31 92.11 23.77 92.11C21.99 92.11 22.83 94.41 22.87 95.53H22.88Z" fill="#3FBB6A"/>
<path opacity="0.7" d="M14.18 104.06C15.0084 104.06 15.68 103.388 15.68 102.56C15.68 101.732 15.0084 101.06 14.18 101.06C13.3516 101.06 12.68 101.732 12.68 102.56C12.68 103.388 13.3516 104.06 14.18 104.06Z" fill="#3FBB6A"/>
<path d="M26.85 95.13C26.88 94.09 26.43 93.1 25.63 92.45L23.98 91.12C23.75 90.94 23.42 90.97 23.24 91.2C23.23 91.21 23.22 91.23 23.21 91.24L15.88 102.29L14.81 100.91C14.65 100.71 14.37 100.65 14.15 100.77L8.67998 103.73C8.14998 104.01 7.88998 104.61 8.03998 105.18C8.18998 105.77 8.68998 106.16 9.29998 106.16H17.23C18.7 106.16 20.04 105.29 20.64 103.95L21.5 102.03C22.12 100.65 23.09 99.45 24.32 98.57L24.41 98.51L24.64 105.64C24.65 105.88 24.86 106.06 25.09 106.05C25.31 106.04 25.49 105.86 25.5 105.64L25.86 97.4C26.47 96.8 26.82 96 26.85 95.13ZM23.7 97.72C22.32 98.71 21.23 100.05 20.54 101.6L19.69 103.52C19.26 104.49 18.3 105.11 17.24 105.11H9.29998C9.12998 105.11 9.07998 104.99 9.05998 104.92C9.03998 104.85 9.02998 104.72 9.17998 104.64L14.26 101.9L15.51 103.5C15.69 103.73 16.02 103.77 16.25 103.59C16.29 103.56 16.33 103.51 16.36 103.47L23.77 92.3L24.96 93.27C25.52 93.72 25.82 94.39 25.8 95.11C25.78 95.82 25.43 96.48 24.85 96.9L23.69 97.73L23.7 97.72Z" fill="black"/>
</g>
<g clip-path="url(#clip22_66_406)">
<path opacity="0.7" d="M21 180.81C21 182.12 20.61 183.34 19.94 184.37V186.38H17.85C16.87 186.97 15.73 187.31 14.5 187.31C10.91 187.31 8 184.4 8 180.81C8 177.64 10.28 175 13.29 174.43C13.21 174.56 13.15 174.7 13.15 174.87V184.53C13.15 185.02 13.55 185.41 14.04 185.41H18.21C18.7 185.41 19.09 185.02 19.09 184.53V176.21C20.27 177.38 21 179.01 21 180.81Z" fill="#3FBB6A"/>
<path opacity="0.7" d="M26.21 177.19C27.0384 177.19 27.71 176.518 27.71 175.69C27.71 174.862 27.0384 174.19 26.21 174.19C25.3816 174.19 24.71 174.862 24.71 175.69C24.71 176.518 25.3816 177.19 26.21 177.19Z" fill="#3FBB6A"/>
<path d="M12.25 172.28V186.4H19.95V172.28H12.25ZM11.61 171H20.59C20.78 171 20.93 171.06 21.05 171.18C21.17 171.3 21.23 171.45 21.23 171.64V187.04C21.23 187.21 21.17 187.38 21.05 187.5C20.93 187.62 20.76 187.69 20.59 187.68H11.61C11.44 187.68 11.27 187.62 11.15 187.5C11.03 187.38 10.96 187.21 10.97 187.04V171.64C10.97 171.45 11.03 171.3 11.15 171.18C11.27 171.06 11.43 171 11.61 171ZM13.54 174.85H18.67V176.13H13.53V174.85H13.54ZM13.54 178.7H18.67V179.98H13.53V178.7H13.54ZM13.54 182.55H18.67V183.83H13.53V182.55H13.54ZM21.24 179.98H23.81V181.26H21.24V179.98ZM21.24 182.55H23.81V183.83H21.24V182.55ZM9.67999 186.4H27.65V187.68H9.67999V186.4ZM21.23 177.42V186.4H25.08V177.42H21.23ZM20.59 176.14H25.72C25.91 176.14 26.06 176.2 26.18 176.32C26.3 176.44 26.36 176.59 26.36 176.78V187.05C26.36 187.22 26.3 187.39 26.18 187.51C26.06 187.63 25.89 187.7 25.72 187.69H20.59C20.42 187.69 20.25 187.63 20.13 187.51C20.01 187.39 19.94 187.22 19.95 187.05V176.78C19.95 176.59 20.01 176.44 20.13 176.32C20.25 176.2 20.42 176.13 20.59 176.14Z" fill="black"/>
</g>
<g clip-path="url(#clip23_66_406)">
<path opacity="0.7" d="M20.49 466.19C19.76 466.29 18.64 466.75 17.91 466.72C16.51 466.66 15.32 466.5 14.17 466.08C13.55 465.85 12.81 465.53 12.32 465.1C12.02 464.83 11.81 464.48 11.61 464.13C11.13 463.3 10.65 462.47 10.16 461.64C9.96 461.3 9.76 460.95 9.64 460.57C9.49 460.11 9.47 459.62 9.48 459.13C9.48 457.98 9.62 456.78 10.26 455.83C10.54 455.42 10.9 455.06 11.11 454.61C11.34 454.13 11.38 453.61 11.32 453.08C9.31 454.56 8 456.94 8 459.62C8 464.11 11.64 467.75 16.13 467.75C17.98 467.75 19.69 467.12 21.05 466.07C20.86 466.11 20.68 466.16 20.49 466.18V466.19Z" fill="#3FBB6A"/>
<path d="M17.64 466.76C13.15 466.76 9.51001 463.12 9.51001 458.63C9.51001 454.14 13.15 450.5 17.64 450.5C22.13 450.5 25.77 454.14 25.77 458.63C25.77 463.12 22.13 466.75 17.64 466.76Z" stroke="black" stroke-miterlimit="10"/>
<path d="M17.58 462.45C16.5 462.45 15.42 462.31 14.38 462.03C13.95 461.91 13.69 461.46 13.81 461.03C13.93 460.6 14.38 460.34 14.81 460.46C15.97 460.77 17.18 460.88 18.38 460.79C19.51 460.66 19.87 460.3 19.87 460.19C19.87 459.85 18.62 459.6 17.53 459.43C15.99 459.18 13.88 458.84 13.88 457.11C13.88 456.73 14.07 454.83 17.78 454.83C18.59 454.84 19.4 454.92 20.2 455.07C20.64 455.16 20.93 455.58 20.84 456.02C20.76 456.44 20.36 456.73 19.93 456.67C16.29 456.07 15.5 456.98 15.5 457.11C15.5 457.46 17.21 457.73 17.78 457.82C19.52 458.1 21.49 458.42 21.49 460.19C21.49 460.63 21.28 462.1 18.54 462.41C18.36 462.43 18.02 462.45 17.57 462.45H17.58Z" fill="#3FBB6A"/>
<path d="M17.66 455.8C17.21 455.8 16.85 455.44 16.85 454.99V453.97C16.85 453.52 17.21 453.16 17.66 453.16C18.11 453.16 18.47 453.52 18.47 453.97V454.99C18.47 455.44 18.11 455.8 17.66 455.8Z" fill="#3FBB6A"/>
<path d="M17.66 464.06C17.21 464.06 16.85 463.7 16.85 463.25V462.23C16.85 461.78 17.21 461.42 17.66 461.42C18.11 461.42 18.47 461.78 18.47 462.23V463.25C18.47 463.7 18.11 464.06 17.66 464.06Z" fill="#3FBB6A"/>
</g>
<g clip-path="url(#clip24_66_406)">
<path opacity="0.7" d="M19.49 499.73C20.25 500.67 21.6 500.85 22.8 500.95C23.23 500.99 23.71 501.01 24.07 500.77C24.24 500.66 24.37 500.49 24.49 500.33C25.02 499.66 25.59 499.03 26.2 498.42C26.51 496.85 26.27 495.54 25.41 494.87C23.91 493.7 21.03 494.82 18.48 497.38C18.89 498.08 19.03 499.15 19.49 499.72V499.73Z" fill="#3FBB6A"/>
<path opacity="0.7" d="M13.2819 500.855C14.3455 500.34 14.5518 498.568 13.7427 496.898C12.9336 495.228 11.4155 494.292 10.3518 494.808C9.2882 495.323 9.08187 497.094 9.89098 498.764C10.7001 500.434 12.2182 501.37 13.2819 500.855Z" fill="#3FBB6A"/>
<path d="M12.79 500.59C10.76 500.59 9.5 499.16 9.5 496.86C9.5 494.16 11.13 491.5 12.79 491.5C14.45 491.5 16.08 494.16 16.08 496.86C16.08 499.16 14.82 500.59 12.79 500.59Z" stroke="black" stroke-miterlimit="10"/>
<path d="M12.86 508.77V500.56" stroke="black" stroke-linecap="round" stroke-linejoin="round"/>
<path d="M22.31 509.02V491.72" stroke="black" stroke-linecap="round" stroke-linejoin="round"/>
<path d="M25.77 491.75V497.73C25.77 499.64 24.22 501.18 22.32 501.18C20.41 501.18 18.87 499.63 18.87 497.73V491.75" stroke="black" stroke-linecap="round" stroke-linejoin="round"/>
</g>
<g clip-path="url(#clip25_66_406)">
<path opacity="0.7" d="M20.86 651.15C20.47 651.15 20.08 651.19 19.71 651.26C19.82 651.51 19.88 651.78 19.88 652.07V657.76C19.88 658.89 18.96 659.81 17.83 659.81H15.18C15.02 659.81 14.87 659.79 14.72 659.76C15.59 662.32 18.01 664.16 20.87 664.16C24.46 664.16 27.37 661.25 27.37 657.66C27.37 654.07 24.45 651.15 20.86 651.15Z" fill="#3FBB6A"/>
<path opacity="0.7" d="M13.1 653C13.9284 653 14.6 652.328 14.6 651.5C14.6 650.672 13.9284 650 13.1 650C12.2715 650 11.6 650.672 11.6 651.5C11.6 652.328 12.2715 653 13.1 653Z" fill="#3FBB6A"/>
<path d="M26.01 664.81L25.89 665.5C25.66 665.73 25.36 665.85 25.04 665.85H10.19C9.87 665.85 9.57 665.73 9.35 665.5L9.23 664.82C9.23 664.82 9.21 664.79 9.21 664.77C9.21 664.72 9.24 664.68 9.28 664.68H25.95C25.95 664.68 26.02 664.71 26.02 664.75C26.02 664.77 26.02 664.79 26 664.8L26.01 664.81ZM8 664.09V664.81C8 665.13 8.13 666.01 8.36 666.23C8.9 666.76 9.63 667.06 10.39 667.06H24.84C25.61 667.06 26.34 666.76 26.88 666.21C27.11 665.98 27.23 665.11 27.23 664.79V664.09C27.23 663.76 26.96 663.49 26.63 663.49H8.6C8.27 663.49 8 663.76 8 664.09ZM26.18 651.07C25.52 650.42 24.62 650.01 23.63 650.01H10.4V660.23C10.4 661.23 11.21 662.03 12.2 662.03H21.22C22.22 662.03 23.02 661.22 23.02 660.23V658.84C23.02 658.44 23.33 658.12 23.73 658.1C25.79 657.59 27.23 655.74 27.23 653.62C27.23 652.62 26.83 651.72 26.17 651.07H26.18ZM21.83 659.63C21.83 660.29 21.29 660.83 20.63 660.83H12.81C12.15 660.83 11.61 660.29 11.61 659.63V651.21H21.82V659.63H21.83ZM25.85 654.75C25.73 655.1 25.55 655.43 25.32 655.73C25.09 656.02 24.81 656.28 24.5 656.48C24.19 656.68 23.85 656.83 23.49 656.93H23.34C23.17 656.93 23.04 656.79 23.04 656.63V651.52C23.04 651.35 23.18 651.22 23.34 651.22H23.61C24.25 651.22 24.86 651.46 25.32 651.91C25.78 652.37 26.04 652.98 26.04 653.62C26.04 654.01 25.98 654.38 25.85 654.74V654.75Z" fill="black"/>
</g>
<g clip-path="url(#clip26_66_406)">
<path d="M22.02 1058.69V1056.08C22.02 1054.16 20.27 1052.6 18.14 1052.6H14.26C12.13 1052.6 10.38 1054.17 10.38 1056.08V1058.69C10.38 1060.61 12.13 1062.17 14.26 1062.17H14.55C14.89 1062.17 15.74 1063.67 16.17 1063.67C16.6 1063.67 17.4 1062.17 17.74 1062.17H18.13C20.26 1062.17 22.01 1060.6 22.01 1058.68L22.02 1058.69Z" fill="#3FBB6A"/>
<path opacity="0.7" d="M20.55 1065.77H20.97C21.3 1065.77 21.71 1067.16 22.13 1067.16C22.55 1067.16 22.97 1065.77 23.29 1065.77H23.75C25.79 1065.77 27.47 1064.1 27.47 1062.05V1060.89C27.47 1060.58 27.42 1060.29 27.35 1060.01C27.23 1060.01 27.12 1059.99 27 1059.99C23.65 1059.99 20.9 1062.52 20.54 1065.77H20.55Z" fill="#3FBB6A"/>
<path d="M16.79 1061.59V1062.05C16.79 1064.09 18.46 1065.77 20.51 1065.77H20.97C21.3 1065.77 21.71 1067.16 22.13 1067.16C22.55 1067.16 22.97 1065.77 23.29 1065.77H23.75C25.79 1065.77 27.47 1064.1 27.47 1062.05V1060.89C27.47 1058.85 25.8 1057.17 23.75 1057.17H21.19" stroke="#333333" stroke-miterlimit="10"/>
<path d="M20.9 1058.23V1055.35C20.9 1053.24 19.04 1051.51 16.77 1051.51H12.63C10.36 1051.5 8.5 1053.23 8.5 1055.34V1058.22C8.5 1060.33 10.36 1062.06 12.63 1062.06H12.94C13.3 1062.06 14.2 1063.72 14.67 1063.72C15.14 1063.72 15.98 1062.07 16.35 1062.07H16.77C19.04 1062.07 20.9 1060.33 20.9 1058.22V1058.23Z" stroke="black" stroke-miterlimit="10"/>
<path d="M14.75 1057.61C15.3188 1057.61 15.78 1057.15 15.78 1056.58C15.78 1056.01 15.3188 1055.55 14.75 1055.55C14.1811 1055.55 13.72 1056.01 13.72 1056.58C13.72 1057.15 14.1811 1057.61 14.75 1057.61Z" fill="white"/>
<path d="M11.07 1057.61C11.6388 1057.61 12.1 1057.15 12.1 1056.58C12.1 1056.01 11.6388 1055.55 11.07 1055.55C10.5011 1055.55 10.04 1056.01 10.04 1056.58C10.04 1057.15 10.5011 1057.61 11.07 1057.61Z" fill="white"/>
<path d="M18.43 1057.61C18.9989 1057.61 19.46 1057.15 19.46 1056.58C19.46 1056.01 18.9989 1055.55 18.43 1055.55C17.8612 1055.55 17.4 1056.01 17.4 1056.58C17.4 1057.15 17.8612 1057.61 18.43 1057.61Z" fill="white"/>
</g>
<g clip-path="url(#clip27_66_406)">
<path opacity="0.7" d="M11.65 1096.31C11.52 1095.5 11.56 1093.81 11.79 1093.07C9.26 1094.2 8 1096.89 8 1100.01C8 1103.6 11.27 1106.37 14.14 1106.82C16.62 1107.2 19.43 1107.2 20.46 1105.53C16.55 1105.02 12.2 1099.87 11.65 1096.32V1096.31Z" fill="#3FBB6A"/>
<path opacity="0.7" d="M25.34 1094.82C26.1685 1094.82 26.84 1094.15 26.84 1093.32C26.84 1092.49 26.1685 1091.82 25.34 1091.82C24.5116 1091.82 23.84 1092.49 23.84 1093.32C23.84 1094.15 24.5116 1094.82 25.34 1094.82Z" fill="#3FBB6A"/>
<path d="M18.22 1089C13.27 1089 9.25 1093.02 9.25 1097.96C9.25 1102.9 13.27 1106.92 18.21 1106.92C23.15 1106.92 27.17 1102.9 27.17 1097.96C27.17 1093.02 23.16 1089 18.22 1089ZM25.88 1097.12C25.88 1097.12 25.79 1097.14 25.75 1097.15C23.85 1097.86 21.68 1098.29 19.41 1098.4C19.39 1098.25 19.38 1098.1 19.38 1097.96C19.38 1096 20.93 1094.09 23.64 1092.78C23.7 1092.75 23.76 1092.71 23.8 1092.66C24.93 1093.85 25.69 1095.4 25.88 1097.13V1097.12ZM22.87 1091.82C19.86 1093.37 18.16 1095.6 18.16 1097.98C18.16 1098.13 18.16 1098.28 18.18 1098.43C17.65 1098.43 17.13 1098.41 16.62 1098.37C16.62 1098.23 16.62 1098.09 16.62 1097.95C16.62 1095.27 17.04 1092.68 17.87 1090.48C17.9 1090.41 17.91 1090.33 17.91 1090.26C18.02 1090.26 18.12 1090.24 18.23 1090.24C19.98 1090.24 21.59 1090.83 22.88 1091.82H22.87ZM16.61 1090.41C15.83 1092.68 15.39 1095.26 15.39 1097.95C15.39 1098.05 15.39 1098.16 15.39 1098.26C14.86 1098.2 14.34 1098.11 13.83 1098.02C13.83 1098 13.83 1097.98 13.83 1097.96C13.83 1096.47 13.15 1095.01 11.87 1093.76C11.85 1093.74 11.81 1093.72 11.79 1093.7C12.89 1092.05 14.6 1090.84 16.61 1090.42V1090.41ZM10.53 1098.38C11.16 1098.61 11.82 1098.81 12.5 1098.98C12.29 1099.73 11.85 1100.47 11.2 1101.15C10.81 1100.3 10.58 1099.36 10.52 1098.38H10.53ZM10.69 1097.16C10.69 1097.16 10.6 1097.13 10.56 1097.13C10.65 1096.3 10.88 1095.51 11.21 1094.78C12.09 1095.72 12.58 1096.74 12.64 1097.77C11.97 1097.6 11.31 1097.4 10.69 1097.17V1097.16ZM11.81 1102.23C11.81 1102.23 11.88 1102.19 11.91 1102.16C12.8 1101.27 13.4 1100.27 13.67 1099.23C14.25 1099.34 14.84 1099.43 15.44 1099.5C15.57 1101.63 15.95 1103.67 16.61 1105.5C14.61 1105.07 12.9 1103.87 11.81 1102.23ZM17.94 1105.66C17.94 1105.59 17.93 1105.51 17.9 1105.44C17.24 1103.69 16.83 1101.7 16.68 1099.61C17.19 1099.64 17.71 1099.66 18.23 1099.66C18.31 1099.66 18.39 1099.66 18.47 1099.66C19.07 1101.37 20.6 1102.94 22.84 1104.13C21.55 1105.09 19.96 1105.67 18.23 1105.67C18.13 1105.67 18.04 1105.66 17.94 1105.66ZM23.78 1103.3C23.78 1103.3 23.7 1103.23 23.65 1103.2C21.71 1102.22 20.37 1100.96 19.76 1099.61C21.95 1099.48 24.06 1099.06 25.92 1098.38C25.82 1100.28 25.03 1102 23.78 1103.3Z" fill="black"/>
</g>
<g clip-path="url(#clip28_66_406)">
<path opacity="0.7" d="M13.01 1147.06L17.26 1142.69C17.26 1142.69 17.47 1146.63 20.84 1146.87C21.9 1146.02 22.7 1144.84 23.06 1143.49C22.58 1143.38 22.14 1143.04 21.86 1142.62C21.49 1142.05 21.38 1141.35 21.33 1140.66C21.3 1140.27 21.29 1139.85 21.09 1139.51C20.91 1139.22 20.61 1139.03 20.34 1138.83C19.63 1138.31 19.04 1137.64 18.58 1136.88L10.89 1144.49C11.36 1145.52 12.1 1146.4 13.01 1147.05V1147.06Z" fill="#3FBB6A"/>
<path opacity="0.7" d="M24.16 1129.91L21.17 1131.52L21.03 1133.23L21.41 1134.94L23.4 1134.13L24.49 1133.09L25.62 1130.62L24.16 1129.91Z" fill="#3FBB6A"/>
<path d="M23.73 1134.79C24.13 1134.79 24.5 1134.57 24.68 1134.21L26.11 1131.3C26.3 1130.91 26.23 1130.43 25.93 1130.12L25.18 1129.33C24.84 1128.98 24.31 1128.91 23.89 1129.16L20.99 1130.89C20.68 1131.08 20.48 1131.42 20.48 1131.79V1133.09L18.62 1134.87C18.06 1134.26 17.58 1133.74 17.33 1133.46C17.53 1131.78 17.21 1130.55 16.38 1129.8C15.21 1128.72 13.45 1129.04 12.74 1129.22C12.49 1129.28 12.3 1129.48 12.24 1129.72C12.18 1129.97 12.25 1130.23 12.44 1130.4L13.6 1131.5C13.58 1131.8 13.45 1132.08 13.23 1132.29C13.03 1132.48 12.78 1132.6 12.51 1132.64L11.25 1131.42C11.06 1131.24 10.79 1131.18 10.54 1131.26C10.29 1131.35 10.11 1131.56 10.08 1131.82C9.95998 1132.65 9.82998 1134.72 11.09 1135.87C11.84 1136.56 12.93 1136.77 14.31 1136.49C14.35 1136.53 14.39 1136.57 14.44 1136.62C14.68 1136.88 14.99 1137.2 15.24 1137.45L10.77 1141.91C10.35 1142.33 10.09 1142.86 10.04 1143.41C9.97998 1143.99 10.17 1144.55 10.55 1144.94C10.89 1145.28 11.36 1145.46 11.86 1145.46C11.93 1145.46 12 1145.46 12.07 1145.45C12.62 1145.39 13.15 1145.13 13.57 1144.72L18.23 1140.06C18.41 1140.25 18.63 1140.5 18.84 1140.77C18.62 1142.53 18.94 1143.81 19.8 1144.57C20.44 1145.13 21.24 1145.29 21.95 1145.29C22.56 1145.29 23.1 1145.17 23.42 1145.08C23.66 1145.01 23.85 1144.82 23.91 1144.57C23.97 1144.32 23.89 1144.06 23.71 1143.89L22.59 1142.85C22.59 1142.55 22.72 1142.27 22.93 1142.06C23.12 1141.87 23.38 1141.76 23.65 1141.74C23.97 1142.06 24.5 1142.59 24.78 1142.84C24.96 1143 25.22 1143.06 25.46 1142.98C25.69 1142.9 25.87 1142.71 25.93 1142.47C26.34 1140.67 26.12 1139.36 25.28 1138.6C24.19 1137.61 22.47 1137.9 21.64 1138.12L20.33 1136.7L22.35 1134.77L23.73 1134.79ZM15.27 1135.82C15.11 1135.65 14.98 1135.52 14.94 1135.47C14.77 1135.3 14.53 1135.24 14.29 1135.29C13.18 1135.55 12.37 1135.46 11.87 1135C11.39 1134.56 11.2 1133.78 11.18 1133L11.84 1133.64C11.97 1133.76 12.14 1133.84 12.32 1133.84C12.97 1133.84 13.59 1133.6 14.06 1133.14C14.53 1132.68 14.78 1132.07 14.78 1131.41V1131.3C14.78 1131.11 14.7 1130.92 14.56 1130.79L13.96 1130.22C14.51 1130.19 15.16 1130.26 15.6 1130.66C16.16 1131.16 16.34 1132.11 16.14 1133.5C16.11 1133.7 16.17 1133.91 16.31 1134.06C16.48 1134.25 17.07 1134.9 17.78 1135.67L17.55 1135.89L17.17 1135.51L16.06 1136.62C15.82 1136.38 15.51 1136.05 15.28 1135.81L15.27 1135.82ZM12.74 1143.88C12.31 1144.31 11.69 1144.41 11.38 1144.1C11.2 1143.92 11.19 1143.66 11.21 1143.53C11.24 1143.26 11.38 1142.97 11.6 1142.75L17.17 1137.18L18.31 1138.32L12.74 1143.88ZM20.97 1139.14C21.15 1139.34 21.44 1139.42 21.7 1139.33C21.9 1139.27 23.67 1138.73 24.48 1139.47C24.92 1139.87 24.99 1140.61 24.92 1141.34C24.73 1141.15 24.54 1140.96 24.35 1140.77C24.23 1140.65 24.08 1140.58 23.91 1140.56C23.24 1140.51 22.58 1140.75 22.11 1141.22C21.63 1141.69 21.38 1142.34 21.42 1143.01V1143.11C21.44 1143.29 21.52 1143.46 21.65 1143.58L22.2 1144.09C21.67 1144.12 21.03 1144.06 20.59 1143.67C19.88 1143.04 19.9 1141.72 20.04 1140.73C20.07 1140.55 20.02 1140.36 19.91 1140.21C19.63 1139.83 19.31 1139.47 19.07 1139.22L19.98 1138.31L19.33 1137.66L19.48 1137.51L20.97 1139.14ZM21.57 1133.87L18.49 1136.82L18.38 1136.71L21.34 1133.87C21.55 1133.67 21.66 1133.4 21.66 1133.12V1131.84L24.4 1130.21L25.01 1130.85L23.66 1133.6L22.3 1133.58C22.02 1133.58 21.76 1133.68 21.56 1133.87H21.57Z" fill="black"/>
</g>
<g clip-path="url(#clip29_66_406)">
<path opacity="0.7" d="M21.9 21.87C21.9 25.18 18.62 32.65 15.77 27.17C12.92 21.69 8.90002 25.18 8.90002 21.87C8.90002 18.56 11.81 15.87 15.4 15.87C18.99 15.87 21.9 18.56 21.9 21.87Z" fill="#3FBB6A"/>
<path d="M17.72 25.33C17.3 25.33 16.95 24.99 16.92 24.57C16.82 22.55 15.22 20.97 13.26 20.97C11.76 20.97 10.34 20.57 9.26999 19.85C8.72999 19.48 8.29999 19.05 7.98999 18.57C7.65999 18.05 7.48999 17.49 7.48999 16.91C7.48999 15.76 7.75999 14.64 8.28999 13.6C8.79999 12.6 9.52999 11.7 10.46 10.93C12.35 9.36 14.85 8.5 17.5 8.5C20.15 8.5 22.65 9.36 24.53 10.93C25.45 11.7 26.18 12.6 26.7 13.6C27.23 14.65 27.5 15.76 27.5 16.91C27.5 18.06 27.24 19.14 26.72 20.18C26.22 21.17 25.51 22.06 24.61 22.83C22.78 24.39 20.34 25.27 17.74 25.32C17.74 25.32 17.73 25.32 17.72 25.32V25.33Z" stroke="black" stroke-miterlimit="10"/>
<path d="M19.98 22.28C19.54 22.28 19.1 22.11 18.76 21.78C18.42 21.45 18.26 21.02 18.26 20.56C18.26 20.1 18.44 19.67 18.76 19.34C19.43 18.67 20.52 18.67 21.19 19.34C21.86 20.01 21.86 21.1 21.19 21.77C20.86 22.11 20.42 22.28 19.97 22.28H19.98Z" stroke="black" stroke-miterlimit="10"/>
<path d="M21.61 13.56C21.61 14.37 22.26 15.02 23.07 15.02C23.88 15.02 24.53 14.37 24.53 13.56C24.53 12.75 23.88 12.1 23.07 12.1C22.26 12.1 21.61 12.75 21.61 13.56Z" fill="#3FBB6A" stroke="#3FBB6A" stroke-miterlimit="10"/>
<path d="M18.03 11.5C18.03 12.12 18.53 12.61 19.14 12.61C19.76 12.61 20.25 12.11 20.25 11.5C20.25 10.88 19.75 10.38 19.14 10.38C18.53 10.38 18.03 10.88 18.03 11.49V11.5Z" fill="black"/>
<path d="M14.84 10.61C14.45 10.61 14.13 10.93 14.13 11.32C14.13 11.71 14.45 12.03 14.84 12.03C15.23 12.03 15.55 11.71 15.55 11.32C15.55 10.93 15.23 10.61 14.84 10.61Z" fill="black"/>
</g>
<g clip-path="url(#clip30_66_406)">
<path opacity="0.7" d="M19.3 54.14C19.96 54.61 21.19 56.77 21.08 57.69C21.05 57.92 20.52 57.67 20.37 57.81C20.25 57.92 20.12 57.86 19.97 57.88C19.41 57.97 18.82 57.73 18.26 57.75C17.37 57.78 16.49 57.8 15.6 57.83C15.43 57.83 15.26 57.83 15.11 57.77C13.94 57.28 14.85 54.64 15.54 54.05C16.41 53.3 18.46 53.54 19.31 54.14H19.3Z" fill="#3FBB6A"/>
<path opacity="0.7" d="M24.57 63.7C25.3984 63.7 26.07 63.0284 26.07 62.2C26.07 61.3716 25.3984 60.7 24.57 60.7C23.7416 60.7 23.07 61.3716 23.07 62.2C23.07 63.0284 23.7416 63.7 24.57 63.7Z" fill="#3FBB6A"/>
<path d="M27.81 60.68C27.74 59.89 27.19 59.22 26.43 58.98C26.18 58.9 26 58.68 25.97 58.42C25.97 58.38 24.97 53.51 24.97 53.51C24.69 52.38 23.71 51.56 22.54 51.49H14.99C13.82 51.55 12.84 52.37 12.56 53.51C12.56 53.51 11.56 58.38 11.56 58.42C11.53 58.68 11.35 58.9 11.1 58.98C10.34 59.22 9.79003 59.89 9.72003 60.68L9.50003 63.65C9.42003 64.41 9.92003 65.11 10.66 65.29C10.94 65.36 11.15 65.61 11.16 65.9C11.15 66.45 11.59 66.91 12.14 66.92C12.69 66.93 13.15 66.49 13.16 65.94C13.19 65.6 13.46 65.34 13.8 65.34H23.74C24.08 65.34 24.36 65.61 24.38 65.94C24.39 66.49 24.85 66.93 25.4 66.92C25.95 66.91 26.39 66.45 26.38 65.9C26.39 65.61 26.59 65.36 26.88 65.29C27.62 65.11 28.12 64.41 28.04 63.65L27.81 60.69V60.68ZM25.16 62.9C24.7 63.38 23.93 63.39 23.45 62.93C23.44 62.93 23.43 62.91 23.42 62.9C22.94 62.4 22.94 61.62 23.42 61.12C23.88 60.64 24.65 60.63 25.13 61.09C25.14 61.09 25.15 61.11 25.16 61.12C25.64 61.62 25.64 62.4 25.16 62.9ZM23.44 57.84C23.32 57.98 23.15 58.05 22.97 58.04H14.78C14.6 58.04 14.42 57.97 14.3 57.83C14.19 57.69 14.14 57.5 14.18 57.33C14.18 57.32 14.18 57.3 14.18 57.29L14.82 54.42C14.91 53.96 15.31 53.61 15.79 53.59H21.94C22.41 53.61 22.81 53.95 22.9 54.42L23.54 57.29C23.54 57.29 23.54 57.32 23.54 57.33C23.57 57.51 23.53 57.7 23.41 57.84H23.44ZM14.25 62.88C13.74 63.4 12.91 63.42 12.38 62.91C12.37 62.9 12.36 62.89 12.35 62.88C11.83 62.34 11.83 61.48 12.35 60.94C12.86 60.42 13.69 60.4 14.22 60.91C14.23 60.92 14.24 60.93 14.25 60.94C14.77 61.48 14.77 62.34 14.25 62.88Z" stroke="black" stroke-miterlimit="10"/>
</g>
<g clip-path="url(#clip31_66_406)">
<path opacity="0.7" d="M21.84 1174.02C20.2 1173.54 18.37 1173.7 16.77 1174.62C14.94 1175.68 13.83 1177.49 13.58 1179.43L21.84 1174.02Z" fill="#3FBB6A"/>
<path opacity="0.7" d="M13.73 1181.89C13.87 1182.44 14.09 1182.98 14.38 1183.5C16.17 1186.61 20.15 1187.67 23.26 1185.88C26.32 1184.11 27.39 1180.23 25.71 1177.15L13.73 1181.89Z" fill="#3FBB6A"/>
<path d="M15.59 1180.91C15.59 1180.78 15.62 1180.66 15.63 1180.53C16.05 1180.31 16.47 1180.09 16.89 1179.86C16.84 1180.2 16.81 1180.55 16.79 1180.91H20.06C20.01 1179.95 19.86 1179.04 19.63 1178.32C19.82 1178.21 20.01 1178.1 20.2 1177.98C20.35 1177.89 20.48 1177.81 20.63 1177.72C20.99 1178.61 21.25 1179.7 21.33 1180.91H23.28C23.04 1179.47 22.17 1178.24 20.96 1177.52C21.37 1177.27 21.78 1177.02 22.19 1176.77C23.69 1177.91 24.67 1179.7 24.67 1181.72C24.67 1185.08 21.99 1187.81 18.65 1187.93C18.61 1187.93 18.57 1187.94 18.53 1187.94C18.52 1187.94 18.5 1187.94 18.49 1187.94C18.47 1187.94 18.45 1187.94 18.43 1187.94C15.15 1187.94 12.47 1185.42 12.21 1182.23C12.78 1181.97 13.72 1181.52 14.9 1180.92H15.6M23.33 1182.08H21.37C21.34 1183.69 21.03 1185.11 20.55 1186.14C22.1 1185.4 23.2 1183.88 23.33 1182.08ZM18.44 1186.62C19.41 1186.62 20.02 1184.34 20.08 1182.08H16.78C16.85 1184.34 17.47 1186.62 18.44 1186.62ZM16.5 1186.22C15.96 1185.18 15.61 1183.73 15.57 1182.08H13.55C13.69 1183.94 14.86 1185.52 16.5 1186.22Z" fill="#231815"/>
<path d="M19.61 1176.56C16.99 1178.14 14.54 1179.39 12.94 1180.18H10.38L7.5 1177.26L8.81 1176.81L11.22 1177.72L11.97 1178.09C12.59 1177.6 13.22 1177.12 13.86 1176.65L10.74 1171.64V1171.62C10.73 1171.43 10.74 1171.24 10.83 1171.06C11.09 1170.55 11.72 1170.35 12.23 1170.61L17.82 1173.4C17.96 1173.47 18.07 1173.58 18.16 1173.69C21.4 1171.66 24.58 1170.24 25.36 1171.85C25.78 1172.73 24.54 1173.59 19.61 1176.55" stroke="#231815" stroke-linecap="round" stroke-linejoin="round"/>
</g>
<defs>
<clipPath id="clip0_66_406">
<rect width="18.92" height="16.94" fill="white" transform="translate(10 130)"/>
</clipPath>
<clipPath id="clip1_66_406">
<rect width="24.45" height="16.84" fill="white" transform="translate(6 211)"/>
</clipPath>
<clipPath id="clip2_66_406">
<rect width="19.32" height="15.13" fill="white" transform="translate(9 251)"/>
</clipPath>
<clipPath id="clip3_66_406">
<rect width="18.78" height="15.97" fill="white" transform="translate(9 291)"/>
</clipPath>
<clipPath id="clip4_66_406">
<rect width="18.13" height="18.13" fill="white" transform="translate(10 329)"/>
</clipPath>
<clipPath id="clip5_66_406">
<rect width="17.04" height="19.94" fill="white" transform="translate(10 368)"/>
</clipPath>
<clipPath id="clip6_66_406">
<rect width="18.38" height="18.24" fill="white" transform="translate(8 410)"/>
</clipPath>
<clipPath id="clip7_66_406">
<rect width="18.15" height="17.34" fill="white" transform="translate(9 530)"/>
</clipPath>
<clipPath id="clip8_66_406">
<rect width="18.81" height="19.4" fill="white" transform="translate(9 569)"/>
</clipPath>
<clipPath id="clip9_66_406">
<rect width="18.73" height="18.81" fill="white" transform="translate(9 609)"/>
</clipPath>
<clipPath id="clip10_66_406">
<rect width="19.03" height="18.7" fill="white" transform="translate(8 689)"/>
</clipPath>
<clipPath id="clip11_66_406">
<rect width="17.41" height="17.41" fill="white" transform="translate(9.5 729)"/>
</clipPath>
<clipPath id="clip12_66_406">
<rect width="17.58" height="17.53" fill="white" transform="translate(9 770)"/>
</clipPath>
<clipPath id="clip13_66_406">
<rect width="17.07" height="17.08" fill="white" transform="translate(10 810)"/>
</clipPath>
<clipPath id="clip14_66_406">
<rect width="13.53" height="19.56" fill="white" transform="translate(11 849)"/>
</clipPath>
<clipPath id="clip15_66_406">
<rect width="16.8" height="19.78" fill="white" transform="translate(10 889)"/>
</clipPath>
<clipPath id="clip16_66_406">
<rect width="22.36" height="18.71" fill="white" transform="translate(8 930)"/>
</clipPath>
<clipPath id="clip17_66_406">
<rect width="19.67" height="19.67" fill="white" transform="translate(10 970)"/>
</clipPath>
<clipPath id="clip18_66_406">
<rect width="18.74" height="18.27" fill="white" transform="translate(8 1010)"/>
</clipPath>
<clipPath id="clip19_66_406">
<rect width="17.72" height="17.59" fill="white" transform="translate(8 1210)"/>
</clipPath>
<clipPath id="clip20_66_406">
<rect width="18.94" height="15.86" fill="white" transform="translate(8 1250)"/>
</clipPath>
<clipPath id="clip21_66_406">
<rect width="18.85" height="15.16" fill="white" transform="translate(8 91)"/>
</clipPath>
<clipPath id="clip22_66_406">
<rect width="19.71" height="16.69" fill="white" transform="translate(8 171)"/>
</clipPath>
<clipPath id="clip23_66_406">
<rect width="18.27" height="17.75" fill="white" transform="translate(8 450)"/>
</clipPath>
<clipPath id="clip24_66_406">
<rect width="17.33" height="18.52" fill="white" transform="translate(9 491)"/>
</clipPath>
<clipPath id="clip25_66_406">
<rect width="19.36" height="17.06" fill="white" transform="translate(8 650)"/>
</clipPath>
<clipPath id="clip26_66_406">
<rect width="19.98" height="16.67" fill="white" transform="translate(8 1051)"/>
</clipPath>
<clipPath id="clip27_66_406">
<rect width="19.18" height="18.02" fill="white" transform="translate(8 1089)"/>
</clipPath>
<clipPath id="clip28_66_406">
<rect width="16.22" height="18.06" fill="white" transform="translate(10 1129)"/>
</clipPath>
<clipPath id="clip29_66_406">
<rect width="21" height="21.12" fill="white" transform="translate(7 8)"/>
</clipPath>
<clipPath id="clip30_66_406">
<rect width="19.55" height="16.42" fill="white" transform="translate(9 51)"/>
</clipPath>
<clipPath id="clip31_66_406">
<rect width="19.51" height="17.94" fill="white" transform="translate(7 1170)"/>
</clipPath>
</defs>
</svg>
