<svg width="230" height="50" viewBox="0 0 230 50" fill="none" xmlns="http://www.w3.org/2000/svg">
<g clip-path="url(#clip0_43_2)">
<g clip-path="url(#clip1_43_2)">
<path d="M50 25C50 11.1929 38.8071 0 25 0C11.1929 0 0 11.1929 0 25C0 38.8071 11.1929 50 25 50C38.8071 50 50 38.8071 50 25Z" fill="black"/>
<path fill-rule="evenodd" clip-rule="evenodd" d="M10.9375 12.2396H19.7917L26.0417 20.4427L33.0729 12.2396H37.5L27.9948 23.0469L39.0625 37.7604H30.4687L23.6979 28.9062L15.8854 37.7604H11.4583L21.6146 26.1719L10.9375 12.2396ZM16.1458 14.8437H18.6198L33.9844 35.1562H31.6406L16.1458 14.8437Z" fill="white"/>
</g>
<g clip-path="url(#clip2_43_2)">
<path d="M83.7386 49.9744C78.2083 49.5002 74.1028 48.0353 70.137 45.1211C63.7031 40.3934 60 33.039 60 24.9891C60 12.593 68.7556 2.33199 81.062 0.305984C86.0854 -0.521026 91.6486 0.347038 96.302 2.68401C107.616 8.36575 112.786 21.4682 108.504 33.6033C105.564 41.9347 97.8461 48.2848 89.0116 49.6408C87.2736 49.9075 84.7907 50.0646 83.7386 49.9744Z" fill="#3B5998"/>
<path fill-rule="evenodd" clip-rule="evenodd" d="M81.4421 37.5H85.9907V25.0061H89.403L90.0779 21.1022H85.9907V18.2733C85.9907 17.3614 86.5804 16.4039 87.4231 16.4039H89.746V12.5H86.8992V12.5175C82.4449 12.6792 81.5298 15.2589 81.4504 17.9686H81.4421V21.1022H79.1667V25.0061H81.4421V37.5Z" fill="white"/>
</g>
<g clip-path="url(#clip3_43_2)">
<path d="M145 50C158.807 50 170 38.8071 170 25C170 11.1929 158.807 0 145 0C131.193 0 120 11.1929 120 25C120 38.8071 131.193 50 145 50Z" fill="#25D366"/>
<path fill-rule="evenodd" clip-rule="evenodd" d="M153.146 16.1261C150.876 13.7889 147.85 12.5 144.631 12.5C138.002 12.5 132.596 18.0524 132.596 24.8937C132.596 27.0751 133.146 29.2139 134.206 31.0836L132.5 37.5L138.882 35.7719C140.643 36.7634 142.623 37.2733 144.631 37.2733C151.261 37.2733 156.667 31.721 156.667 24.8796C156.667 21.5793 155.415 18.4632 153.146 16.1261ZM144.631 35.1912C142.83 35.1912 141.069 34.6955 139.542 33.7606L139.171 33.534L135.388 34.5538L136.392 30.7578L136.159 30.3612C135.155 28.7182 134.632 26.8201 134.632 24.8796C134.632 19.1997 139.13 14.5822 144.645 14.5822C147.314 14.5822 149.831 15.6587 151.715 17.5992C153.599 19.5397 154.645 22.1317 154.645 24.8796C154.631 30.5737 150.147 35.1912 144.631 35.1912ZM150.119 27.4717C149.817 27.3158 148.345 26.5652 148.07 26.466C147.795 26.3668 147.589 26.3102 147.396 26.6218C147.19 26.9334 146.626 27.6275 146.447 27.8399C146.268 28.0524 146.103 28.0666 145.801 27.9108C145.498 27.755 144.535 27.4292 143.38 26.381C142.486 25.5595 141.881 24.5397 141.702 24.2422C141.523 23.9306 141.688 23.7606 141.839 23.6048C141.977 23.4632 142.142 23.2366 142.293 23.0666C142.445 22.8824 142.499 22.7549 142.596 22.5567C142.692 22.3442 142.651 22.1742 142.568 22.0184C142.5 21.8626 141.894 20.3328 141.647 19.7238C141.399 19.1147 141.152 19.1997 140.973 19.1856C140.794 19.1714 140.601 19.1714 140.395 19.1714C140.189 19.1714 139.872 19.2422 139.597 19.5538C139.322 19.8654 138.538 20.6162 138.538 22.1317C138.538 23.6615 139.611 25.1204 139.762 25.3328C139.914 25.5453 141.881 28.6615 144.893 30.0071C145.608 30.3328 146.172 30.517 146.612 30.6587C147.327 30.8994 147.988 30.8569 148.51 30.7861C149.088 30.7012 150.285 30.0354 150.546 29.313C150.794 28.5907 150.794 27.9674 150.725 27.8399C150.628 27.7125 150.422 27.6275 150.119 27.4717Z" fill="white"/>
</g>
<g clip-path="url(#clip4_43_2)">
<path d="M203.739 49.9744C198.208 49.5002 194.103 48.0353 190.137 45.1211C183.703 40.3934 180 33.039 180 24.9891C180 12.593 188.756 2.33199 201.062 0.305984C206.085 -0.521026 211.649 0.347038 216.302 2.68401C227.616 8.36575 232.786 21.4682 228.504 33.6033C225.564 41.9347 217.846 48.2848 209.012 49.6408C207.274 49.9075 204.791 50.0646 203.739 49.9744Z" fill="#888888"/>
<path d="M213.776 15.9673H195.443C193.993 15.9673 192.955 16.9986 192.943 18.4673V31.8007C192.943 33.2694 193.993 34.3007 195.443 34.3007H213.776C215.226 34.3007 216.276 33.2694 216.276 31.8007V18.4673C216.276 16.9986 215.226 15.9673 213.776 15.9673ZM213.776 20.9673L204.61 26.8007L195.443 20.9673V18.4673L204.61 24.3007L213.776 18.4673V20.9673Z" fill="white"/>
</g>
</g>
<defs>
<clipPath id="clip0_43_2">
<rect width="230" height="50" fill="white"/>
</clipPath>
<clipPath id="clip1_43_2">
<rect width="50" height="50" fill="white"/>
</clipPath>
<clipPath id="clip2_43_2">
<rect width="50" height="50" fill="white" transform="translate(60)"/>
</clipPath>
<clipPath id="clip3_43_2">
<rect width="50" height="50" fill="white" transform="translate(120)"/>
</clipPath>
<clipPath id="clip4_43_2">
<rect width="50" height="50" fill="white" transform="translate(180)"/>
</clipPath>
</defs>
</svg>
