<svg width="180" height="232" viewBox="0 0 180 232" fill="none" xmlns="http://www.w3.org/2000/svg">
<path d="M61.25 34.5023V37.5C61.25 38.6046 62.1454 39.5 63.25 39.5H69.75C70.8546 39.5 71.75 38.6046 71.75 37.5V34.5" stroke="#888888" stroke-linecap="round" stroke-linejoin="round"/>
<path d="M69.125 34.2083L66.5 36.8333L63.875 34.2083" stroke="#888888" stroke-linecap="round" stroke-linejoin="round"/>
<path d="M66.4976 29.25V36.25" stroke="#888888" stroke-linecap="round" stroke-linejoin="round"/>
<path d="M10 2L6 6L2 2" stroke="#333333" stroke-width="2" stroke-linecap="round" stroke-linejoin="round"/>
<path d="M18 2L22 6L26 2" stroke="#3FBC6A" stroke-width="2" stroke-linecap="round" stroke-linejoin="round"/>
<circle cx="9" cy="56" r="5.5" stroke="#888888"/>
<line x1="12.6592" y1="60.4264" x2="18.1074" y2="66.9315" stroke="#888888"/>
<path fill-rule="evenodd" clip-rule="evenodd" d="M34 65.5C38.1421 65.5 41.5 62.1421 41.5 58C41.5 53.8579 38.1421 50.5 34 50.5C29.8579 50.5 26.5 53.8579 26.5 58C26.5 62.1421 29.8579 65.5 34 65.5Z" stroke="#888888" stroke-linecap="round" stroke-linejoin="round"/>
<path d="M26.5 58H41.5" stroke="#888888" stroke-linecap="round" stroke-linejoin="round"/>
<path fill-rule="evenodd" clip-rule="evenodd" d="M34 65.5C35.6569 65.5 37 62.1421 37 58C37 53.8579 35.6569 50.5 34 50.5C32.3431 50.5 31 53.8579 31 58C31 62.1421 32.3431 65.5 34 65.5Z" stroke="#888888" stroke-linecap="round" stroke-linejoin="round"/>
<path d="M28.6967 52.8033C30.054 54.1605 31.929 55 34 55C36.0711 55 37.9461 54.1605 39.3033 52.8033" stroke="#888888" stroke-linecap="round" stroke-linejoin="round"/>
<path d="M39.3033 63.1967C37.9461 61.8395 36.0711 61 34 61C31.929 61 30.054 61.8395 28.6967 63.1967" stroke="#888888" stroke-linecap="round" stroke-linejoin="round"/>
<path d="M38.3333 4L42.3333 8L38.3333 12" stroke="#333333" stroke-linecap="round" stroke-linejoin="round"/>
<path d="M58.3333 4L62.3333 8L58.3333 12" stroke="#3FBC6A" stroke-linecap="round" stroke-linejoin="round"/>
<path fill-rule="evenodd" clip-rule="evenodd" d="M94 12C94 17.5228 89.5228 22 84 22C78.4772 22 74 17.5228 74 12C74 6.47715 78.4772 2 84 2C89.5228 2 94 6.47715 94 12ZM84.0378 8.45605C84.6908 8.45605 85.22 7.92677 85.22 7.27393C85.22 6.62092 84.6908 6.09174 84.0378 6.09174C83.3848 6.09174 82.8556 6.62092 82.8556 7.27393C82.8556 7.92677 83.3848 8.45605 84.0378 8.45605ZM84.0378 18.1853C84.6147 18.1853 85.0823 17.7176 85.0823 17.1407V10.5168C85.0823 9.94006 84.6147 9.47238 84.0378 9.47238C83.4609 9.47238 82.9933 9.94006 82.9933 10.5168V17.1407C82.9933 17.7176 83.4609 18.1853 84.0378 18.1853Z" fill="#999999"/>
<path fill-rule="evenodd" clip-rule="evenodd" d="M122 12C122 17.5228 117.523 22 112 22C106.477 22 102 17.5228 102 12C102 6.47715 106.477 2 112 2C117.523 2 122 6.47715 122 12ZM112.038 8.45605C112.691 8.45605 113.22 7.92677 113.22 7.27393C113.22 6.62092 112.691 6.09174 112.038 6.09174C111.385 6.09174 110.856 6.62092 110.856 7.27393C110.856 7.92677 111.385 8.45605 112.038 8.45605ZM112.038 18.1853C112.615 18.1853 113.082 17.7176 113.082 17.1407V10.5168C113.082 9.94006 112.615 9.47238 112.038 9.47238C111.461 9.47238 110.993 9.94006 110.993 10.5168V17.1407C110.993 17.7176 111.461 18.1853 112.038 18.1853Z" fill="#FFC806"/>
<path d="M140 17L133 11H147L140 17Z" fill="#888888"/>
<path d="M136.5 5.5C136.5 4.94772 136.948 4.5 137.5 4.5H142.5C143.052 4.5 143.5 4.94772 143.5 5.5V11.5C143.5 12.0523 143.052 12.5 142.5 12.5H137.5C136.948 12.5 136.5 12.0523 136.5 11.5V5.5Z" fill="#888888"/>
<rect x="132" y="18" width="16" height="2" rx="1" fill="#888888"/>
<path d="M168 17L161 11H175L168 17Z" fill="#3FBC6A"/>
<path d="M164.5 5.5C164.5 4.94772 164.948 4.5 165.5 4.5H170.5C171.052 4.5 171.5 4.94772 171.5 5.5V11.5C171.5 12.0523 171.052 12.5 170.5 12.5H165.5C164.948 12.5 164.5 12.0523 164.5 11.5V5.5Z" fill="#3FBC6A"/>
<rect x="160" y="18" width="16" height="2" rx="1" fill="#3FBC6A"/>
<g clip-path="url(#clip0_1_2)">
<path d="M26.4996 28.8L28.4785 32.3362L32.5 33.0983L29.7005 36.0456L30.2091 40.0521L26.5004 38.338L22.7917 40.0521L23.3003 36.0448L20.5 33.0983L24.5223 32.3354L26.4996 28.8Z" fill="#999999"/>
</g>
<g clip-path="url(#clip1_1_2)">
<path d="M46.4996 28.8L48.4785 32.3362L52.5 33.0983L49.7005 36.0456L50.2091 40.0521L46.5004 38.338L42.7917 40.0521L43.3003 36.0448L40.5 33.0983L44.5223 32.3354L46.4996 28.8Z" fill="#FF722C"/>
</g>
<path d="M7.99962 146L9.9785 149.536L14 150.298L11.2005 153.246L11.7091 157.252L8.00038 155.538L4.29168 157.252L4.80028 153.245L2 150.298L6.02226 149.535L7.99962 146Z" fill="#3FBC6A"/>
<path d="M23.9996 146L25.9785 149.536L30 150.298L27.2005 153.246L27.7091 157.252L24.0004 155.538L20.2917 157.252L20.8003 153.245L18 150.298L22.0223 149.535L23.9996 146Z" fill="#3FBC6A"/>
<path d="M39.9996 146L41.9785 149.536L46 150.298L43.2005 153.246L43.7091 157.252L40.0004 155.538L36.2917 157.252L36.8003 153.245L34 150.298L38.0223 149.535L39.9996 146Z" fill="#3FBC6A"/>
<path d="M55.9996 146L57.9785 149.536L62 150.298L59.2005 153.246L59.7091 157.252L56.0004 155.538L52.2917 157.252L52.8003 153.245L50 150.298L54.0223 149.535L55.9996 146Z" fill="#3FBC6A"/>
<path d="M71.9996 146L73.9785 149.536L78 150.298L75.2005 153.246L75.7091 157.252L72.0004 155.538L68.2917 157.252L68.8003 153.245L66 150.298L70.0223 149.535L71.9996 146Z" fill="#3FBC6A"/>
<path d="M7.99981 167.639L9.28038 169.927L9.46271 170.253L9.82954 170.322L12.4095 170.811L10.6204 172.695L10.359 172.97L10.4068 173.346L10.7335 175.92L8.33601 174.812L8.00038 174.657L7.66475 174.812L5.26718 175.92L5.59391 173.346L5.64172 172.969L5.38018 172.694L3.59075 170.811L6.17133 170.321L6.5382 170.252L6.72047 169.926L7.99981 167.639Z" stroke="#3FBC6A" stroke-width="1.6"/>
<path d="M23.9998 167.639L25.2804 169.927L25.4627 170.253L25.8295 170.322L28.4095 170.811L26.6204 172.695L26.359 172.97L26.4068 173.346L26.7335 175.92L24.336 174.812L24.0004 174.657L23.6648 174.812L21.2672 175.92L21.5939 173.346L21.6417 172.969L21.3802 172.694L19.5907 170.811L22.1713 170.321L22.5382 170.252L22.7205 169.926L23.9998 167.639Z" stroke="#3FBC6A" stroke-width="1.6"/>
<path d="M39.9998 167.639L41.2804 169.927L41.4627 170.253L41.8295 170.322L44.4095 170.811L42.6204 172.695L42.359 172.97L42.4068 173.346L42.7335 175.92L40.336 174.812L40.0004 174.657L39.6648 174.812L37.2672 175.92L37.5939 173.346L37.6417 172.969L37.3802 172.694L35.5907 170.811L38.1713 170.321L38.5382 170.252L38.7205 169.926L39.9998 167.639Z" stroke="#3FBC6A" stroke-width="1.6"/>
<path d="M55.9998 167.639L57.2804 169.927L57.4627 170.253L57.8295 170.322L60.4095 170.811L58.6204 172.695L58.359 172.97L58.4068 173.346L58.7335 175.92L56.336 174.812L56.0004 174.657L55.6648 174.812L53.2672 175.92L53.5939 173.346L53.6417 172.969L53.3802 172.694L51.5907 170.811L54.1713 170.321L54.5382 170.252L54.7205 169.926L55.9998 167.639Z" stroke="#3FBC6A" stroke-width="1.6"/>
<path d="M71.9998 167.639L73.2804 169.927L73.4627 170.253L73.8295 170.322L76.4095 170.811L74.6204 172.695L74.359 172.97L74.4068 173.346L74.7335 175.92L72.336 174.812L72.0004 174.657L71.6648 174.812L69.2672 175.92L69.5939 173.346L69.6417 172.969L69.3802 172.694L67.5907 170.811L70.1713 170.321L70.5382 170.252L70.7205 169.926L71.9998 167.639Z" stroke="#3FBC6A" stroke-width="1.6"/>
<path d="M6.99962 109L8.9785 112.536L13 113.298L10.2005 116.246L10.7091 120.252L7.00038 118.538L3.29168 120.252L3.80028 116.245L1 113.298L5.02226 112.535L6.99962 109Z" fill="#CCCCCC"/>
<path d="M20.9996 109L22.9785 112.536L27 113.298L24.2005 116.246L24.7091 120.252L21.0004 118.538L17.2917 120.252L17.8003 116.245L15 113.298L19.0223 112.535L20.9996 109Z" fill="#CCCCCC"/>
<path d="M34.9996 109L36.9785 112.536L41 113.298L38.2005 116.246L38.7091 120.252L35.0004 118.538L31.2917 120.252L31.8003 116.245L29 113.298L33.0223 112.535L34.9996 109Z" fill="#CCCCCC"/>
<path d="M48.9996 109L50.9785 112.536L55 113.298L52.2005 116.246L52.7091 120.252L49.0004 118.538L45.2917 120.252L45.8003 116.245L43 113.298L47.0223 112.535L48.9996 109Z" fill="#CCCCCC"/>
<path d="M62.9996 109L64.9785 112.536L69 113.298L66.2005 116.246L66.7091 120.252L63.0004 118.538L59.2917 120.252L59.8003 116.245L57 113.298L61.0223 112.535L62.9996 109Z" fill="#CCCCCC"/>
<path d="M6.99962 125L8.9785 128.536L13 129.298L10.2005 132.246L10.7091 136.252L7.00038 134.538L3.29168 136.252L3.80028 132.245L1 129.298L5.02226 128.535L6.99962 125Z" fill="#FF722C"/>
<path d="M20.9996 125L22.9785 128.536L27 129.298L24.2005 132.246L24.7091 136.252L21.0004 134.538L17.2917 136.252L17.8003 132.245L15 129.298L19.0223 128.535L20.9996 125Z" fill="#FF722C"/>
<path d="M34.9996 125L36.9785 128.536L41 129.298L38.2005 132.246L38.7091 136.252L35.0004 134.538L31.2917 136.252L31.8003 132.245L29 129.298L33.0223 128.535L34.9996 125Z" fill="#FF722C"/>
<path d="M48.9996 125L50.9785 128.536L55 129.298L52.2005 132.246L52.7091 136.252L49.0004 134.538L45.2917 136.252L45.8003 132.245L43 129.298L47.0223 128.535L48.9996 125Z" fill="#FF722C"/>
<path d="M62.9996 125L64.9785 128.536L69 129.298L66.2005 132.246L66.7091 136.252L63.0004 134.538L59.2917 136.252L59.8003 132.245L57 129.298L61.0223 128.535L62.9996 125Z" fill="#FF722C"/>
<path d="M95.2277 51.51C95.034 51.3657 94.7917 51.4137 94.6467 51.51C94.5013 51.654 94.4043 51.8943 94.5013 52.0863C94.598 52.2787 94.6467 52.5187 94.6947 52.759C93.387 49.7323 91.2073 49.0593 91.1107 49.0113C90.9653 48.9633 90.7717 49.0113 90.6747 49.1077C90.5293 49.2037 90.481 49.3957 90.5293 49.54C90.723 50.8373 90.1417 52.3747 88.7857 54.2003C88.6887 53.816 88.5433 53.4317 88.3013 52.9993C88.156 52.855 87.962 52.759 87.7683 52.807C87.5263 52.855 87.381 52.9993 87.381 53.2393C87.3323 53.96 86.9933 54.6327 86.606 55.3533C86.2667 55.978 85.9277 56.6507 85.7827 57.3713C85.298 59.6773 86.3153 61.359 89.173 62.8963C89.2697 62.9447 89.3183 62.9447 89.4153 62.9447C89.5607 62.9447 89.706 62.8483 89.8027 62.7523C89.948 62.5123 89.8993 62.224 89.6573 62.0797L89.609 62.0317C86.7513 60.4467 86.3633 59.149 86.7027 57.5633C86.848 56.939 87.1387 56.4103 87.4293 55.786C87.623 55.4977 87.7683 55.2093 87.8653 54.921C87.8653 55.065 87.9137 55.2573 87.9137 55.4013C87.9137 55.5937 88.059 55.786 88.2527 55.834C88.4467 55.882 88.6403 55.834 88.7857 55.6897C90.481 53.6717 91.4013 51.8463 91.498 50.2127C92.273 50.693 93.581 51.846 94.259 54.2963C94.3073 54.4407 94.4043 54.5847 94.598 54.633C94.7433 54.6807 94.937 54.633 95.034 54.5367C95.4213 54.2003 95.6153 53.72 95.6637 53.2393C96.487 54.2483 97.4073 55.882 97.3103 57.5633C97.2137 58.9567 96.4387 60.158 95.034 61.215C95.5667 58.7167 94.5497 55.834 92.3213 54.3443C92.176 54.2483 91.9823 54.2483 91.837 54.2963C91.6917 54.3923 91.595 54.5367 91.595 54.7287C91.5467 56.074 90.8683 56.891 90.2387 57.7077C89.706 58.3803 89.173 59.053 89.0763 59.9657C89.0763 60.2057 89.2697 60.4463 89.512 60.4943C89.8027 60.5423 89.9963 60.302 90.045 60.062C90.0933 59.4373 90.5293 58.9087 90.965 58.332C91.4983 57.6597 92.1277 56.8427 92.4183 55.6897C94.162 57.323 94.7433 60.206 93.6777 62.224V62.272C93.6777 62.32 93.6777 62.32 93.6293 62.368V62.5603C93.6293 62.6083 93.6293 62.6083 93.6777 62.6563V62.7043L93.7263 62.7523C93.7263 62.8003 93.7747 62.8003 93.7747 62.8483C93.7747 62.8483 93.823 62.8963 93.8713 62.8963L93.92 62.9447C93.92 62.9447 93.9683 62.9447 93.9683 62.9927H94.259C94.3073 62.9927 94.3557 62.9927 94.4043 62.9447C96.8743 61.5993 98.231 59.8213 98.3277 57.7557C98.473 54.5367 95.7607 51.846 95.2277 51.5097V51.51Z" fill="white"/>
<path d="M95.2277 31.51C95.034 31.3657 94.7917 31.4137 94.6467 31.51C94.5013 31.654 94.4043 31.8943 94.5013 32.0863C94.598 32.2787 94.6467 32.5187 94.6947 32.759C93.387 29.7323 91.2073 29.0593 91.1107 29.0113C90.9653 28.9633 90.7717 29.0113 90.6747 29.1077C90.5293 29.2037 90.481 29.3957 90.5293 29.54C90.723 30.8373 90.1417 32.3747 88.7857 34.2003C88.6887 33.816 88.5433 33.4317 88.3013 32.9993C88.156 32.855 87.962 32.759 87.7683 32.807C87.5263 32.855 87.381 32.9993 87.381 33.2393C87.3323 33.96 86.9933 34.6327 86.606 35.3533C86.2667 35.978 85.9277 36.6507 85.7827 37.3713C85.298 39.6773 86.3153 41.359 89.173 42.8963C89.2697 42.9447 89.3183 42.9447 89.4153 42.9447C89.5607 42.9447 89.706 42.8483 89.8027 42.7523C89.948 42.5123 89.8993 42.224 89.6573 42.0797L89.609 42.0317C86.7513 40.4467 86.3633 39.149 86.7027 37.5633C86.848 36.939 87.1387 36.4103 87.4293 35.786C87.623 35.4977 87.7683 35.2093 87.8653 34.921C87.8653 35.065 87.9137 35.2573 87.9137 35.4013C87.9137 35.5937 88.059 35.786 88.2527 35.834C88.4467 35.882 88.6403 35.834 88.7857 35.6897C90.481 33.6717 91.4013 31.8463 91.498 30.2127C92.273 30.693 93.581 31.846 94.259 34.2963C94.3073 34.4407 94.4043 34.5847 94.598 34.633C94.7433 34.6807 94.937 34.633 95.034 34.5367C95.4213 34.2003 95.6153 33.72 95.6637 33.2393C96.487 34.2483 97.4073 35.882 97.3103 37.5633C97.2137 38.9567 96.4387 40.158 95.034 41.215C95.5667 38.7167 94.5497 35.834 92.3213 34.3443C92.176 34.2483 91.9823 34.2483 91.837 34.2963C91.6917 34.3923 91.595 34.5367 91.595 34.7287C91.5467 36.074 90.8683 36.891 90.2387 37.7077C89.706 38.3803 89.173 39.053 89.0763 39.9657C89.0763 40.2057 89.2697 40.4463 89.512 40.4943C89.8027 40.5423 89.9963 40.302 90.045 40.062C90.0933 39.4373 90.5293 38.9087 90.965 38.332C91.4983 37.6597 92.1277 36.8427 92.4183 35.6897C94.162 37.323 94.7433 40.206 93.6777 42.224V42.272C93.6777 42.32 93.6777 42.32 93.6293 42.368V42.5603C93.6293 42.6083 93.6293 42.6083 93.6777 42.6563V42.7043L93.7263 42.7523C93.7263 42.8003 93.7747 42.8003 93.7747 42.8483C93.7747 42.8483 93.823 42.8963 93.8713 42.8963L93.92 42.9447C93.92 42.9447 93.9683 42.9447 93.9683 42.9927H94.259C94.3073 42.9927 94.3557 42.9927 94.4043 42.9447C96.8743 41.5993 98.231 39.8213 98.3277 37.7557C98.473 34.5367 95.7607 31.846 95.2277 31.5097V31.51Z" fill="#888888"/>
<path d="M107.139 31.75C109.667 28.8611 114.028 28.6945 116.75 31.25V29.7778C116.75 29.4722 117 29.2222 117.306 29.2222C117.611 29.2222 117.861 29.4722 117.861 29.7778V32.5556C117.861 32.8611 117.611 33.1111 117.306 33.1111H114.528C114.222 33.1111 113.972 32.8611 113.972 32.5556C113.972 32.25 114.222 32 114.528 32H115.917C113.722 30 110.333 30.0833 108.222 32.2222C106.194 34.2778 106.111 37.6667 108.056 39.8333C110.194 42.2222 113.889 42.3056 116.111 40.0556C116.694 39.4722 117.139 38.75 117.417 38C117.5 37.7778 117.694 37.6389 117.944 37.6389C118.333 37.6389 118.611 38.0278 118.472 38.3889C118.139 39.2778 117.639 40.1111 116.917 40.8333C114.222 43.5278 109.75 43.4445 107.194 40.5278C104.972 38.0278 104.972 34.25 107.139 31.75Z" fill="#888888"/>
<path d="M114.611 38.2778L112 36.7778V33.25C112 32.9445 111.75 32.6945 111.444 32.6945C111.139 32.6945 110.889 32.9445 110.889 33.25V37.0833C110.889 37.2778 111 37.4722 111.167 37.5556L114.056 39.2222C114.333 39.3889 114.667 39.2778 114.806 39.0278C114.972 38.75 114.861 38.4167 114.611 38.2778Z" fill="#888888"/>
<path d="M107.139 51.75C109.667 48.8611 114.028 48.6945 116.75 51.25V49.7778C116.75 49.4722 117 49.2222 117.306 49.2222C117.611 49.2222 117.861 49.4722 117.861 49.7778V52.5556C117.861 52.8611 117.611 53.1111 117.306 53.1111H114.528C114.222 53.1111 113.972 52.8611 113.972 52.5556C113.972 52.25 114.222 52 114.528 52H115.917C113.722 50 110.333 50.0833 108.222 52.2222C106.194 54.2778 106.111 57.6667 108.056 59.8333C110.194 62.2222 113.889 62.3056 116.111 60.0556C116.694 59.4722 117.139 58.75 117.417 58C117.5 57.7778 117.694 57.6389 117.944 57.6389C118.333 57.6389 118.611 58.0278 118.472 58.3889C118.139 59.2778 117.639 60.1111 116.917 60.8333C114.222 63.5278 109.75 63.4445 107.194 60.5278C104.972 58.0278 104.972 54.25 107.139 51.75Z" fill="white"/>
<path d="M114.611 58.2778L112 56.7778V53.25C112 52.9445 111.75 52.6945 111.444 52.6945C111.139 52.6945 110.889 52.9445 110.889 53.25V57.0833C110.889 57.2778 111 57.4722 111.167 57.5556L114.056 59.2222C114.333 59.3889 114.667 59.2778 114.806 59.0278C114.972 58.75 114.861 58.4167 114.611 58.2778Z" fill="white"/>
<path d="M131.55 40.3484L137.459 34.4375C137.486 34.4109 137.498 34.375 137.495 34.3391L137.097 29.6297C137.086 29.5078 136.991 29.4125 136.869 29.4016L132.159 29.0047C132.123 29.0016 132.086 29.0141 132.061 29.0406L126.152 34.95C126.103 34.9984 126.103 35.0781 126.152 35.1266L131.373 40.3484C131.422 40.3984 131.502 40.3984 131.55 40.3484ZM132.528 30.1656L136.038 30.4625L136.334 33.9719L131.461 38.8437L127.655 35.0391L132.528 30.1656Z" fill="#888888"/>
<path d="M133.468 33.0754C133.538 33.1451 133.62 33.2003 133.711 33.238C133.802 33.2757 133.9 33.2951 133.998 33.2951C134.097 33.2951 134.194 33.2757 134.285 33.2381C134.376 33.2004 134.459 33.1451 134.529 33.0755C134.598 33.0058 134.654 32.9231 134.691 32.8321C134.729 32.7411 134.749 32.6436 134.748 32.5451C134.748 32.4466 134.729 32.3491 134.691 32.2581C134.654 32.1671 134.598 32.0844 134.529 32.0147C134.459 31.9451 134.376 31.8898 134.285 31.8521C134.194 31.8144 134.097 31.795 133.998 31.795C133.9 31.795 133.802 31.8144 133.711 31.8521C133.62 31.8898 133.538 31.945 133.468 32.0147C133.398 32.0843 133.343 32.167 133.305 32.258C133.268 32.349 133.248 32.4466 133.248 32.5451C133.248 32.6436 133.268 32.7411 133.305 32.8321C133.343 32.9231 133.398 33.0058 133.468 33.0754Z" fill="#888888"/>
<path d="M137.902 36.4344L137.283 35.8172C137.234 35.7687 137.155 35.7687 137.106 35.8172L131.45 41.4625L127.737 37.7594C127.689 37.7109 127.609 37.7109 127.561 37.7594L126.942 38.3766C126.894 38.425 126.894 38.5047 126.942 38.5531L130.742 42.3469L131.361 42.9641C131.409 43.0125 131.489 43.0125 131.537 42.9641L137.902 36.6109C137.95 36.5625 137.95 36.4828 137.902 36.4344Z" fill="#888888"/>
<path d="M131.55 60.3484L137.459 54.4375C137.486 54.4109 137.498 54.375 137.495 54.3391L137.097 49.6297C137.086 49.5078 136.991 49.4125 136.869 49.4016L132.159 49.0047C132.123 49.0016 132.086 49.0141 132.061 49.0406L126.152 54.95C126.103 54.9984 126.103 55.0781 126.152 55.1266L131.373 60.3484C131.422 60.3984 131.502 60.3984 131.55 60.3484ZM132.528 50.1656L136.038 50.4625L136.334 53.9719L131.461 58.8437L127.655 55.0391L132.528 50.1656Z" fill="white"/>
<path d="M133.468 53.0754C133.538 53.1451 133.62 53.2003 133.711 53.238C133.802 53.2757 133.9 53.2951 133.998 53.2951C134.097 53.2951 134.194 53.2757 134.285 53.2381C134.376 53.2004 134.459 53.1451 134.529 53.0755C134.598 53.0058 134.654 52.9231 134.691 52.8321C134.729 52.7411 134.749 52.6436 134.748 52.5451C134.748 52.4466 134.729 52.3491 134.691 52.2581C134.654 52.1671 134.598 52.0844 134.529 52.0147C134.459 51.9451 134.376 51.8898 134.285 51.8521C134.194 51.8144 134.097 51.795 133.998 51.795C133.9 51.795 133.802 51.8144 133.711 51.8521C133.62 51.8898 133.538 51.945 133.468 52.0147C133.398 52.0843 133.343 52.167 133.305 52.258C133.268 52.349 133.248 52.4466 133.248 52.5451C133.248 52.6436 133.268 52.7411 133.305 52.8321C133.343 52.9231 133.398 53.0058 133.468 53.0754Z" fill="white"/>
<path d="M137.902 56.4344L137.283 55.8172C137.234 55.7687 137.155 55.7687 137.106 55.8172L131.45 61.4625L127.737 57.7594C127.689 57.7109 127.609 57.7109 127.561 57.7594L126.942 58.3766C126.894 58.425 126.894 58.5047 126.942 58.5531L130.742 62.3469L131.361 62.9641C131.409 63.0125 131.489 63.0125 131.537 62.9641L137.902 56.6109C137.95 56.5625 137.95 56.4828 137.902 56.4344Z" fill="white"/>
<path d="M179.048 34.974C179.048 31.6655 175.908 28.974 172.048 28.974C168.188 28.974 165.048 31.6655 165.048 34.974C165.048 36.794 166.033 38.506 167.75 39.672C167.979 39.828 168.289 39.768 168.444 39.539C168.6 39.3105 168.54 38.9995 168.311 38.8445C166.873 37.868 166.048 36.4575 166.048 34.974C166.048 32.217 168.74 29.974 172.048 29.974C175.357 29.974 178.048 32.217 178.048 34.974C178.048 37.731 175.357 39.974 172.048 39.974C172.017 39.974 171.991 39.986 171.961 39.9915C171.725 39.9495 171.485 40.073 171.402 40.307C171.306 40.5785 170.678 41.036 169.931 41.46C170.204 40.5505 170.073 40.3555 169.986 40.226C169.881 40.07 169.706 39.977 169.519 39.977C169.243 39.977 169.019 40.2005 169.019 40.477C169.019 40.568 169.043 40.653 169.085 40.726C169.035 41.011 168.816 41.677 168.568 42.2865C168.491 42.4755 168.537 42.6925 168.683 42.8345C168.779 42.9265 168.904 42.975 169.031 42.975C169.1 42.975 169.169 42.961 169.234 42.932C169.804 42.678 171.542 41.852 172.166 40.9685C175.971 40.914 179.048 38.2485 179.048 34.974Z" fill="#888888"/>
<path d="M169.354 37.446C169.427 37.4835 169.505 37.501 169.582 37.501C169.763 37.501 169.938 37.402 170.027 37.229L171.146 35.0495L172.577 37.2715C172.668 37.4125 172.823 37.4985 172.99 37.501C172.993 37.501 172.995 37.501 172.997 37.501C173.162 37.501 173.317 37.4195 173.41 37.2825L175.423 34.3315C175.579 34.103 175.519 33.792 175.291 33.6365C175.063 33.481 174.752 33.5395 174.596 33.768L173.008 36.096L171.517 33.779C171.42 33.629 171.249 33.5485 171.072 33.55C170.893 33.559 170.733 33.6625 170.651 33.821L169.137 36.7725C169.011 37.0185 169.108 37.32 169.354 37.446Z" fill="#888888"/>
<path d="M179.048 54.974C179.048 51.6655 175.908 48.974 172.048 48.974C168.188 48.974 165.048 51.6655 165.048 54.974C165.048 56.794 166.033 58.506 167.75 59.672C167.979 59.828 168.289 59.768 168.444 59.539C168.6 59.3105 168.54 58.9995 168.311 58.8445C166.873 57.868 166.048 56.4575 166.048 54.974C166.048 52.217 168.74 49.974 172.048 49.974C175.357 49.974 178.048 52.217 178.048 54.974C178.048 57.731 175.357 59.974 172.048 59.974C172.017 59.974 171.991 59.986 171.961 59.9915C171.725 59.9495 171.485 60.073 171.402 60.307C171.306 60.5785 170.678 61.036 169.931 61.46C170.204 60.5505 170.073 60.3555 169.986 60.226C169.881 60.07 169.706 59.977 169.519 59.977C169.243 59.977 169.019 60.2005 169.019 60.477C169.019 60.568 169.043 60.653 169.085 60.726C169.035 61.011 168.816 61.677 168.568 62.2865C168.491 62.4755 168.537 62.6925 168.683 62.8345C168.779 62.9265 168.904 62.975 169.031 62.975C169.1 62.975 169.169 62.961 169.234 62.932C169.804 62.678 171.542 61.852 172.166 60.9685C175.971 60.914 179.048 58.2485 179.048 54.974Z" fill="white"/>
<path d="M169.354 57.446C169.427 57.4835 169.505 57.501 169.582 57.501C169.763 57.501 169.938 57.402 170.027 57.229L171.146 55.0495L172.577 57.2715C172.668 57.4125 172.823 57.4985 172.99 57.501C172.993 57.501 172.995 57.501 172.997 57.501C173.162 57.501 173.317 57.4195 173.41 57.2825L175.423 54.3315C175.579 54.103 175.519 53.792 175.291 53.6365C175.063 53.481 174.752 53.5395 174.596 53.768L173.008 56.096L171.517 53.779C171.42 53.629 171.249 53.5485 171.072 53.55C170.893 53.559 170.733 53.6625 170.651 53.821L169.137 56.7725C169.011 57.0185 169.108 57.32 169.354 57.446Z" fill="white"/>
<path d="M152 42.9841C151.057 42.9841 150.142 42.7998 149.282 42.4361C148.452 42.085 147.698 41.5768 147.062 40.9393C146.412 40.2917 145.896 39.5219 145.545 38.6742C145.194 37.8264 145.014 36.9176 145.016 36C145.014 35.0826 145.194 34.1739 145.545 33.3263C145.896 32.4787 146.412 31.709 147.062 31.0616C147.709 30.4116 148.479 29.8963 149.326 29.5453C150.174 29.1943 151.083 29.0147 152 29.0168C152.917 29.0158 153.826 29.1959 154.674 29.5468C155.521 29.8977 156.291 30.4125 156.939 31.0616C157.589 31.7091 158.104 32.4788 158.455 33.3264C158.806 34.174 158.986 35.0826 158.984 36C158.986 36.9175 158.807 37.8264 158.456 38.6742C158.105 39.522 157.589 40.2918 156.939 40.9393C156.292 41.5894 155.522 42.1049 154.674 42.4558C153.826 42.8068 152.918 42.9864 152 42.9841ZM152 30.0906C150.433 30.0924 148.931 30.7156 147.824 31.8235C146.716 32.9313 146.093 34.4334 146.092 36C146.093 37.5666 146.716 39.0686 147.824 40.1765C148.931 41.2843 150.433 41.9075 152 41.9093C153.567 41.9078 155.069 41.2847 156.177 40.1768C157.285 39.0689 157.908 37.5668 157.909 36C157.907 34.4334 157.284 32.9315 156.176 31.8237C155.068 30.7159 153.567 30.0927 152 30.0906ZM152 40.7279C151.858 40.7271 151.722 40.6704 151.621 40.57C151.521 40.4696 151.464 40.3336 151.463 40.1914V39.3883L151.381 39.3679C151.08 39.2972 150.793 39.1766 150.532 39.0109C150.329 38.889 150.144 38.738 149.984 38.5628C149.938 38.5095 149.902 38.4477 149.88 38.3807C149.858 38.3138 149.849 38.2431 149.853 38.1726C149.863 38.0304 149.929 37.8978 150.037 37.8042C150.144 37.7106 150.285 37.6635 150.427 37.6733C150.569 37.6831 150.702 37.749 150.795 37.8566C150.84 37.908 150.948 38.0031 151.103 38.1001C151.384 38.2757 151.685 38.3639 151.998 38.3639C152.372 38.3639 152.713 38.231 152.912 38.0098C152.968 37.953 153.011 37.885 153.038 37.8103C153.066 37.7355 153.077 37.6558 153.072 37.5763C153.035 37.2397 152.751 36.9962 151.856 36.5316L151.65 36.4258C150.962 36.0689 150.577 35.8176 150.321 35.5576C150.044 35.2773 149.907 34.9737 149.86 34.543C149.837 34.33 149.857 34.1144 149.92 33.9094C149.983 33.7045 150.086 33.5144 150.225 33.3509C150.502 33.0094 150.914 32.7563 151.382 32.6379L151.462 32.6175V31.8105C151.47 31.6733 151.53 31.5444 151.63 31.4502C151.73 31.3559 151.863 31.3034 152 31.3034C152.137 31.3034 152.27 31.3559 152.37 31.4502C152.47 31.5444 152.53 31.6733 152.538 31.8105V32.6137L152.62 32.6331C152.922 32.7048 153.207 32.8251 153.469 32.99C153.768 33.1772 153.94 33.3509 154.017 33.4382C154.107 33.546 154.151 33.685 154.14 33.8252C154.129 33.9655 154.064 34.0958 153.958 34.1882C153.852 34.2806 153.714 34.3278 153.573 34.3196C153.433 34.3114 153.301 34.2485 153.207 34.1443C153.115 34.05 153.011 33.9681 152.898 33.9009C152.631 33.7287 152.321 33.6368 152.003 33.6361C151.63 33.6361 151.288 33.7689 151.089 33.9911C151.033 34.048 150.99 34.116 150.962 34.1907C150.935 34.2654 150.923 34.3452 150.928 34.4247C150.965 34.7603 151.249 35.0048 152.145 35.4684L152.35 35.5741C153.038 35.9311 153.422 36.1833 153.679 36.4433C153.955 36.7236 154.093 37.0272 154.141 37.4569C154.187 37.8847 154.061 38.297 153.775 38.6491C153.476 39.004 153.071 39.2535 152.619 39.3611L152.538 39.3815V40.1895C152.538 40.2602 152.525 40.3303 152.498 40.3957C152.471 40.461 152.431 40.5204 152.381 40.5704C152.331 40.6205 152.272 40.6601 152.206 40.6871C152.141 40.7141 152.071 40.728 152 40.7279Z" fill="#888888"/>
<path d="M152 62.9841C151.057 62.9841 150.142 62.7998 149.282 62.4361C148.452 62.085 147.698 61.5768 147.062 60.9393C146.412 60.2917 145.896 59.5219 145.545 58.6742C145.194 57.8264 145.014 56.9176 145.016 56C145.014 55.0826 145.194 54.1739 145.545 53.3263C145.896 52.4787 146.412 51.709 147.062 51.0616C147.709 50.4116 148.479 49.8963 149.326 49.5453C150.174 49.1943 151.083 49.0147 152 49.0168C152.917 49.0158 153.826 49.1959 154.674 49.5468C155.521 49.8977 156.291 50.4125 156.939 51.0616C157.589 51.7091 158.104 52.4788 158.455 53.3264C158.806 54.174 158.986 55.0826 158.984 56C158.986 56.9175 158.807 57.8264 158.456 58.6742C158.105 59.522 157.589 60.2918 156.939 60.9393C156.292 61.5894 155.522 62.1049 154.674 62.4558C153.826 62.8068 152.918 62.9864 152 62.9841ZM152 50.0906C150.433 50.0924 148.931 50.7156 147.824 51.8235C146.716 52.9313 146.093 54.4334 146.092 56C146.093 57.5666 146.716 59.0686 147.824 60.1765C148.931 61.2843 150.433 61.9075 152 61.9093C153.567 61.9078 155.069 61.2847 156.177 60.1768C157.285 59.0689 157.908 57.5668 157.909 56C157.907 54.4334 157.284 52.9315 156.176 51.8237C155.068 50.7159 153.567 50.0927 152 50.0906ZM152 60.7279C151.858 60.7271 151.722 60.6704 151.621 60.57C151.521 60.4696 151.464 60.3336 151.463 60.1914V59.3883L151.381 59.3679C151.08 59.2972 150.793 59.1766 150.532 59.0109C150.329 58.889 150.144 58.738 149.984 58.5628C149.938 58.5095 149.902 58.4477 149.88 58.3807C149.858 58.3138 149.849 58.2431 149.853 58.1726C149.863 58.0304 149.929 57.8978 150.037 57.8042C150.144 57.7106 150.285 57.6635 150.427 57.6733C150.569 57.6831 150.702 57.749 150.795 57.8566C150.84 57.908 150.948 58.0031 151.103 58.1001C151.384 58.2757 151.685 58.3639 151.998 58.3639C152.372 58.3639 152.713 58.231 152.912 58.0098C152.968 57.953 153.011 57.885 153.038 57.8103C153.066 57.7355 153.077 57.6558 153.072 57.5763C153.035 57.2397 152.751 56.9962 151.856 56.5316L151.65 56.4258C150.962 56.0689 150.577 55.8176 150.321 55.5576C150.044 55.2773 149.907 54.9737 149.86 54.543C149.837 54.33 149.857 54.1144 149.92 53.9094C149.983 53.7045 150.086 53.5144 150.225 53.3509C150.502 53.0094 150.914 52.7563 151.382 52.6379L151.462 52.6175V51.8105C151.47 51.6733 151.53 51.5444 151.63 51.4502C151.73 51.3559 151.863 51.3034 152 51.3034C152.137 51.3034 152.27 51.3559 152.37 51.4502C152.47 51.5444 152.53 51.6733 152.538 51.8105V52.6137L152.62 52.6331C152.922 52.7048 153.207 52.8251 153.469 52.99C153.768 53.1772 153.94 53.3509 154.017 53.4382C154.107 53.546 154.151 53.685 154.14 53.8252C154.129 53.9655 154.064 54.0958 153.958 54.1882C153.852 54.2806 153.714 54.3278 153.573 54.3196C153.433 54.3114 153.301 54.2485 153.207 54.1443C153.115 54.05 153.011 53.9681 152.898 53.9009C152.631 53.7287 152.321 53.6368 152.003 53.6361C151.63 53.6361 151.288 53.7689 151.089 53.9911C151.033 54.048 150.99 54.116 150.962 54.1907C150.935 54.2654 150.923 54.3452 150.928 54.4247C150.965 54.7603 151.249 55.0048 152.145 55.4684L152.35 55.5741C153.038 55.9311 153.422 56.1833 153.679 56.4433C153.955 56.7236 154.093 57.0272 154.141 57.4569C154.187 57.8847 154.061 58.297 153.775 58.6491C153.476 59.004 153.071 59.2535 152.619 59.3611L152.538 59.3815V60.1895C152.538 60.2602 152.525 60.3303 152.498 60.3957C152.471 60.461 152.431 60.5204 152.381 60.5704C152.331 60.6205 152.272 60.6601 152.206 60.6871C152.141 60.7141 152.071 60.728 152 60.7279Z" fill="white"/>
<path d="M64.1942 61.8685C65.4266 61.0019 65.9551 59.4363 65.5 58C65.045 56.5637 63.6514 55.7768 62.1448 55.7779H61.2744C60.7054 53.5605 58.8281 51.9234 56.5538 51.6615C54.2795 51.3995 52.0792 52.5669 51.021 54.597C49.9628 56.6271 50.2658 59.0994 51.7829 60.8138" stroke="white" stroke-width="1.4" stroke-linecap="round" stroke-linejoin="round"/>
<path d="M58.0031 64.375L58 57.625" stroke="white" stroke-width="1.4" stroke-linecap="round" stroke-linejoin="round"/>
<path d="M60.3864 61.9886L57.9999 64.3751L55.6134 61.9886" stroke="white" stroke-width="1.4" stroke-linecap="round" stroke-linejoin="round"/>
<path d="M17.4034 80.217C18.3379 84.4189 15.7328 88.5802 11.5795 89.5107C8.80322 90.1314 5.95405 89.1563 4.10522 87.0321C4.04976 86.9681 4.00373 86.8965 3.96853 86.8195L3.00261 87.3997C2.93942 87.4375 2.86689 87.4568 2.79326 87.4555C2.71963 87.4542 2.64785 87.4322 2.58606 87.3922C2.52428 87.3521 2.47496 87.2955 2.44371 87.2288C2.41246 87.1621 2.40054 87.088 2.40928 87.0149L2.79201 83.7648C2.82238 83.5076 3.08563 83.3497 3.32661 83.4438L6.36613 84.6345C6.43467 84.6615 6.49428 84.7072 6.53823 84.7663C6.58217 84.8255 6.6087 84.8957 6.61481 84.9691C6.62092 85.0425 6.60637 85.1162 6.5728 85.1818C6.53923 85.2474 6.48799 85.3023 6.42486 85.3402L5.4802 85.9082L5.61486 86.0561C6.31571 86.802 7.19855 87.3529 8.17665 87.6545C9.15476 87.9561 10.1945 87.998 11.1937 87.7763C14.3882 87.0615 16.398 83.8519 15.6751 80.6038C14.9521 77.3557 11.7739 75.3074 8.57845 76.0222C7.70803 76.2181 6.89343 76.609 6.19609 77.1655C5.49874 77.722 4.93684 78.4296 4.55275 79.2349C4.50222 79.3397 4.43149 79.4336 4.34461 79.5111C4.25773 79.5887 4.15641 79.6483 4.04646 79.6865C3.93651 79.7248 3.82008 79.741 3.70385 79.7342C3.58762 79.7274 3.47388 79.6978 3.36913 79.6469C3.15763 79.5437 2.99564 79.3609 2.9186 79.1385C2.84156 78.9161 2.85575 78.6723 2.95806 78.4603C3.45832 77.4144 4.18931 76.4956 5.09601 75.773C6.00271 75.0505 7.0615 74.543 8.19268 74.2888C12.347 73.3583 16.4689 76.0151 17.4034 80.217ZM9.3115 77.8589C9.81572 77.8589 10.2319 78.2406 10.2886 78.7316L10.2956 78.8461L10.2946 80.8204H12.2639C12.7682 80.8204 13.1853 81.2021 13.241 81.6922L13.2481 81.8076C13.2481 82.3139 12.8684 82.731 12.3784 82.7887L12.2639 82.7948H9.3115C9.06994 82.7947 8.83686 82.7058 8.65654 82.5451C8.47621 82.3844 8.36123 82.163 8.33342 81.923L8.32735 81.8076V78.8471C8.32735 78.3023 8.76778 77.8599 9.3115 77.8599V77.8589Z" fill="#555555"/>
<path d="M41.4034 80.217C42.3379 84.4189 39.7328 88.5802 35.5795 89.5107C32.8032 90.1314 29.954 89.1563 28.1052 87.0321C28.0498 86.9681 28.0037 86.8965 27.9685 86.8195L27.0026 87.3997C26.9394 87.4375 26.8669 87.4568 26.7933 87.4555C26.7196 87.4542 26.6479 87.4322 26.5861 87.3922C26.5243 87.3521 26.475 87.2955 26.4437 87.2288C26.4125 87.1621 26.4005 87.088 26.4093 87.0149L26.792 83.7648C26.8224 83.5076 27.0856 83.3497 27.3266 83.4438L30.3661 84.6345C30.4347 84.6615 30.4943 84.7072 30.5382 84.7663C30.5822 84.8255 30.6087 84.8957 30.6148 84.9691C30.6209 85.0425 30.6064 85.1162 30.5728 85.1818C30.5392 85.2474 30.488 85.3023 30.4249 85.3402L29.4802 85.9082L29.6149 86.0561C30.3157 86.802 31.1985 87.3529 32.1767 87.6545C33.1548 87.9561 34.1945 87.998 35.1937 87.7763C38.3882 87.0615 40.398 83.8519 39.6751 80.6038C38.9521 77.3557 35.7739 75.3074 32.5784 76.0222C31.708 76.2181 30.8934 76.609 30.1961 77.1655C29.4987 77.722 28.9368 78.4296 28.5527 79.2349C28.5022 79.3397 28.4315 79.4336 28.3446 79.5111C28.2577 79.5887 28.1564 79.6483 28.0465 79.6865C27.9365 79.7248 27.8201 79.741 27.7039 79.7342C27.5876 79.7274 27.4739 79.6978 27.3691 79.6469C27.1576 79.5437 26.9956 79.3609 26.9186 79.1385C26.8416 78.9161 26.8558 78.6723 26.9581 78.4603C27.4583 77.4144 28.1893 76.4956 29.096 75.773C30.0027 75.0505 31.0615 74.543 32.1927 74.2888C36.347 73.3583 40.4689 76.0151 41.4034 80.217ZM33.3115 77.8589C33.8157 77.8589 34.2319 78.2406 34.2886 78.7316L34.2956 78.8461L34.2946 80.8204H36.2639C36.7682 80.8204 37.1853 81.2021 37.241 81.6922L37.2481 81.8076C37.2481 82.3139 36.8684 82.731 36.3784 82.7887L36.2639 82.7948H33.3115C33.0699 82.7947 32.8369 82.7058 32.6565 82.5451C32.4762 82.3844 32.3612 82.163 32.3334 81.923L32.3273 81.8076V78.8471C32.3273 78.3023 32.7678 77.8599 33.3115 77.8599V77.8589Z" fill="#3FBC6A"/>
<rect x="4.7" y="31.7" width="7.6" height="9.6" rx="1.3" stroke="#3FBC6A" stroke-width="1.4"/>
<path fill-rule="evenodd" clip-rule="evenodd" d="M10 29.4H4C3.11634 29.4 2.4 30.1163 2.4 31V38H1V31C1 29.3431 2.34315 28 4 28H10V29.4Z" fill="#3FBC6A"/>
<path d="M52.6667 76.6667L67.3333 91.3333" stroke="#333333" stroke-width="1.4" stroke-linecap="round" stroke-linejoin="round"/>
<path d="M52.6667 91.3333L67.3333 76.6667" stroke="#333333" stroke-width="1.4" stroke-linecap="round" stroke-linejoin="round"/>
<path d="M80.6667 76.6667L95.3333 91.3333" stroke="#3FBC6A" stroke-width="1.4" stroke-linecap="round" stroke-linejoin="round"/>
<path d="M80.6667 91.3333L95.3333 76.6667" stroke="#3FBC6A" stroke-width="1.4" stroke-linecap="round" stroke-linejoin="round"/>
<rect x="154" y="78" width="8" height="8" stroke="#3FBC6A" stroke-width="2"/>
<rect x="154" y="90" width="8" height="8" stroke="#3FBC6A" stroke-width="2"/>
<rect x="166" y="78" width="8" height="8" stroke="#3FBC6A" stroke-width="2"/>
<rect x="157" y="81" width="2" height="2" fill="#3FBC6A" stroke="#3FBC6A"/>
<rect x="157" y="93" width="2" height="2" fill="#3FBC6A" stroke="#3FBC6A"/>
<rect x="165.5" y="89.5" width="1" height="1" fill="#3FBC6A" stroke="#3FBC6A"/>
<rect x="173.5" y="89.5" width="1" height="1" fill="#3FBC6A" stroke="#3FBC6A"/>
<rect x="166.5" y="94.5" width="1" height="1" fill="#3FBC6A" stroke="#3FBC6A"/>
<rect x="165.5" y="97.5" width="1" height="1" fill="#3FBC6A" stroke="#3FBC6A"/>
<rect x="169.5" y="97.5" width="5" height="1" fill="#3FBC6A" stroke="#3FBC6A"/>
<rect x="173.5" y="93.5" width="1" height="3" fill="#3FBC6A" stroke="#3FBC6A"/>
<rect x="168.5" y="92.5" width="1" height="3" fill="#3FBC6A" stroke="#3FBC6A"/>
<rect x="170.5" y="89.5" width="1" height="3" fill="#3FBC6A" stroke="#3FBC6A"/>
<rect x="169" y="81" width="2" height="2" fill="#3FBC6A" stroke="#3FBC6A"/>
<rect x="118" y="78" width="8" height="8" stroke="#333333" stroke-width="2"/>
<rect x="118" y="90" width="8" height="8" stroke="#333333" stroke-width="2"/>
<rect x="130" y="78" width="8" height="8" stroke="#333333" stroke-width="2"/>
<rect x="121" y="81" width="2" height="2" fill="#333333" stroke="#333333"/>
<rect x="121" y="93" width="2" height="2" fill="#333333" stroke="#333333"/>
<rect x="129.5" y="89.5" width="1" height="1" fill="#333333" stroke="#333333"/>
<rect x="137.5" y="89.5" width="1" height="1" fill="#333333" stroke="#333333"/>
<rect x="130.5" y="94.5" width="1" height="1" fill="#333333" stroke="#333333"/>
<rect x="129.5" y="97.5" width="1" height="1" fill="#333333" stroke="#333333"/>
<rect x="133.5" y="97.5" width="5" height="1" fill="#333333" stroke="#333333"/>
<rect x="137.5" y="93.5" width="1" height="3" fill="#333333" stroke="#333333"/>
<rect x="132.5" y="92.5" width="1" height="3" fill="#333333" stroke="#333333"/>
<rect x="134.5" y="89.5" width="1" height="3" fill="#333333" stroke="#333333"/>
<rect x="133" y="81" width="2" height="2" fill="#333333" stroke="#333333"/>
<path d="M129.805 113.617C128.76 113.617 127.759 114.032 127.02 114.77C126.282 115.509 125.867 116.51 125.867 117.555C125.867 118.599 126.282 119.601 127.02 120.339C127.759 121.077 128.76 121.492 129.805 121.492C130.849 121.492 131.85 121.077 132.589 120.339C133.327 119.601 133.742 118.599 133.742 117.555C133.742 116.51 133.327 115.509 132.589 114.77C131.85 114.032 130.849 113.617 129.805 113.617ZM129.805 115.367C130.092 115.367 130.376 115.424 130.642 115.534C130.907 115.644 131.148 115.805 131.351 116.008C131.555 116.211 131.716 116.452 131.826 116.718C131.936 116.983 131.992 117.267 131.992 117.555C131.992 117.842 131.936 118.126 131.826 118.392C131.716 118.657 131.555 118.898 131.351 119.101C131.148 119.305 130.907 119.466 130.642 119.576C130.376 119.686 130.092 119.742 129.805 119.742C129.225 119.742 128.668 119.512 128.258 119.101C127.848 118.691 127.617 118.135 127.617 117.555C127.617 116.975 127.848 116.418 128.258 116.008C128.668 115.598 129.225 115.367 129.805 115.367ZM135.055 126.742C134.01 126.742 133.009 127.157 132.27 127.895C131.532 128.634 131.117 129.635 131.117 130.68C131.117 131.724 131.532 132.726 132.27 133.464C133.009 134.202 134.01 134.617 135.055 134.617C136.099 134.617 137.1 134.202 137.839 133.464C138.577 132.726 138.992 131.724 138.992 130.68C138.992 129.635 138.577 128.634 137.839 127.895C137.1 127.157 136.099 126.742 135.055 126.742ZM135.055 128.492C135.635 128.492 136.191 128.723 136.601 129.133C137.012 129.543 137.242 130.1 137.242 130.68C137.242 131.26 137.012 131.816 136.601 132.226C136.191 132.637 135.635 132.867 135.055 132.867C134.475 132.867 133.918 132.637 133.508 132.226C133.098 131.816 132.867 131.26 132.867 130.68C132.867 130.1 133.098 129.543 133.508 129.133C133.918 128.723 134.475 128.492 135.055 128.492Z" fill="#333333"/>
<path d="M127.024 119.099C127.189 118.946 127.408 118.862 127.633 118.866C127.859 118.87 128.075 118.961 128.235 119.12C128.395 119.279 128.488 119.494 128.493 119.72C128.498 119.946 128.416 120.165 128.264 120.332L128.211 120.385L122.523 125.635C122.358 125.789 122.139 125.872 121.913 125.868C121.688 125.864 121.472 125.773 121.312 125.614C121.152 125.455 121.059 125.24 121.054 125.014C121.049 124.789 121.131 124.569 121.283 124.403L121.336 124.349L127.024 119.099ZM122.393 128.28C122.447 128.066 122.579 127.88 122.764 127.759C122.949 127.639 123.173 127.592 123.391 127.63L123.454 127.643L132.204 129.831C132.425 129.885 132.616 130.022 132.737 130.215C132.858 130.407 132.899 130.638 132.852 130.861C132.805 131.083 132.674 131.278 132.486 131.405C132.298 131.532 132.068 131.581 131.844 131.542L131.78 131.529L123.03 129.341C122.919 129.314 122.814 129.264 122.721 129.196C122.629 129.127 122.551 129.041 122.492 128.943C122.433 128.844 122.394 128.735 122.377 128.621C122.36 128.507 122.366 128.391 122.393 128.28Z" fill="#333333"/>
<path d="M120.18 123.68C119.135 123.68 118.134 124.095 117.395 124.833C116.657 125.571 116.242 126.573 116.242 127.617C116.242 128.661 116.657 129.663 117.395 130.401C118.134 131.14 119.135 131.555 120.18 131.555C121.224 131.555 122.225 131.14 122.964 130.401C123.702 129.663 124.117 128.661 124.117 127.617C124.117 126.573 123.702 125.571 122.964 124.833C122.225 124.095 121.224 123.68 120.18 123.68ZM120.18 125.43C120.76 125.43 121.316 125.66 121.726 126.07C122.137 126.481 122.367 127.037 122.367 127.617C122.367 128.197 122.137 128.754 121.726 129.164C121.316 129.574 120.76 129.805 120.18 129.805C119.6 129.805 119.043 129.574 118.633 129.164C118.223 128.754 117.992 128.197 117.992 127.617C117.992 127.037 118.223 126.481 118.633 126.07C119.043 125.66 119.6 125.43 120.18 125.43Z" fill="#333333"/>
<path d="M165.805 113.617C164.76 113.617 163.759 114.032 163.02 114.77C162.282 115.509 161.867 116.51 161.867 117.555C161.867 118.599 162.282 119.601 163.02 120.339C163.759 121.077 164.76 121.492 165.805 121.492C166.849 121.492 167.85 121.077 168.589 120.339C169.327 119.601 169.742 118.599 169.742 117.555C169.742 116.51 169.327 115.509 168.589 114.77C167.85 114.032 166.849 113.617 165.805 113.617ZM165.805 115.367C166.092 115.367 166.376 115.424 166.642 115.534C166.907 115.644 167.148 115.805 167.351 116.008C167.555 116.211 167.716 116.452 167.826 116.718C167.936 116.983 167.992 117.267 167.992 117.555C167.992 117.842 167.936 118.126 167.826 118.392C167.716 118.657 167.555 118.898 167.351 119.101C167.148 119.305 166.907 119.466 166.642 119.576C166.376 119.686 166.092 119.742 165.805 119.742C165.225 119.742 164.668 119.512 164.258 119.101C163.848 118.691 163.617 118.135 163.617 117.555C163.617 116.975 163.848 116.418 164.258 116.008C164.668 115.598 165.225 115.367 165.805 115.367ZM171.055 126.742C170.01 126.742 169.009 127.157 168.27 127.895C167.532 128.634 167.117 129.635 167.117 130.68C167.117 131.724 167.532 132.726 168.27 133.464C169.009 134.202 170.01 134.617 171.055 134.617C172.099 134.617 173.1 134.202 173.839 133.464C174.577 132.726 174.992 131.724 174.992 130.68C174.992 129.635 174.577 128.634 173.839 127.895C173.1 127.157 172.099 126.742 171.055 126.742ZM171.055 128.492C171.635 128.492 172.191 128.723 172.601 129.133C173.012 129.543 173.242 130.1 173.242 130.68C173.242 131.26 173.012 131.816 172.601 132.226C172.191 132.637 171.635 132.867 171.055 132.867C170.475 132.867 169.918 132.637 169.508 132.226C169.098 131.816 168.867 131.26 168.867 130.68C168.867 130.1 169.098 129.543 169.508 129.133C169.918 128.723 170.475 128.492 171.055 128.492Z" fill="#3FBC6A"/>
<path d="M163.024 119.099C163.189 118.946 163.408 118.862 163.633 118.866C163.859 118.87 164.075 118.961 164.235 119.12C164.395 119.279 164.488 119.494 164.493 119.72C164.498 119.946 164.416 120.165 164.264 120.332L164.211 120.385L158.523 125.635C158.358 125.789 158.139 125.872 157.913 125.868C157.688 125.864 157.472 125.773 157.312 125.614C157.152 125.455 157.059 125.24 157.054 125.014C157.049 124.789 157.131 124.569 157.283 124.403L157.336 124.349L163.024 119.099ZM158.393 128.28C158.447 128.066 158.579 127.88 158.764 127.759C158.949 127.639 159.173 127.592 159.391 127.63L159.454 127.643L168.204 129.831C168.425 129.885 168.616 130.022 168.737 130.215C168.858 130.407 168.899 130.638 168.852 130.861C168.805 131.083 168.674 131.278 168.486 131.405C168.298 131.532 168.068 131.581 167.844 131.542L167.78 131.529L159.03 129.341C158.919 129.314 158.814 129.264 158.721 129.196C158.629 129.127 158.551 129.041 158.492 128.943C158.433 128.844 158.394 128.735 158.377 128.621C158.36 128.507 158.366 128.391 158.393 128.28Z" fill="#3FBC6A"/>
<path d="M156.18 123.68C155.135 123.68 154.134 124.095 153.395 124.833C152.657 125.571 152.242 126.573 152.242 127.617C152.242 128.661 152.657 129.663 153.395 130.401C154.134 131.14 155.135 131.555 156.18 131.555C157.224 131.555 158.225 131.14 158.964 130.401C159.702 129.663 160.117 128.661 160.117 127.617C160.117 126.573 159.702 125.571 158.964 124.833C158.225 124.095 157.224 123.68 156.18 123.68ZM156.18 125.43C156.76 125.43 157.316 125.66 157.726 126.07C158.137 126.481 158.367 127.037 158.367 127.617C158.367 128.197 158.137 128.754 157.726 129.164C157.316 129.574 156.76 129.805 156.18 129.805C155.6 129.805 155.043 129.574 154.633 129.164C154.223 128.754 153.992 128.197 153.992 127.617C153.992 127.037 154.223 126.481 154.633 126.07C155.043 125.66 155.6 125.43 156.18 125.43Z" fill="#3FBC6A"/>
<g clip-path="url(#clip2_1_2)">
<path d="M90.5 120.5C93.8137 120.5 96.5 117.814 96.5 114.5C96.5 111.186 93.8137 108.5 90.5 108.5C87.1863 108.5 84.5 111.186 84.5 114.5C84.5 117.814 87.1863 120.5 90.5 120.5Z" stroke="#888888" stroke-linejoin="round"/>
<path d="M90.5023 111.25L90.502 114.502L92.7985 116.799" stroke="#888888" stroke-linecap="round" stroke-linejoin="round"/>
</g>
<path d="M98.2976 162.347C98.1089 162.176 97.8603 162.082 97.6033 162.082C97.5798 162.082 97.5564 162.082 97.533 162.084C97.5188 162.085 97.3551 162.095 97.0993 162.095C96.6754 162.095 95.8478 162.066 95.0637 161.88C94.0514 161.639 92.8831 160.524 92.5432 160.304C92.3718 160.192 92.1746 160.137 91.977 160.137C91.7802 160.137 91.583 160.192 91.412 160.302C91.3708 160.33 90.1475 161.595 88.9508 161.88C88.1672 162.066 87.3238 162.095 86.9003 162.095C86.6444 162.095 86.4812 162.085 86.4651 162.084C86.4428 162.082 86.4206 162.082 86.398 162.082C86.1405 162.082 85.8912 162.176 85.7016 162.347C85.4959 162.533 85.3788 162.793 85.3788 163.066V165.528C85.3788 174.629 91.5361 175.801 91.7972 175.848C91.857 175.858 91.9172 175.863 91.9774 175.863C92.0372 175.863 92.0982 175.858 92.1572 175.848C92.4187 175.801 98.6213 174.629 98.6213 165.528V163.066C98.6213 162.793 98.5037 162.533 98.2976 162.347ZM96.0215 165.868L91.7527 169.998C91.726 170.042 91.6933 170.085 91.6537 170.123C91.5284 170.244 91.3627 170.302 91.1986 170.299C91.0346 170.302 90.8692 170.244 90.744 170.123C90.7044 170.085 90.6713 170.042 90.6446 169.998L88.3633 167.79C88.1204 167.555 88.1204 167.176 88.3633 166.94C88.6061 166.705 89.0002 166.705 89.2431 166.94L91.1986 168.833L95.1421 165.018C95.3851 164.783 95.7786 164.783 96.0215 165.018C96.2644 165.252 96.2644 165.633 96.0215 165.868Z" fill="#3FBC6A"/>
<path d="M137.869 172.919H118.194C115.925 172.919 114.081 171.159 114.081 169V165.128C114.081 164.356 114.706 163.734 115.475 163.734C116.244 163.734 116.869 164.359 116.869 165.128V169C116.869 169.622 117.462 170.128 118.194 170.128H137.869C138.597 170.128 139.191 169.622 139.191 169V165.128C139.191 164.356 139.816 163.734 140.584 163.734C141.356 163.734 141.978 164.359 141.978 165.128V169C141.981 171.159 140.137 172.919 137.869 172.919Z" fill="#333333"/>
<path d="M128.081 168.316C127.156 168.316 126.275 167.938 125.6 167.253L119.031 160.594C118.262 159.813 118.044 158.638 118.478 157.603C118.881 156.641 119.75 156.044 120.744 156.044H122.034V150.975C122.034 148.822 123.644 147.069 125.622 147.069H130.438C132.416 147.069 134.025 148.822 134.025 150.975V156.081H135.328C136.322 156.081 137.191 156.678 137.594 157.638C138.028 158.672 137.816 159.844 137.05 160.628L130.572 167.244C129.897 167.931 129.016 168.313 128.087 168.313C128.084 168.316 128.084 168.316 128.081 168.316ZM121.206 158.831L127.587 165.294C127.737 165.444 127.906 165.525 128.081 165.525C128.256 165.525 128.428 165.444 128.575 165.294L134.862 158.875H132.631C131.859 158.875 131.237 158.25 131.237 157.481V150.975C131.237 150.381 130.866 149.859 130.441 149.859H125.625C125.2 149.859 124.828 150.381 124.828 150.975V157.434C124.828 158.206 124.203 158.828 123.434 158.828H121.206V158.831Z" fill="#333333"/>
<path d="M173.869 172.919H154.194C151.925 172.919 150.081 171.159 150.081 169V165.128C150.081 164.356 150.706 163.734 151.475 163.734C152.244 163.734 152.869 164.359 152.869 165.128V169C152.869 169.622 153.463 170.128 154.194 170.128H173.869C174.597 170.128 175.191 169.622 175.191 169V165.128C175.191 164.356 175.816 163.734 176.584 163.734C177.356 163.734 177.978 164.359 177.978 165.128V169C177.981 171.159 176.138 172.919 173.869 172.919Z" fill="#3FBC6A"/>
<path d="M164.081 168.316C163.156 168.316 162.275 167.938 161.6 167.253L155.031 160.594C154.262 159.813 154.044 158.638 154.478 157.603C154.881 156.641 155.75 156.044 156.744 156.044H158.034V150.975C158.034 148.822 159.644 147.069 161.622 147.069H166.438C168.416 147.069 170.025 148.822 170.025 150.975V156.081H171.328C172.322 156.081 173.191 156.678 173.594 157.638C174.028 158.672 173.816 159.844 173.05 160.628L166.572 167.244C165.897 167.931 165.016 168.313 164.087 168.313C164.084 168.316 164.084 168.316 164.081 168.316ZM157.206 158.831L163.587 165.294C163.737 165.444 163.906 165.525 164.081 165.525C164.256 165.525 164.428 165.444 164.575 165.294L170.862 158.875H168.631C167.859 158.875 167.237 158.25 167.237 157.481V150.975C167.237 150.381 166.866 149.859 166.441 149.859H161.625C161.2 149.859 160.828 150.381 160.828 150.975V157.434C160.828 158.206 160.203 158.828 159.434 158.828H157.206V158.831Z" fill="#3FBC6A"/>
<g clip-path="url(#clip3_1_2)">
<path fill-rule="evenodd" clip-rule="evenodd" d="M86.618 124.5C86.0499 124.5 85.5305 124.821 85.2764 125.329L84.8028 126.276L84.0528 127.776C84.0153 127.851 83.9984 127.931 84 128.01V135C84 135.828 84.6716 136.5 85.5 136.5H95.5C96.3284 136.5 97 135.828 97 135V128.309L97.1708 128.224L96.9472 127.776L95.7236 125.329C95.4695 124.821 94.9501 124.5 94.382 124.5H86.618ZM96 128.118L94.8292 125.776C94.7445 125.607 94.5714 125.5 94.382 125.5H86.618C86.4287 125.5 86.2555 125.607 86.1708 125.776L85.6972 126.724L85 128.118V135C85 135.276 85.2239 135.5 85.5 135.5H95.5C95.7761 135.5 96 135.276 96 135V128.118Z" fill="#888888"/>
<path d="M90.5 130V134M90.5 134L88.5 132.5M90.5 134L92.5 132.5" stroke="#888888" stroke-linecap="round" stroke-linejoin="round"/>
<path d="M85 128.5H96" stroke="#888888" stroke-linecap="round"/>
</g>
<rect x="84.5" y="141.5" width="10" height="9" rx="1.5" stroke="#888888"/>
<path d="M96.5 144.5V150.5C96.5 151.605 95.6046 152.5 94.5 152.5H88.5" stroke="#888888" stroke-linecap="round"/>
<path d="M8.56588 203.85L19.5983 196.83C20.2006 196.44 20.2006 195.57 19.5983 195.18L8.56588 188.17C7.90333 187.75 7.05005 188.22 7.05005 188.99V203.03C7.05005 203.81 7.90333 204.27 8.56588 203.85Z" fill="white"/>
<path d="M86.3997 181.7L87.9498 184.654L91.1 185.291L88.9071 187.753L89.3055 191.1L86.4003 189.668L83.4952 191.1L83.8936 187.752L81.7 185.291L84.8508 184.653L86.3997 181.7Z" fill="#222222"/>
<path d="M51.9817 186.206L56.1881 193.492L51.9817 200.777L43.5691 200.777L39.3628 193.492L43.5691 186.206L51.9817 186.206Z" stroke="#3FBC6A" stroke-width="2"/>
<path d="M43 206V200H52.6V206L47.8 204.909L43 206Z" fill="#3FBC6A"/>
<path d="M44.5 193.8L46.5 195.8L51 191.3" stroke="#3FBC6A" stroke-width="1.4" stroke-linecap="square"/>
<path d="M0.299301 213.248C0.109716 213.441 0 213.74 0 214.128V227.962C0 228.35 0.109716 228.649 0.299301 228.842L0.346092 228.884L8.34413 221.135V220.952L0.346092 213.203L0.299301 213.248Z" fill="url(#paint0_linear_1_2)"/>
<path d="M11.0072 223.719L8.34415 221.135V220.952L11.0104 218.368L11.0701 218.401L14.2277 220.143C15.1289 220.637 15.1289 221.45 14.2277 221.947L11.0701 223.686L11.0072 223.719Z" fill="url(#paint1_linear_1_2)"/>
<path d="M11.0701 223.686L8.34415 221.043L0.299316 228.842C0.598618 229.147 1.0867 229.183 1.64174 228.878L11.0701 223.686Z" fill="url(#paint2_linear_1_2)"/>
<path d="M11.0701 218.401L1.64174 213.209C1.0867 212.907 0.598618 212.943 0.299316 213.248L8.34415 221.043L11.0701 218.401Z" fill="url(#paint3_linear_1_2)"/>
<path d="M35.7705 219.186C34.2546 219.186 33.0162 220.304 33.0162 221.847C33.0162 223.377 34.2546 224.507 35.7705 224.507C37.2896 224.507 38.5279 223.377 38.5279 221.847C38.5279 220.304 37.2896 219.186 35.7705 219.186ZM35.7705 223.459C34.9387 223.459 34.2231 222.793 34.2231 221.847C34.2231 220.887 34.9387 220.233 35.7705 220.233C36.6022 220.233 37.321 220.887 37.321 221.847C37.321 222.793 36.6022 223.459 35.7705 223.459ZM29.761 219.186C28.2419 219.186 27.0068 220.304 27.0068 221.847C27.0068 223.377 28.2419 224.507 29.761 224.507C31.2793 224.507 32.5153 223.377 32.5153 221.847C32.5153 220.304 31.2793 219.186 29.761 219.186ZM29.761 223.459C28.9285 223.459 28.2105 222.793 28.2105 221.847C28.2105 220.887 28.9285 220.233 29.761 220.233C30.5928 220.233 31.3084 220.887 31.3084 221.847C31.3084 222.793 30.5928 223.459 29.761 223.459ZM22.6101 220.001V221.132H25.3957C25.3143 221.764 25.0964 222.228 24.7625 222.552C24.3559 222.943 23.7226 223.377 22.6101 223.377C20.8957 223.377 19.5533 222.036 19.5533 220.374C19.5533 218.713 20.8957 217.372 22.6101 217.372C23.537 217.372 24.2115 217.723 24.7092 218.178L25.5313 217.381C24.8351 216.737 23.9089 216.242 22.6101 216.242C20.2592 216.242 18.2835 218.096 18.2835 220.374C18.2835 222.653 20.2592 224.507 22.6101 224.507C23.8807 224.507 24.8351 224.103 25.5853 223.346C26.3542 222.601 26.5938 221.553 26.5938 220.707C26.5938 220.445 26.5712 220.203 26.5308 220.001H22.6101ZM51.8513 220.878C51.6246 220.283 50.9251 219.186 49.5004 219.186C48.0886 219.186 46.9132 220.264 46.9132 221.847C46.9132 223.337 48.0765 224.507 49.6359 224.507C50.8969 224.507 51.6246 223.762 51.9239 223.328L50.988 222.723C50.6758 223.166 50.2507 223.459 49.6359 223.459C49.0252 223.459 48.5872 223.188 48.3064 222.653L51.9779 221.18L51.8513 220.878ZM48.108 221.764C48.0765 220.738 48.93 220.212 49.5416 220.212C50.0208 220.212 50.4274 220.445 50.5629 220.777L48.108 221.764ZM45.1238 224.345H46.3307V216.526H45.1238V224.345ZM43.1473 219.778H43.107C42.8359 219.467 42.3188 219.186 41.6637 219.186C40.289 219.186 39.0321 220.355 39.0321 221.855C39.0321 223.346 40.289 224.507 41.6637 224.507C42.3188 224.507 42.8359 224.223 43.107 223.902H43.1473V224.284C43.1473 225.301 42.5866 225.848 41.6823 225.848C40.9449 225.848 40.4875 225.332 40.2987 224.898L39.2491 225.322C39.5517 226.028 40.3528 226.895 41.6823 226.895C43.0973 226.895 44.2913 226.089 44.2913 224.125V219.348H43.1473V219.778ZM41.767 223.459C40.9352 223.459 40.239 222.784 40.239 221.855C40.239 220.918 40.9352 220.233 41.767 220.233C42.5866 220.233 43.2328 220.918 43.2328 221.855C43.2328 222.784 42.5866 223.459 41.767 223.459ZM57.5017 216.526H54.6152V224.345H55.8188V221.382H57.5017C58.8385 221.382 60.1494 220.445 60.1494 218.953C60.1494 217.463 58.8352 216.526 57.5017 216.526ZM57.5331 220.294H55.8188V217.613H57.5331C58.4319 217.613 58.9449 218.336 58.9449 218.953C58.9449 219.559 58.4319 220.294 57.5331 220.294ZM64.9737 219.171C64.1041 219.171 63.1997 219.543 62.8278 220.368L63.8959 220.802C64.1258 220.368 64.5486 220.227 64.9955 220.227C65.6199 220.227 66.2532 220.591 66.2629 221.233V221.315C66.0451 221.193 65.5788 221.012 65.0052 221.012C63.8548 221.012 62.6826 221.626 62.6826 222.772C62.6826 223.819 63.6249 224.494 64.6841 224.494C65.4941 224.494 65.941 224.14 66.2218 223.728H66.2629V224.332H67.4254V221.333C67.4254 219.946 66.3573 219.171 64.9737 219.171ZM64.8285 223.456C64.4348 223.456 63.8862 223.267 63.8862 222.793C63.8862 222.188 64.5704 221.956 65.1625 221.956C65.6925 221.956 65.941 222.069 66.2629 222.219C66.1685 222.943 65.5255 223.456 64.8285 223.456ZM71.6608 219.342L70.2773 222.732H70.2361L68.8058 219.342H67.5077L69.6569 224.079L68.4306 226.715H69.6883L73 219.342H71.6608ZM60.8109 224.345H62.0178V216.526H60.8109V224.345Z" fill="#888888"/>
<path d="M102 185L108 191.099L114 185" stroke="#888888" stroke-width="1.5" stroke-linecap="round" stroke-linejoin="round"/>
<path d="M126 185L132 191.099L138 185" stroke="#3FBC6A" stroke-width="1.5" stroke-linecap="round" stroke-linejoin="round"/>
<path d="M161.034 185H150.966C150.609 185 150.431 185.431 150.683 185.683L155.717 190.717C155.873 190.873 156.127 190.873 156.283 190.717L161.317 185.683C161.569 185.431 161.391 185 161.034 185Z" fill="#3FBC6A"/>
<path d="M87.3995 217.668H95.2009C95.9203 217.668 96.5358 217.23 96.7958 216.611L99.4093 210.5C99.4873 210.3 99.5349 210.088 99.5349 209.867V208.207L99.5263 208.198L99.5349 208.133C99.5349 207.175 98.7592 206.4 97.8013 206.4H92.3274L93.1552 202.438C93.1725 202.352 93.1855 202.261 93.1855 202.165C93.1855 201.805 93.0381 201.48 92.8041 201.246L91.881 200.332L86.173 206.04C85.8609 206.356 85.6659 206.79 85.6659 207.266V215.935C85.6659 216.892 86.4417 217.668 87.3995 217.668ZM83.9323 217.668V207.266H80.4651V217.668H83.9323Z" fill="#067D2F"/>
<path d="M122.6 202.332H114.799C114.08 202.332 113.464 202.77 113.204 203.389L110.591 209.5C110.513 209.7 110.465 209.912 110.465 210.133V211.793L110.474 211.802L110.465 211.867C110.465 212.825 111.241 213.6 112.199 213.6H117.673L116.845 217.562C116.827 217.648 116.814 217.739 116.814 217.835C116.814 218.195 116.962 218.52 117.196 218.754L118.119 219.668L123.827 213.96C124.139 213.644 124.334 213.21 124.334 212.734V204.065C124.334 203.108 123.558 202.332 122.6 202.332ZM126.068 202.332V212.734H129.535V202.332H126.068Z" fill="#BB1B1B"/>
<defs>
<linearGradient id="paint0_linear_1_2" x1="7.63401" y1="228.106" x2="-2.85895" y2="217.28" gradientUnits="userSpaceOnUse">
<stop stop-color="#00A0FF"/>
<stop offset="0.0066" stop-color="#00A1FF"/>
<stop offset="0.2601" stop-color="#00BEFF"/>
<stop offset="0.5122" stop-color="#00D2FF"/>
<stop offset="0.7604" stop-color="#00DFFF"/>
<stop offset="1" stop-color="#00E3FF"/>
</linearGradient>
<linearGradient id="paint1_linear_1_2" x1="15.4011" y1="221.043" x2="-0.215391" y2="221.043" gradientUnits="userSpaceOnUse">
<stop stop-color="#FFE000"/>
<stop offset="0.4087" stop-color="#FFBD00"/>
<stop offset="0.7754" stop-color="#FFA500"/>
<stop offset="1" stop-color="#FF9C00"/>
</linearGradient>
<linearGradient id="paint2_linear_1_2" x1="9.58783" y1="219.607" x2="-4.64148" y2="204.926" gradientUnits="userSpaceOnUse">
<stop stop-color="#FF3A44"/>
<stop offset="1" stop-color="#C31162"/>
</linearGradient>
<linearGradient id="paint3_linear_1_2" x1="-1.72574" y1="233.444" x2="4.62829" y2="226.888" gradientUnits="userSpaceOnUse">
<stop stop-color="#32A071"/>
<stop offset="0.0685" stop-color="#2DA771"/>
<stop offset="0.4762" stop-color="#15CF74"/>
<stop offset="0.8009" stop-color="#06E775"/>
<stop offset="1" stop-color="#00F076"/>
</linearGradient>
<clipPath id="clip0_1_2">
<rect width="13" height="13" fill="white" transform="translate(20 28)"/>
</clipPath>
<clipPath id="clip1_1_2">
<rect width="13" height="13" fill="white" transform="translate(40 28)"/>
</clipPath>
<clipPath id="clip2_1_2">
<rect width="13" height="13" fill="white" transform="translate(84 108)"/>
</clipPath>
<clipPath id="clip3_1_2">
<rect width="13" height="13" fill="white" transform="translate(84 124)"/>
</clipPath>
</defs>
</svg>
